<svg xmlns="http://www.w3.org/2000/svg" width="92" height="92" viewBox="0 0 92 92">
  <g id="icon-1" transform="translate(-496 -939)">
    <circle id="Ellipse_377" data-name="Ellipse 377" cx="46" cy="46" r="46" transform="translate(496 939)" fill="#fafbff"/>
    <g id="_3" data-name="3" transform="translate(518.193 961.193)">
      <path id="Path_16259" data-name="Path 16259" d="M560.777,523.805c0,.665.008,1.231,0,1.8-.018,1.137-.231,1.364-1.352,1.366q-4.722.012-9.442,0c-1.2,0-1.416-.215-1.416-1.4q-.009-8.036,0-16.071c0-.97.02-1.943,0-2.913-.02-.852.382-1.223,1.211-1.221q4.921.009,9.843,0c.779,0,1.183.358,1.165,1.161-.014.629,0,1.258,0,2,2.079,0,4.046.056,6.008-.014a5.507,5.507,0,0,1,5.279,2.624,3.17,3.17,0,0,0,2.718,1.473c.836.022,1.675.05,2.511.008a3.8,3.8,0,0,1,4.148,2.467l6.593-1.245c1.314-.249,2.624-.532,3.945-.735a3.064,3.064,0,0,1,3.582,2.186,3.015,3.015,0,0,1-1.922,3.632c-4.6,1.995-9.221,3.961-13.823,5.958-2.718,1.179-5.488.874-8.291.422-3.335-.538-6.683-1-10.028-1.489A6.378,6.378,0,0,0,560.777,523.805Zm.068-1.874c3.877.564,7.72,1.083,11.549,1.7,2.21.354,4.4.6,6.519-.3,4.677-1.989,9.341-4.01,14.01-6.017.7-.3,1.135-.8.9-1.567a1.288,1.288,0,0,0-1.663-.9c-3.349.645-6.7,1.268-10.048,1.932a1.119,1.119,0,0,0-.721.536,3.736,3.736,0,0,1-3.829,2.356c-3.413-.018-6.828,0-10.241-.008-.265,0-.609.052-.779-.086a1.473,1.473,0,0,1-.593-.892c-.008-.243.374-.577.657-.725a2.093,2.093,0,0,1,.89-.048c3.447,0,6.894.014,10.342-.012a1.77,1.77,0,1,0-.006-3.52c-.8-.02-1.607-.038-2.409,0a5.371,5.371,0,0,1-5.086-2.609,2.831,2.831,0,0,0-2.3-1.426c-2.37-.056-4.743-.018-7.182-.018C560.845,514.179,560.845,517.982,560.845,521.931Zm-1.878,3.224V507.216h-8.588v17.939Z" transform="translate(-548.556 -479.955)" fill="#013ade"/>
      <path id="Path_16260" data-name="Path 16260" d="M641,381.121a9.655,9.655,0,0,1,13.385,13.837c-4.062,4.349-8.383,8.455-12.586,12.672a1,1,0,0,1-1.637-.022c-4.154-4.17-8.375-8.279-12.461-12.515a9.528,9.528,0,0,1-.249-12.812,9.654,9.654,0,0,1,12.718-1.732C640.447,380.735,640.718,380.926,641,381.121Zm-.08,24.8a4.556,4.556,0,0,0,.392-.3c3.855-3.853,7.746-7.674,11.553-11.575a7.876,7.876,0,0,0-10.88-11.376,1.248,1.248,0,0,1-1.971.014,7.876,7.876,0,0,0-10.84,11.416c3.128,3.21,6.328,6.348,9.494,9.52C639.423,404.371,640.16,405.139,640.921,405.918Z" transform="translate(-609.725 -378.894)" fill="#013ade"/>
      <path id="Path_16261" data-name="Path 16261" d="M609.73,541.619V530.01c2.439,0,4.811-.038,7.182.018a2.831,2.831,0,0,1,2.3,1.426,5.367,5.367,0,0,0,5.086,2.609c.8-.04,1.607-.02,2.409,0a1.77,1.77,0,1,1,.006,3.52c-3.447.026-6.894.01-10.342.012a2.092,2.092,0,0,0-.89.048c-.283.149-.665.484-.657.725a1.473,1.473,0,0,0,.593.892c.171.139.514.086.779.086,3.413,0,6.828-.01,10.241.008A3.734,3.734,0,0,0,630.271,537a1.119,1.119,0,0,1,.721-.536c3.347-.663,6.7-1.288,10.048-1.933a1.287,1.287,0,0,1,1.663.9c.235.769-.2,1.268-.9,1.567-4.671,2.007-9.333,4.03-14.01,6.017-2.123.9-4.309.657-6.519.3C617.452,542.7,613.609,542.183,609.73,541.619Z" transform="translate(-597.441 -499.643)" fill="#fff"/>
      <path id="Path_16262" data-name="Path 16262" d="M566.218,532.539H557.63V514.6h8.588Z" transform="translate(-555.807 -487.339)" fill="#fff"/>
      <path id="Path_16263" data-name="Path 16263" d="M647.946,412.987c-.761-.777-1.5-1.545-2.252-2.3-3.166-3.172-6.366-6.31-9.494-9.52a7.876,7.876,0,0,1,10.84-11.416,1.247,1.247,0,0,0,1.971-.014,7.876,7.876,0,0,1,10.88,11.376c-3.807,3.9-7.7,7.722-11.553,11.575A4.561,4.561,0,0,1,647.946,412.987Zm-2.764-16.541c-.9,0-1.667.006-2.431,0a.983.983,0,0,0-1.121,1.1c-.008,1.171-.012,2.342,0,3.511A.935.935,0,0,0,642.7,402.1c.794-.01,1.587,0,2.487,0,0,.914,0,1.708,0,2.5a.946.946,0,0,0,1.049,1.063c1.171.008,2.34,0,3.511,0a.962.962,0,0,0,1.1-1.109c-.006-.789,0-1.579,0-2.459.876,0,1.605-.018,2.334,0,.832.028,1.25-.315,1.233-1.179-.02-1.1-.014-2.208,0-3.311a1.011,1.011,0,0,0-1.155-1.171c-.761.006-1.525,0-2.411,0,0-.89-.006-1.681,0-2.475a.932.932,0,0,0-1.035-1.067c-1.171-.01-2.34,0-3.511,0-.806,0-1.137.424-1.119,1.2C645.2,394.833,645.181,395.564,645.181,396.446Z" transform="translate(-616.749 -385.962)" fill="#fff"/>
      <path id="Path_16264" data-name="Path 16264" d="M675.937,416.96c0-.882.014-1.613,0-2.344-.02-.779.313-1.2,1.119-1.2,1.171,0,2.342-.006,3.511,0a.931.931,0,0,1,1.035,1.067c-.006.794,0,1.587,0,2.475.888,0,1.649.006,2.411,0a1.01,1.01,0,0,1,1.155,1.171c-.012,1.1-.018,2.208,0,3.311.016.864-.4,1.207-1.234,1.179-.729-.024-1.458,0-2.334,0,0,.88-.006,1.669,0,2.459a.962.962,0,0,1-1.1,1.109c-1.171-.006-2.342,0-3.512,0a.944.944,0,0,1-1.049-1.063c0-.794,0-1.589,0-2.5-.9,0-1.693-.008-2.487,0a.935.935,0,0,1-1.063-1.043c-.014-1.171-.012-2.34,0-3.511a.983.983,0,0,1,1.121-1.1C674.269,416.966,675.033,416.96,675.937,416.96Zm7.387,1.774c-.709,0-1.37,0-2.029,0-1.254-.01-1.426-.185-1.438-1.473-.006-.681,0-1.362,0-2.029h-2.146c0,.824,0,1.585,0,2.346a1.008,1.008,0,0,1-1.167,1.155c-.783-.01-1.567,0-2.336,0v2.135c.824,0,1.587,0,2.348,0a1.007,1.007,0,0,1,1.155,1.167c-.014.759,0,1.517,0,2.3h2.146c0-.8.016-1.531,0-2.26-.024-.848.372-1.227,1.209-1.209.751.016,1.5,0,2.264,0Z" transform="translate(-647.505 -406.477)" fill="#013ade"/>
      <path id="Path_16265" data-name="Path 16265" d="M690.6,425.981v2.133c-.761,0-1.513.012-2.264,0-.838-.018-1.233.364-1.209,1.209.022.729,0,1.458,0,2.26h-2.146c0-.781-.01-1.541,0-2.3a1.007,1.007,0,0,0-1.155-1.167c-.763,0-1.525,0-2.348,0v-2.135c.767,0,1.553-.008,2.336,0a1.009,1.009,0,0,0,1.167-1.155c-.006-.761,0-1.523,0-2.346h2.146c0,.667,0,1.348,0,2.029.012,1.286.185,1.462,1.438,1.472C689.226,425.985,689.887,425.981,690.6,425.981Z" transform="translate(-654.778 -413.724)" fill="#fff"/>
    </g>
  </g>
</svg>
