<svg xmlns="http://www.w3.org/2000/svg" width="114" height="114" viewBox="0 0 114 114">
  <g id="icon-4" transform="translate(-416 -869)">
    <circle id="Ellipse_5" data-name="Ellipse 5" cx="57" cy="57" r="57" transform="translate(416 869)" fill="#eaefff"/>
    <g id="Layer_1" data-name="Layer 1" transform="translate(430.661 897.246)">
      <path id="Path_14725" data-name="Path 14725" d="M113.21,0c1.654.325,3.337.538,4.953.991A24.965,24.965,0,0,1,130.722,40.66c-.269.342-.564.658-.88,1.026-.611-.547-1.171-1.056-1.791-1.615a22.425,22.425,0,0,0,5.423-18.914,22.033,22.033,0,0,0-7.012-12.82A22.623,22.623,0,0,0,96.185,8.2L94.45,6.29a2.812,2.812,0,0,0,.6-.286A24.785,24.785,0,0,1,108.654.15a5.363,5.363,0,0,0,.628-.15Z" transform="translate(-54.089 0)" fill="#013ade"/>
      <path id="Path_14726" data-name="Path 14726" d="M33.706,162.45l-1.043-1.363c-.761.808-1.372,1.5-2.03,2.137a1.342,1.342,0,0,1-.855.38H1.532a.778.778,0,1,0,.081,0c2.893-2.88,5.846-5.829,8.833-8.807l1.461,1.573-4.8,4.743c.521,0,.8.043,1.085.043,6.44,0,12.884-.051,19.324.043a3.418,3.418,0,0,0,3.188-1.568L19.719,148.643l-5.872,5.9-1.744-1.82,6.017-5.944-1.709-1.517,5.983-5.983a3.051,3.051,0,0,0,.427.667c4,4.021,8.025,8.025,12.029,12.055a1.474,1.474,0,0,0,1.282.5q10.487-.808,20.973-1.59c3.265-.244,6.53-.487,9.794-.7a2.218,2.218,0,0,0,1.573-.705c1.474-1.53,2.991-3.017,4.466-4.5l1.786,1.709c-1.88,1.889-3.743,3.761-5.624,5.619a1.009,1.009,0,0,1-.594.2q-5.337.427-10.683.816l-20.191,1.5,2.111,1.641Zm2.29-5.5L22.091,143.04l-2.008,1.885q6.97,6.961,13.987,13.987l1.641-1.662Z" transform="translate(-0.455 -79.761)" fill="#013ade"/>
      <path id="Path_14727" data-name="Path 14727" d="M75.882,132.324v-2.419H88.86c3.038,0,4.662-2,4.047-5.055-2.064-.214-4.149-.427-6.235-.645-5.154-.517-10.311-1.017-15.465-1.555a1.325,1.325,0,0,0-1.222.427c-2.085,2.137-4.2,4.213-6.295,6.324a5.65,5.65,0,0,0-.547.769l-1.893-1.949c.671-.624,1.363-1.239,2.021-1.889,1.919-1.9,3.846-3.808,5.722-5.739a1.517,1.517,0,0,1,1.367-.5c4.53.474,9.064.919,13.593,1.376l10.683,1.085.726.085c0,2.235.624,4.474-.726,6.79a4.46,4.46,0,0,0,.509-.376c.081-.09.192-.192.291-.286q3.9-3.91,7.816-7.816a5.524,5.524,0,0,1,6.948-1.077,1.03,1.03,0,0,0,.855-.051,5.175,5.175,0,0,1,4.017-.624,4.645,4.645,0,0,1,3.141,6.141,5.491,5.491,0,0,1-1.145,1.957c-1.944,1.991-3.966,3.9-6.017,5.9l-1.491-1.8,3.209-3.184c.714-.714,1.453-1.406,2.137-2.137a5.381,5.381,0,0,0,.949-1.41,2.137,2.137,0,0,0-.427-2.5,2.1,2.1,0,0,0-2.487-.474,5.79,5.79,0,0,0-1.654,1.162c-3.03,2.991-6.025,6.017-9.055,9.008a1.654,1.654,0,0,1-1.026.5c-8.269.03-16.538,0-24.807,0C76.224,132.358,76.1,132.341,75.882,132.324Zm32.785-10.393a2.9,2.9,0,0,0-3.594.641l-6.837,6.837c-.12.12-.214.269-.4.5h2.487a.927.927,0,0,0,.573-.231c2.585-2.568,5.149-5.128,7.773-7.752Z" transform="translate(-35.076 -68.173)" fill="#013ade"/>
      <path id="Path_14728" data-name="Path 14728" d="M81.938,19.43,83.669,21a22.572,22.572,0,0,0,31.875,31.87l1.56,1.709A24.889,24.889,0,0,1,81.938,19.43Z" transform="translate(-43.222 -11.127)" fill="#013ade"/>
      <path id="Path_14729" data-name="Path 14729" d="M129.469,29.134l1.761-1.534A20,20,0,0,1,103,55.829l1.555-1.795a17.648,17.648,0,0,0,14.192,4.158,17.264,17.264,0,0,0,10.183-5.286A17.713,17.713,0,0,0,129.469,29.134Z" transform="translate(-58.985 -15.806)" fill="#013ade"/>
      <circle id="Ellipse_6" data-name="Ellipse 6" cx="18" cy="18" r="18" transform="translate(39.009 6.754)" fill="#fff"/>
      <path id="Path_14730" data-name="Path 14730" d="M120.194,16.527l-1.581,1.795A17.546,17.546,0,0,0,104.28,14.19a17.213,17.213,0,0,0-10.307,5.555,17.713,17.713,0,0,0-.261,23.478l-1.748,1.543a20.006,20.006,0,0,1,28.229-28.238Z" transform="translate(-49.783 -6.605)" fill="#013ade"/>
      <path id="Path_14731" data-name="Path 14731" d="M125.014,52.714l5.154,3.355-1.3,2.017c-.226-.128-.427-.231-.632-.355-2.359-1.526-4.7-3.06-7.077-4.568a12.063,12.063,0,0,0-1.487-.684V50.227h4.726a3.611,3.611,0,0,0,3.312-1.88,3.845,3.845,0,0,0,.209-.547H119.66V45.309h8.3a3.444,3.444,0,0,0-2.842-2.342c-1.342-.137-2.722-.081-4.085-.107h-1.367V40.45h12.153v2.372h-2.265a12.878,12.878,0,0,0,.932,2.239c.179.273.808.252,1.316.389v2.333c-1.209-.385-1.38.509-1.743,1.308A6.17,6.17,0,0,1,125.014,52.714Z" transform="translate(-68.526 -23.164)" fill="#013ade"/>
      <path id="Path_14732" data-name="Path 14732" d="M101.51,70.624l2.137-.914c2.137,4.329,5.376,7.213,10.431,7.636v2.261C110.061,80.543,102.916,75.462,101.51,70.624Z" transform="translate(-58.132 -39.921)" fill="#013ade"/>
      <path id="Path_14733" data-name="Path 14733" d="M149.464,32.882,147.3,33.8c-2.158-4.354-5.363-7.2-10.4-7.645V23.844C141.46,23.323,147.664,27.771,149.464,32.882Z" transform="translate(-78.398 -13.631)" fill="#013ade"/>
      <path id="Path_14734" data-name="Path 14734" d="M127.78,23.82v2.355h-2.35V23.82Z" transform="translate(-71.83 -13.641)" fill="#013ade"/>
      <path id="Path_14735" data-name="Path 14735" d="M139.246,89.916H136.9V87.54h2.346Z" transform="translate(-78.398 -50.131)" fill="#013ade"/>
      <path id="Path_14736" data-name="Path 14736" d="M74,142.273l1.615-1.573,1.568,1.709c-.5.479-1.051,1.017-1.56,1.517Z" transform="translate(-42.378 -80.575)" fill="#013ade"/>
      <path id="Path_14737" data-name="Path 14737" d="M83.959,133l1.457,1.466c-.538.53-1.09,1.068-1.615,1.577l-1.521-1.607Z" transform="translate(-47.119 -76.165)" fill="#013ade"/>
      <path id="Path_14738" data-name="Path 14738" d="M43.064,173.256,41.5,171.709,43.128,170l1.624,1.675Z" transform="translate(-23.766 -97.354)" fill="#013ade"/>
      <path id="Path_14739" data-name="Path 14739" d="M61.844,161.985l-.286.3-1.641,1.662q-7.03-7.034-13.987-13.987l2.008-1.885Z" transform="translate(-26.303 -84.801)" fill="#fff"/>
      <path id="Path_14740" data-name="Path 14740" d="M157.71,125.314c-2.624,2.624-5.188,5.184-7.76,7.73a.927.927,0,0,1-.573.231c-.782.026-1.568,0-2.487,0,.188-.235.282-.385.4-.5l6.837-6.837A2.9,2.9,0,0,1,157.71,125.314Z" transform="translate(-84.119 -71.556)" fill="#fff"/>
    </g>
  </g>
</svg>
