<svg xmlns="http://www.w3.org/2000/svg" width="92" height="92" viewBox="0 0 92 92">
  <g id="icon-2" transform="translate(-496 -939)">
    <circle id="Ellipse_377" data-name="Ellipse 377" cx="46" cy="46" r="46" transform="translate(496 939)" fill="#fafbff"/>
    <g id="_1" data-name="1" transform="translate(-6.864 732.271)">
      <path id="Path_16266" data-name="Path 16266" d="M523,224c50.451-8.077,33.672-3.883,50.916-3.883,0,17.244.813,38.368.813,55.612H523Zm21.82,12.129v.983c0,3.314-.066,6.629.032,9.94.04,1.369-.829,2.347-1.014,3.773a5.811,5.811,0,0,0-5.1-3.374c-1.507-.05-3.018-.036-4.526,0A5.482,5.482,0,0,0,529,251.342c-.876,3.052-1.647,6.135-2.412,9.216a2.282,2.282,0,0,0,4.378,1.227c.173-.461.323-.931.485-1.4a11.173,11.173,0,0,1,.081,1.886c-.131,3.311-.281,6.621-.407,9.932a2.513,2.513,0,0,0,5,.529c.186-1.1.354-2.2.53-3.3.343,1.174.508,2.355.729,3.529a2.364,2.364,0,0,0,2.341,1.956,2.467,2.467,0,0,0,2.606-2.8q-.286-6.983-.563-13.97c-.01-.247,0-.5,0-.828a1.452,1.452,0,0,1,.226.183,2.656,2.656,0,0,0,4.885-.963q.737-2.81,1.55-5.6a2.667,2.667,0,0,1,.572-1.017,2.928,2.928,0,0,0,.617-2.65,1,1,0,0,0-.792-.588c-.264.015-.585.393-.727.687a2.566,2.566,0,0,0-.026.976l-1.576-.673V236.134a15,15,0,0,1,5.583,1.327,1.838,1.838,0,0,0,1.68-.015,13.084,13.084,0,0,1,7.714-1.169c1.6.273,3.139.9,4.72,1.3a1.265,1.265,0,0,0,1.044-.217c.167-.17.066-.676-.023-1a2.121,2.121,0,0,0-.466-.651,25.83,25.83,0,0,0-19.468-10.058c-.425-.026-.774-.006-1.047-.5a.659.659,0,0,0-1.195,0c-.275.488-.616.487-1.046.508a25.926,25.926,0,0,0-13.813,4.672,24.4,24.4,0,0,0-6.022,5.917,1.356,1.356,0,0,0-.131,1.143c.234.506.753.393,1.2.17.073-.036.144-.073.218-.105a14.432,14.432,0,0,1,12.061,0,1.953,1.953,0,0,0,1.754-.013A15.1,15.1,0,0,1,544.82,236.129Zm4.854,17.29c-.065.013-.129.026-.2.037.5,3.076.823,6.19,1.524,9.217a16.274,16.274,0,0,0,10.074,11.988,1.774,1.774,0,0,0,1.211.091,16.042,16.042,0,0,0,9.2-8.792c2.053-4.869,2.388-10.014,2.425-15.207a.823.823,0,0,0-.92-.894c-.4-.01-.808-.011-1.212-.016a12.581,12.581,0,0,1-9.222-3.615c-.566-.571-1.051-.475-1.591.055a11.055,11.055,0,0,1-5.8,3.167,32.914,32.914,0,0,1-4.091.391c-1.271.069-1.414.173-1.41,1.474C549.676,252.019,549.674,252.719,549.674,253.419Zm-8.894-10.391a3.636,3.636,0,1,0-3.69,3.6A3.64,3.64,0,0,0,540.78,243.028Z" fill="#fafbff"/>
      <path id="Path_16267" data-name="Path 16267" d="M549.738,240.1a15.108,15.108,0,0,0-5.566,1.309,1.948,1.948,0,0,1-1.754.013,14.432,14.432,0,0,0-12.061,0c-.074.032-.146.068-.218.105-.446.225-.965.336-1.2-.17a1.356,1.356,0,0,1,.131-1.143,24.376,24.376,0,0,1,6.022-5.917,25.939,25.939,0,0,1,13.813-4.672c.43-.021.769-.019,1.046-.508a.659.659,0,0,1,1.195,0c.275.5.624.479,1.048.5a25.836,25.836,0,0,1,19.468,10.058,2.14,2.14,0,0,1,.466.651c.089.327.191.833.023,1a1.26,1.26,0,0,1-1.044.217c-1.583-.4-3.12-1.031-4.72-1.3a13.084,13.084,0,0,0-7.714,1.169,1.843,1.843,0,0,1-1.68.015,15.029,15.029,0,0,0-5.583-1.327v11.547l1.576.672a2.534,2.534,0,0,1,.026-.976c.142-.294.464-.672.727-.687a1.007,1.007,0,0,1,.792.588,2.929,2.929,0,0,1-.617,2.649,2.667,2.667,0,0,0-.572,1.017q-.812,2.791-1.55,5.6a2.656,2.656,0,0,1-4.885.963,1.445,1.445,0,0,0-.226-.183c0,.331-.008.58,0,.828q.279,6.986.563,13.97a2.466,2.466,0,0,1-2.606,2.8,2.364,2.364,0,0,1-2.341-1.956c-.221-1.172-.386-2.355-.729-3.529-.176,1.1-.343,2.2-.53,3.3a2.513,2.513,0,0,1-5-.529c.126-3.311.276-6.621.407-9.932a11.167,11.167,0,0,0-.081-1.886c-.16.466-.312.934-.485,1.4a2.282,2.282,0,0,1-4.378-1.227c.765-3.083,1.536-6.165,2.412-9.216a5.482,5.482,0,0,1,5.208-3.894c1.508-.032,3.018-.047,4.526,0a5.811,5.811,0,0,1,5.1,3.374c.184-1.424,1.054-2.4,1.014-3.773-.1-3.311-.032-6.626-.032-9.94C549.738,240.793,549.738,240.5,549.738,240.1Zm-4.476,27.075q-.179-4.44-.365-8.881c-.023-.519.019-1.093.608-1.135a1.471,1.471,0,0,1,1.051.624c.619.878,1.09,1.859,1.71,2.737a1.4,1.4,0,0,0,1.043.537,1.209,1.209,0,0,0,.816-.736c.613-2.006,1.151-4.036,1.715-6.059.121-.436,0-.823-.456-.837a.954.954,0,0,0-.692.55c-.354,1.015-.582,2.074-.944,3.086a1.287,1.287,0,0,1-.774.76c-.246.045-.677-.291-.847-.567-.435-.708-.732-1.5-1.154-2.216a3.73,3.73,0,0,0-3.3-1.993c-1.508-.023-3.018-.034-4.525,0a3.9,3.9,0,0,0-3.721,2.843c-.8,2.9-1.531,5.831-2.294,8.747-.12.456-.044.82.454.952.516.137.721-.187.857-.621.289-.925.6-1.843.9-2.764.482-1.484.936-2.979,1.469-4.444a1.214,1.214,0,0,1,.792-.637c.2-.042.559.263.714.5a1.488,1.488,0,0,1,.07.786q-.276,6.782-.563,13.564c-.06,1.426-.118,2.853-.162,4.279a.865.865,0,0,0,.824,1.005.839.839,0,0,0,.946-.792c.044-.238.086-.477.123-.716q.609-3.952,1.214-7.9c.081-.532.2-1.059.873-1.057s.792.506.875,1.052c.42,2.795.857,5.588,1.282,8.383.1.621.318,1.124,1.064,1.035.706-.084.782-.6.757-1.2C545.489,273.1,545.38,270.138,545.261,267.178Zm-.778-27.659a18.128,18.128,0,0,1,12.126-.011c-.855-2.69-1.7-5.2-3.645-7.147a3.074,3.074,0,0,0-4.825,0C546.189,234.3,545.345,236.816,544.484,239.519Zm2.111-7.96c-4.84.356-12.379,4.29-14.3,7.452a16.59,16.59,0,0,1,10.436.74A21.689,21.689,0,0,1,546.6,231.559Zm22.214,7.449c-1.945-3.185-10.459-7.586-14.062-7.388.7,1.267,1.507,2.538,2.124,3.894s1.046,2.787,1.568,4.216A16.5,16.5,0,0,1,568.809,239.008Z" transform="translate(-4.918 -3.974)" fill="#013ade"/>
      <path id="Path_16268" data-name="Path 16268" d="M687,366.709c0-.7,0-1.4,0-2.1,0-1.3.139-1.4,1.41-1.474a32.6,32.6,0,0,0,4.091-.391,11.044,11.044,0,0,0,5.8-3.167c.538-.53,1.023-.626,1.591-.055a12.576,12.576,0,0,0,9.222,3.615c.4,0,.808.007,1.212.016a.824.824,0,0,1,.92.894c-.036,5.191-.37,10.338-2.425,15.207a16.037,16.037,0,0,1-9.2,8.792,1.784,1.784,0,0,1-1.211-.091,16.277,16.277,0,0,1-10.074-11.988c-.7-3.028-1.028-6.143-1.524-9.217C686.875,366.735,686.939,366.722,687,366.709Zm1.688-1.943a39.39,39.39,0,0,0,1.811,12.9,14.64,14.64,0,0,0,8.058,8.572,1.536,1.536,0,0,0,1.115.008,14.448,14.448,0,0,0,8.058-8.566,32.329,32.329,0,0,0,1.72-8.762c.1-1.358.134-2.719.2-4.161a14.361,14.361,0,0,1-10.532-3.729A14.386,14.386,0,0,1,688.692,364.766Z" transform="translate(-137.33 -113.29)" fill="#013ade"/>
      <path id="Path_16269" data-name="Path 16269" d="M595.278,322.671A3.636,3.636,0,1,1,591.659,319,3.639,3.639,0,0,1,595.278,322.671Zm-1.623-.031a2.013,2.013,0,1,0-2,2.009A2.023,2.023,0,0,0,593.655,322.64Z" transform="translate(-54.498 -79.643)" fill="#013ade"/>
      <path id="Path_16270" data-name="Path 16270" d="M567.13,393.085c.116,2.961.226,5.921.356,8.881.026.6-.05,1.114-.756,1.2-.744.089-.968-.414-1.064-1.035-.425-2.795-.863-5.587-1.282-8.383-.082-.546-.209-1.051-.875-1.052s-.792.525-.873,1.057q-.6,3.952-1.214,7.9c-.037.239-.079.478-.123.716a.839.839,0,0,1-.946.792.865.865,0,0,1-.824-1.005c.044-1.427.1-2.853.162-4.279q.281-6.782.563-13.564a1.457,1.457,0,0,0-.07-.786c-.154-.238-.511-.545-.714-.5a1.219,1.219,0,0,0-.792.637c-.533,1.466-.988,2.96-1.469,4.444-.3.921-.606,1.84-.9,2.764-.136.433-.341.758-.857.621-.5-.134-.574-.5-.454-.952.763-2.916,1.489-5.842,2.294-8.747a3.9,3.9,0,0,1,3.721-2.844c1.508-.036,3.016-.026,4.525,0a3.725,3.725,0,0,1,3.3,1.993c.422.718.719,1.508,1.154,2.216.17.276.6.613.847.567a1.283,1.283,0,0,0,.774-.76c.362-1.012.59-2.071.944-3.086a.954.954,0,0,1,.692-.55c.461.013.579.4.456.837-.564,2.022-1.1,4.053-1.715,6.059a1.205,1.205,0,0,1-.816.736,1.4,1.4,0,0,1-1.043-.537c-.621-.876-1.093-1.859-1.71-2.737a1.48,1.48,0,0,0-1.051-.624c-.587.042-.629.616-.608,1.135C566.892,387.163,567.009,390.123,567.13,393.085Z" transform="translate(-26.786 -129.881)" fill="#fff"/>
      <path id="Path_16271" data-name="Path 16271" d="M625.48,252.234c.86-2.7,1.705-5.22,3.653-7.16a3.074,3.074,0,0,1,4.825,0c1.945,1.943,2.792,4.457,3.645,7.147A18.114,18.114,0,0,0,625.48,252.234Z" transform="translate(-85.914 -16.688)" fill="#fff"/>
      <path id="Path_16272" data-name="Path 16272" d="M564.355,246.18a21.7,21.7,0,0,0-3.868,8.193,16.59,16.59,0,0,0-10.436-.74C551.975,250.47,559.513,246.536,564.355,246.18Z" transform="translate(-22.677 -18.595)" fill="#fff"/>
      <path id="Path_16273" data-name="Path 16273" d="M703.032,253.914a16.506,16.506,0,0,0-10.37.723c-.522-1.427-.951-2.864-1.568-4.216s-1.424-2.627-2.124-3.894C692.573,246.327,701.088,250.729,703.032,253.914Z" transform="translate(-139.14 -18.879)" fill="#fff"/>
      <path id="Path_16274" data-name="Path 16274" d="M698.34,374.587a14.358,14.358,0,0,0,10.433-3.737,14.355,14.355,0,0,0,10.532,3.729c-.068,1.44-.1,2.8-.2,4.161a32.266,32.266,0,0,1-1.72,8.762,14.452,14.452,0,0,1-8.058,8.566,1.535,1.535,0,0,1-1.115-.008,14.64,14.64,0,0,1-8.058-8.572A39.372,39.372,0,0,1,698.34,374.587Zm9.572,9.431c-.858-.9-1.654-1.735-2.447-2.569a.889.889,0,0,0-1.458,0c-.677.692-1.374,1.366-2.051,2.059-.616.63-.622.946-.008,1.565,1.744,1.757,3.5,3.5,5.246,5.259a.926.926,0,0,0,1.52.029q4.275-4.289,8.563-8.564a.9.9,0,0,0,.006-1.46c-.634-.622-1.256-1.256-1.885-1.883-.85-.847-1.075-.849-1.912-.011C711.677,380.245,709.873,382.054,707.912,384.018Z" transform="translate(-146.978 -123.111)" fill="#fff"/>
      <path id="Path_16275" data-name="Path 16275" d="M602.065,331.065a2.014,2.014,0,1,1-1.992-2.016A2.024,2.024,0,0,1,602.065,331.065Z" transform="translate(-62.907 -88.067)" fill="#fff"/>
      <path id="Path_16276" data-name="Path 16276" d="M724.356,420.127c1.961-1.964,3.765-3.773,5.572-5.58.837-.837,1.062-.834,1.912.011.629.626,1.251,1.261,1.885,1.883a.9.9,0,0,1-.007,1.46q-4.287,4.275-8.563,8.564a.926.926,0,0,1-1.52-.029c-1.741-1.76-3.5-3.5-5.246-5.259-.614-.619-.606-.936.008-1.565.677-.694,1.374-1.366,2.051-2.059a.888.888,0,0,1,1.458,0C722.7,418.392,723.5,419.225,724.356,420.127Zm6.473-4.2c-1.856,1.861-3.657,3.67-5.462,5.475-.842.844-1.067.841-1.911,0-.753-.75-1.505-1.5-2.114-2.113l-1.314,1,4.326,4.308c2.489-2.489,5.042-5.04,7.552-7.549Z" transform="translate(-163.423 -159.22)" fill="#013ade"/>
      <path id="Path_16277" data-name="Path 16277" d="M741.682,426.31l1.077,1.125c-2.51,2.509-5.063,5.06-7.552,7.549-1.324-1.317-2.784-2.771-4.326-4.308l1.314-1c.611.609,1.361,1.363,2.114,2.113.845.841,1.069.842,1.911,0C738.025,429.98,739.826,428.171,741.682,426.31Z" transform="translate(-174.276 -169.606)" fill="#fff"/>
    </g>
  </g>
</svg>
