<svg xmlns="http://www.w3.org/2000/svg" width="92" height="92" viewBox="0 0 92 92">
  <g id="icon-3" transform="translate(-496 -939)">
    <circle id="Ellipse_377" data-name="Ellipse 377" cx="46" cy="46" r="46" transform="translate(496 939)" fill="#fafbff"/>
    <g id="_2" data-name="2" transform="translate(365 731.31)">
      <path id="Path_16278" data-name="Path 16278" d="M202.5,278.5H150V226c8.855,0,14.5-4.136,23.813-5.6,8.516-1.337,20.706,0,29.35,0C203.164,237.9,202.5,261,202.5,278.5Zm-40.382-7c-.121.026-.223.059-.325.071a1.726,1.726,0,0,0-1.8,1.969c-.008.792-.025,1.586.011,2.377a1.614,1.614,0,0,0,1.614,1.634q5.288.039,10.576,0a1.582,1.582,0,0,0,1.629-1.609c.039-.927.031-1.859,0-2.787a1.481,1.481,0,0,0-1.2-1.485c-.561-.117-.673-.433-.781-.871-.545-2.2-1.071-4.4-1.66-6.591a5.529,5.529,0,0,0-3.34-3.691,30.344,30.344,0,0,1-3.186-1.783c-.607-.366-1.134-.866-1.747-1.216a3.733,3.733,0,0,0-1.511-.535.93.93,0,0,1-.922-.709c-.725-1.768-1.435-3.545-2.262-5.268a8.262,8.262,0,0,0-1.613-2.333,2.538,2.538,0,0,0-4.067.559,3.326,3.326,0,0,0-.471,2.9q1.851,5.729,3.791,11.426a6.119,6.119,0,0,0,2.654,3.325c1.114.691,2.146,1.511,3.255,2.208A2.872,2.872,0,0,1,162.113,271.494Zm28.271,0a2.9,2.9,0,0,1,1.452-2.467c.978-.6,1.864-1.349,2.851-1.924a7.158,7.158,0,0,0,3.214-4.185c1.147-3.5,2.323-7,3.442-10.507a4.118,4.118,0,0,0,.149-1.77,2.98,2.98,0,0,0-2.069-2.617,2.649,2.649,0,0,0-3.018,1.134,11.318,11.318,0,0,0-1.278,2.179c-.756,1.665-1.432,3.366-2.164,5.043-.1.218-.333.546-.489.538-1.183-.061-1.978.676-2.858,1.27a16.594,16.594,0,0,1-3.233,2.034,6.193,6.193,0,0,0-4.272,4.649c-.458,2-.974,3.978-1.463,5.966-.1.4-.192.71-.728.823a1.545,1.545,0,0,0-1.25,1.614c-.018.874-.033,1.75,0,2.623a1.606,1.606,0,0,0,1.672,1.657q5.246.032,10.494,0a1.632,1.632,0,0,0,1.662-1.675c.03-.627.01-1.257.01-1.885C192.512,272.18,192.165,271.766,190.384,271.491ZM162.259,237.7c0,1.23-.062,2.464.015,3.689a20.022,20.022,0,0,0,.53,4.936c2.108,6.432,6.795,10.3,13.035,12.474a1.984,1.984,0,0,0,1.181-.1,20.912,20.912,0,0,0,10.283-7.53,13.12,13.12,0,0,0,2.9-7.7c.069-3.962.023-7.925.039-11.889,0-.627-.23-.956-.886-1.024a18.442,18.442,0,0,1-8.406-3.219,2.513,2.513,0,0,0-1.283-.389c-2.241-.038-4.482-.046-6.723,0a3.024,3.024,0,0,0-1.5.466,18.339,18.339,0,0,1-8.188,3.12c-.783.079-1.009.448-1,1.176C162.277,233.712,162.261,235.707,162.259,237.7Z" fill="#fafbff"/>
      <path id="Path_16279" data-name="Path 16279" d="M166.732,383.018a2.866,2.866,0,0,0-1.355-2.4c-1.109-.7-2.141-1.517-3.255-2.208a6.118,6.118,0,0,1-2.654-3.325q-1.932-5.7-3.791-11.426a3.331,3.331,0,0,1,.471-2.9,2.538,2.538,0,0,1,4.067-.559,8.329,8.329,0,0,1,1.613,2.333c.825,1.721,1.535,3.5,2.262,5.268a.932.932,0,0,0,.922.709,3.733,3.733,0,0,1,1.511.535c.614.349,1.142.85,1.747,1.216a29.919,29.919,0,0,0,3.186,1.783,5.526,5.526,0,0,1,3.34,3.691c.589,2.188,1.116,4.392,1.66,6.591.108.438.22.755.781.871a1.481,1.481,0,0,1,1.2,1.485c.036.928.044,1.859,0,2.787a1.58,1.58,0,0,1-1.629,1.609q-5.288.034-10.576,0a1.613,1.613,0,0,1-1.614-1.634c-.036-.791-.018-1.585-.011-2.377a1.726,1.726,0,0,1,1.8-1.969A3.173,3.173,0,0,0,166.732,383.018Zm8.449.038c-.628-2.449-1.206-4.8-1.846-7.139a3.467,3.467,0,0,0-2.412-2.487,13.247,13.247,0,0,1-3.73-2.156c-.558-.394-1.094-.822-1.677-1.173a1.328,1.328,0,0,0-1.811.392,1.354,1.354,0,0,0,.226,1.783,5.4,5.4,0,0,0,.586.446c1.419,1.02,2.836,2.044,4.26,3.056.427.3.715.676.369,1.161s-.794.318-1.214.013c-1.57-1.137-3.163-2.246-4.718-3.4a2.8,2.8,0,0,1-.536-4.124,1.1,1.1,0,0,0,.135-.906c-.709-1.773-1.458-3.53-2.226-5.281a7.805,7.805,0,0,0-.847-1.49c-.407-.553-.886-1.1-1.7-.8a2.02,2.02,0,0,0-1.048,1.977,4.347,4.347,0,0,0,.212.789c.919,2.8,1.959,5.568,2.728,8.409a9.345,9.345,0,0,0,4.68,6.267c1.844.991,3.6,2.192,3.589,4.669C170.568,383.055,172.8,383.055,175.181,383.055Zm-3.578,1.471H168.33c-2.326,0-2.3,0-2.3,2.315,0,.643.207.85.848.842,2.618-.028,5.236-.011,7.855-.011,2.382,0,2.366,0,2.3-2.4-.015-.573-.213-.761-.773-.751C174.711,384.543,173.156,384.527,171.6,384.527Z" transform="translate(-4.619 -111.524)" fill="#013ade"/>
      <path id="Path_16280" data-name="Path 16280" d="M336.394,383.034c1.782.276,2.128.689,2.128,2.5,0,.628.018,1.258-.01,1.885a1.632,1.632,0,0,1-1.662,1.675q-5.246.037-10.494,0a1.6,1.6,0,0,1-1.672-1.657c-.034-.873-.02-1.749,0-2.623a1.542,1.542,0,0,1,1.25-1.614c.536-.112.63-.422.728-.823.49-1.988,1.006-3.97,1.463-5.966a6.193,6.193,0,0,1,4.272-4.649,16.693,16.693,0,0,0,3.233-2.034c.879-.592,1.675-1.329,2.858-1.27.157.008.394-.32.489-.538.732-1.677,1.408-3.378,2.164-5.043a11.27,11.27,0,0,1,1.278-2.179,2.647,2.647,0,0,1,3.018-1.134,2.978,2.978,0,0,1,2.069,2.617,4.093,4.093,0,0,1-.149,1.77c-1.119,3.511-2.3,7-3.442,10.507a7.152,7.152,0,0,1-3.214,4.185c-.988.577-1.875,1.327-2.851,1.924A2.91,2.91,0,0,0,336.394,383.034Zm-1.583.041a4.747,4.747,0,0,0,.194-.641,4.316,4.316,0,0,1,2.206-3.178c.906-.556,1.726-1.258,2.648-1.785a6.1,6.1,0,0,0,2.764-3.7c1.088-3.376,2.218-6.739,3.327-10.109a3.754,3.754,0,0,0,.184-.712,2.029,2.029,0,0,0-1.047-1.978c-.817-.3-1.306.246-1.7.8a9.572,9.572,0,0,0-.947,1.714c-.727,1.647-1.4,3.319-2.128,4.966a.892.892,0,0,0,.156,1.086,2.631,2.631,0,0,1-.256,3.76c-1.685,1.344-3.465,2.569-5.243,3.788-.21.144-.663-.069-1-.116.062-.34.023-.763.213-1a5.458,5.458,0,0,1,1.1-.837c1.242-.892,2.5-1.77,3.722-2.682a1.364,1.364,0,0,0,.415-1.939,1.387,1.387,0,0,0-2.023-.271c-.364.24-.709.51-1.066.763a16.163,16.163,0,0,1-4.278,2.51,4.047,4.047,0,0,0-2.546,3.276q-.615,2.547-1.24,5.092c-.094.384-.189.769-.292,1.194C330.322,383.075,332.555,383.075,334.811,383.075Zm-3.2,4.616H334.8c2.318,0,2.293,0,2.293-2.334,0-.668-.236-.828-.858-.822-2.618.026-5.236.011-7.855.011-2.333,0-2.31,0-2.3,2.329,0,.664.244.84.866.827C328.5,387.668,330.057,387.691,331.61,387.691Z" transform="translate(-146.01 -111.543)" fill="#013ade"/>
      <path id="Path_16281" data-name="Path 16281" d="M224.612,242.392c0-1.995.018-3.99-.008-5.984-.01-.727.217-1.1,1-1.176a18.339,18.339,0,0,0,8.188-3.12,3.023,3.023,0,0,1,1.5-.466c2.239-.049,4.482-.041,6.723,0a2.492,2.492,0,0,1,1.283.389,18.442,18.442,0,0,0,8.406,3.219c.656.067.888.4.886,1.024-.016,3.963.03,7.927-.039,11.889a13.124,13.124,0,0,1-2.9,7.7,20.922,20.922,0,0,1-10.283,7.53,2.011,2.011,0,0,1-1.181.1c-6.24-2.169-10.927-6.04-13.035-12.474a20.094,20.094,0,0,1-.53-4.936C224.552,244.856,224.612,243.623,224.612,242.392Zm1.494-5.74a4.781,4.781,0,0,0-.062.522c0,3.47-.008,6.941,0,10.411a10.643,10.643,0,0,0,1.022,4.6,19.407,19.407,0,0,0,10.663,9.672,2.275,2.275,0,0,0,1.809-.023,20.52,20.52,0,0,0,7.579-5.182c1.977-2.118,3.662-4.516,3.849-7.436.264-4.134.115-8.294.139-12.443,0-.025-.025-.048-.071-.13a20.5,20.5,0,0,1-8.547-3.419,1.615,1.615,0,0,0-.856-.179q-3.034-.022-6.067,0a1.631,1.631,0,0,0-.856.179A20.562,20.562,0,0,1,226.107,236.652Z" transform="translate(-62.353 -4.691)" fill="#013ade"/>
      <path id="Path_16282" data-name="Path 16282" d="M182.583,390.459H175.6c.011-2.477-1.745-3.678-3.589-4.669a9.342,9.342,0,0,1-4.68-6.267c-.769-2.841-1.809-5.609-2.728-8.409a4.222,4.222,0,0,1-.212-.789,2.018,2.018,0,0,1,1.048-1.977c.817-.3,1.3.253,1.7.8a7.67,7.67,0,0,1,.846,1.49c.768,1.749,1.517,3.507,2.226,5.281a1.1,1.1,0,0,1-.135.906,2.805,2.805,0,0,0,.536,4.124c1.555,1.156,3.148,2.266,4.718,3.4.42.305.863.481,1.214-.013s.056-.858-.369-1.161q-2.136-1.521-4.26-3.056a5.4,5.4,0,0,1-.586-.446,1.354,1.354,0,0,1-.226-1.783,1.328,1.328,0,0,1,1.811-.392c.584.351,1.12.779,1.677,1.173a13.15,13.15,0,0,0,3.73,2.156,3.47,3.47,0,0,1,2.412,2.487C181.377,385.655,181.955,388.009,182.583,390.459Z" transform="translate(-12.021 -118.927)" fill="#fff"/>
      <path id="Path_16283" data-name="Path 16283" d="M225.144,512.476c1.555,0,3.109.016,4.664-.008.559-.01.758.18.773.751.062,2.4.079,2.4-2.3,2.4-2.618,0-5.236-.016-7.855.011-.641.007-.845-.2-.848-.842-.008-2.315-.03-2.315,2.3-2.315Z" transform="translate(-58.16 -239.473)" fill="#fff"/>
      <path id="Path_16284" data-name="Path 16284" d="M351.661,390.465H344.82c.1-.427.2-.81.292-1.194q.62-2.544,1.24-5.092A4.05,4.05,0,0,1,348.9,380.9a16.147,16.147,0,0,0,4.278-2.51c.358-.253.7-.523,1.066-.763a1.386,1.386,0,0,1,2.023.271,1.364,1.364,0,0,1-.415,1.939c-1.227.912-2.48,1.79-3.722,2.682a5.342,5.342,0,0,0-1.1.837c-.19.236-.151.659-.213,1,.341.048.794.261,1,.116,1.778-1.219,3.558-2.446,5.243-3.788a2.631,2.631,0,0,0,.256-3.76.894.894,0,0,1-.156-1.086c.727-1.647,1.4-3.319,2.128-4.966a9.639,9.639,0,0,1,.947-1.714c.4-.556.886-1.1,1.7-.8a2.029,2.029,0,0,1,1.047,1.978,3.751,3.751,0,0,1-.184.712c-1.109,3.37-2.239,6.733-3.327,10.109a6.115,6.115,0,0,1-2.764,3.7c-.922.527-1.742,1.229-2.648,1.785a4.311,4.311,0,0,0-2.206,3.178A4.452,4.452,0,0,1,351.661,390.465Z" transform="translate(-162.86 -118.933)" fill="#fff"/>
      <path id="Path_16285" data-name="Path 16285" d="M338.823,515.605c-1.555,0-3.109-.023-4.664.011-.622.013-.865-.162-.866-.827-.01-2.329-.033-2.329,2.3-2.329,2.618,0,5.236.016,7.855-.011.622-.007.858.154.858.822,0,2.334.025,2.334-2.293,2.334Z" transform="translate(-153.223 -239.457)" fill="#fff"/>
      <path id="Path_16286" data-name="Path 16286" d="M233.505,243.918a20.563,20.563,0,0,0,8.606-3.425,1.631,1.631,0,0,1,.856-.179q3.034-.022,6.066,0a1.631,1.631,0,0,1,.856.179,20.493,20.493,0,0,0,8.547,3.419c.046.082.071.107.071.13-.025,4.149.125,8.309-.139,12.443-.187,2.922-1.872,5.318-3.849,7.436a20.52,20.52,0,0,1-7.579,5.182,2.268,2.268,0,0,1-1.809.023,19.412,19.412,0,0,1-10.663-9.672,10.648,10.648,0,0,1-1.022-4.6c-.012-3.47,0-6.941,0-10.411A5.118,5.118,0,0,1,233.505,243.918Zm9.288,12.187c0,1.365-.008,2.592,0,3.819.008.9.21,1.1,1.122,1.109,1.339.011,2.679.007,4.018,0,1.111,0,1.263-.162,1.268-1.3,0-1.191,0-2.384,0-3.634,1.345,0,2.572.008,3.8,0,.92-.008,1.117-.2,1.125-1.1.011-1.339.007-2.679,0-4.018,0-1.165-.139-1.3-1.339-1.3-1.165,0-2.331,0-3.588,0,0-1.309,0-2.505,0-3.7-.007-1.071-.154-1.216-1.248-1.221q-1.969-.007-3.936,0c-1.073,0-1.219.154-1.224,1.243,0,1.193,0,2.387,0,3.678-1.358,0-2.608.018-3.857-.007-.768-.015-1.089.318-1.076,1.083.023,1.393,0,2.787.008,4.182.007.968.194,1.157,1.148,1.165C240.239,256.112,241.465,256.1,242.794,256.1Z" transform="translate(-69.751 -11.956)" fill="#fff"/>
      <path id="Path_16287" data-name="Path 16287" d="M265.313,278.8c-1.329,0-2.553.007-3.778,0-.953-.007-1.142-.2-1.148-1.165-.008-1.394.015-2.789-.008-4.182-.013-.764.308-1.1,1.076-1.083,1.248.025,2.5.007,3.857.007,0-1.291,0-2.484,0-3.678,0-1.089.153-1.239,1.224-1.243q1.969-.007,3.936,0c1.094,0,1.243.149,1.248,1.22.007,1.2,0,2.392,0,3.7,1.257,0,2.421,0,3.588,0,1.2,0,1.335.135,1.339,1.3,0,1.339.01,2.679,0,4.018-.008.907-.205,1.1-1.125,1.1-1.227.01-2.454,0-3.8,0,0,1.25,0,2.443,0,3.634,0,1.134-.158,1.293-1.268,1.3-1.339,0-2.679.008-4.018,0-.912-.008-1.114-.207-1.122-1.109C265.3,281.387,265.313,280.16,265.313,278.8Zm9.858-4.989h-3.419c-1.427,0-1.46-.034-1.46-1.483v-3.381h-3.543c0,1.2,0,2.338,0,3.478,0,1.324-.064,1.385-1.393,1.386q-1.742,0-3.481,0v3.548c.942,0,1.836,0,2.73,0,2.284-.008,2.156-.162,2.146,2.11,0,.919,0,1.837,0,2.75h3.478a1.291,1.291,0,0,0,.057-.226c0-1.175,0-2.349.012-3.522.007-.95.156-1.1,1.093-1.107,1.247-.008,2.5,0,3.785,0C275.17,276.151,275.17,275.042,275.17,273.808Z" transform="translate(-92.27 -34.648)" fill="#013ade"/>
      <path id="Path_16288" data-name="Path 16288" d="M282.779,281.426v3.548c-1.289,0-2.538,0-3.785,0-.938,0-1.086.158-1.093,1.107-.008,1.175-.007,2.349-.011,3.522a1.16,1.16,0,0,1-.057.226h-3.478c0-.912,0-1.831,0-2.749.01-2.27.138-2.116-2.146-2.11-.894,0-1.788,0-2.73,0v-3.548q1.737,0,3.481,0c1.33,0,1.391-.062,1.393-1.386,0-1.142,0-2.282,0-3.478H277.9v3.381c0,1.449.033,1.483,1.46,1.483C280.475,281.426,281.59,281.426,282.779,281.426Z" transform="translate(-99.879 -42.266)" fill="#fff"/>
    </g>
  </g>
</svg>
