<svg xmlns="http://www.w3.org/2000/svg" width="114" height="114" viewBox="0 0 114 114">
  <g id="icon-3" transform="translate(-416 -869)">
    <circle id="Ellipse_5" data-name="Ellipse 5" cx="57" cy="57" r="57" transform="translate(416 869)" fill="#eaefff"/>
    <g id="Layer_1" data-name="Layer 1" transform="translate(406.271 877.601)">
      <path id="Path_14679" data-name="Path 14679" d="M76.849,16.96V6.824c0-1.771.493-2.264,2.245-2.264h23.881c1.631,0,2.163.524,2.167,2.144V16.96h9.853c1.553,0,2.1.559,2.1,2.117V45.851c0,1.631-.532,2.19-2.14,2.19H67.015c-1.619,0-2.155-.548-2.155-2.171V19.1c0-1.608.548-2.136,2.183-2.136h9.806Zm7.165,27.826V34.4c0-1.577.517-2.1,2.086-2.1H96.2c1.639,0,2.148.5,2.152,2.144v9.286c0,.35.035.7.054,1.052h3.476V7.838H80.1V44.787Zm29.819,0V20.231h-8.645V44.787Zm-37.066.023V20.231h-8.61V44.81Zm10.486-.031h7.826v-9.22H87.257Z" transform="translate(-24.27)" fill="#013ade"/>
      <path id="Path_14680" data-name="Path 14680" d="M47.394,180.651v16.77c0,1.728-.478,2.21-2.171,2.21H27.359c-1.686,0-2.179-.5-2.179-2.21V163.68c0-1.709.493-2.21,2.183-2.21H45.227c1.693,0,2.167.482,2.167,2.21Q47.4,172.162,47.394,180.651ZM44.14,196.407V164.728h-15.7v31.628h2.33v-8.462c0-1.421.567-1.985,2-2H39.86c1.383,0,1.942.563,1.942,1.942v8.544Zm-10.121-.027H38.54v-7.224H34Z" transform="translate(0 -95.972)" fill="#013ade"/>
      <path id="Path_14681" data-name="Path 14681" d="M181.937,180.574V163.7c0-1.779.462-2.233,2.249-2.233h17.764c1.7,0,2.206.5,2.206,2.19v33.745c0,1.755-.489,2.233-2.26,2.233H184.127c-1.709,0-2.19-.474-2.19-2.186Q181.933,189.009,181.937,180.574Zm5.592,15.814v-8.583c0-1.332.555-1.891,1.88-1.9q3.6-.027,7.189,0c1.418,0,1.942.583,1.942,2.043v7.484c0,.322.027.641.043.924h2.3V164.717H185.191v31.671Zm7.767,0v-7.235H190.78v7.235Z" transform="translate(-95.877 -95.972)" fill="#013ade"/>
      <path id="Path_14682" data-name="Path 14682" d="M49.769,124.337v2.889c.311-.1.583-.284.777-.233.544.136,1.258.233,1.553.618a1.8,1.8,0,0,1,.132,1.631,45.468,45.468,0,0,1-2.878,4.311,1.472,1.472,0,0,1-2.474,0,40.222,40.222,0,0,1-2.831-4.221,2.167,2.167,0,0,1,.128-1.814c.478-.819,1.359-.649,2.33-.276V123.63c0-2.113.388-2.493,2.5-2.493h22.2c0-.524-.027-.979,0-1.425a1.553,1.553,0,0,1,1.612-1.553,1.526,1.526,0,0,1,1.553,1.592c.031.928.023,1.864,0,2.792a1.619,1.619,0,0,1-1.7,1.786h-22.9Z" transform="translate(-11.454 -69.48)" fill="#013ade"/>
      <path id="Path_14683" data-name="Path 14683" d="M170.695,127.282c.99-.435,1.8-.54,2.423.256s.3,1.6-.241,2.361c-.777,1.115-1.515,2.268-2.3,3.383a1.614,1.614,0,0,1-2.921,0c-.777-1.084-1.484-2.21-2.249-3.3-.524-.742-.963-1.5-.357-2.365s1.452-.777,2.385-.388v-2.9H145.129c-1.845,0-2.291-.447-2.3-2.3,0-.777-.023-1.53,0-2.3a1.511,1.511,0,0,1,1.46-1.585,1.553,1.553,0,0,1,1.693,1.464,13.74,13.74,0,0,1,0,1.515h22.335c1.942,0,2.35.388,2.35,2.33C170.7,124.7,170.695,125.919,170.695,127.282Z" transform="translate(-71.955 -69.478)" fill="#013ade"/>
      <path id="Path_14684" data-name="Path 14684" d="M118.174,177.478H102.845a8.512,8.512,0,0,1-1-.031,1.612,1.612,0,0,1-1.507-1.577,1.585,1.585,0,0,1,1.511-1.553,9.456,9.456,0,0,1,.994-.027h15.616c-.388-.326-.59-.489-.777-.68a1.49,1.49,0,0,1-.214-2.074,1.364,1.364,0,0,1,1.942-.517c1.884,1.192,3.732,2.435,5.523,3.759a1.456,1.456,0,0,1-.136,2.33c-1.7,1.223-3.441,2.392-5.2,3.534a1.522,1.522,0,0,1-2.12-.423,1.553,1.553,0,0,1,.291-2.148c.144-.132.307-.245.462-.388Z" transform="translate(-45.971 -101.676)" fill="#013ade"/>
      <path id="Path_14685" data-name="Path 14685" d="M107.343,211.065c.447.466.917.726.955,1.041a3.134,3.134,0,0,1-.2,1.825,1.223,1.223,0,0,1-1.767.388c-1.845-1.188-3.678-2.4-5.437-3.693a1.449,1.449,0,0,1,.058-2.408c1.7-1.227,3.437-2.392,5.2-3.53a1.519,1.519,0,0,1,2.124.388,1.612,1.612,0,0,1-.291,2.159c-.163.151-.346.28-.777.61h15.686a7.918,7.918,0,0,1,1.1.035,1.452,1.452,0,0,1,1.359,1.472,1.429,1.429,0,0,1-1.115,1.573,4.628,4.628,0,0,1-1.165.109H108.586Z" transform="translate(-45.932 -122.238)" fill="#013ade"/>
      <path id="Path_14686" data-name="Path 14686" d="M108.021,49.949H104.11V13h21.772V49.941h-3.476c-.019-.353-.054-.7-.054-1.052V39.6c0-1.639-.513-2.144-2.152-2.144H110.1c-1.553,0-2.086.524-2.086,2.1C108.017,42.986,108.021,46.4,108.021,49.949Zm8.513-20.137V26.705h-3.06v3.107Zm-3.08,2.719v3.107h3.08V32.531Zm3.107-14.319V15.144h-3.087v3.068Zm-3.107,5.783h3.107V20.942h-3.107Zm6.579-3.064V24h3.049V20.911Zm-13.092,3.045h3.068V20.919h-3.068Zm3.08,8.544h-3.064V35.6h3.064Zm9.958-2.719h3.06V26.733H119.99Zm0,5.825h3.064V32.558H119.99ZM106.887,15.113c0,.917-.023,1.775.023,2.625a.672.672,0,0,0,.454.478c.878.047,1.755.023,2.641.023V15.132Zm.062,14.669h3.068V26.748h-3.068ZM119.99,18.239c.913,0,1.771.027,2.621,0a.683.683,0,0,0,.485-.47c.047-.878,0-1.759,0-2.649H119.99Z" transform="translate(-48.276 -5.162)" fill="#fff"/>
      <path id="Path_14687" data-name="Path 14687" d="M177.361,69.466H168.7V44.91h8.661ZM174.6,49.112h-3.064V52.2H174.6Zm-.023,9.651V55.656h-3.041v3.107ZM171.5,65.221h3.107V62.177H171.5Z" transform="translate(-87.782 -24.679)" fill="#fff"/>
      <path id="Path_14688" data-name="Path 14688" d="M81.96,69.49H73.35V44.91h8.61ZM79.2,49.128H76.092v3.056H79.2Zm-3.06,6.5v3.107h3.029V55.625Zm3.021,9.616V62.173H76.127v3.068Z" transform="translate(-29.462 -24.679)" fill="#fff"/>
      <path id="Path_14689" data-name="Path 14689" d="M122.53,93.6V84.38h7.826V93.6Z" transform="translate(-59.543 -48.821)" fill="#fff"/>
      <path id="Path_14690" data-name="Path 14690" d="M49.284,201.539h-2.33v-8.544c0-1.387-.555-1.942-1.942-1.942q-3.542-.023-7.088,0c-1.437,0-2,.575-2,2v8.462H33.59V169.86H49.284ZM39.462,175.55v-3.076H36.406v3.076Zm3.5-3.107v3.107h3.029v-3.107Zm-6.583,8.9h3.068v-3.076H36.375Zm6.536,0h3.072v-3.072H42.911Zm-3.5,5.826V184.1H36.378v3.072Zm3.5-3.107v3.107h3.072v-3.107Z" transform="translate(-5.144 -101.103)" fill="#fff"/>
      <path id="Path_14691" data-name="Path 14691" d="M47.9,239.984V232.76h4.536v7.224Z" transform="translate(-13.896 -139.575)" fill="#fff"/>
      <path id="Path_14692" data-name="Path 14692" d="M192.67,201.5h-2.33V169.83h15.717v31.636h-2.3c0-.283-.043-.6-.043-.924v-7.484c0-1.46-.54-2.035-1.942-2.043q-3.592-.027-7.189,0c-1.324,0-1.876.571-1.88,1.9C192.659,195.742,192.67,198.565,192.67,201.5Zm3.546-20.172v-3.087h-3.053v3.087Zm.027-8.87h-3.107v3.064h3.107Zm6.5-.023h-3.107V175.5h3.107Zm-.058,8.932v-3.107h-3.018v3.107Zm-9.523,2.7v3.053h3.053v-3.053Zm6.474,3.088h3.056v-3.08h-3.056Z" transform="translate(-101.018 -101.085)" fill="#fff"/>
      <path id="Path_14693" data-name="Path 14693" d="M209.246,239.985H204.71V232.75h4.536Z" transform="translate(-109.807 -139.569)" fill="#fff"/>
      <path id="Path_14694" data-name="Path 14694" d="M131.28,51.4h-3.06V48.29h3.06Z" transform="translate(-63.023 -26.747)" fill="#013ade"/>
      <path id="Path_14695" data-name="Path 14695" d="M128.17,63.24h3.08v3.107h-3.08Z" transform="translate(-62.992 -35.891)" fill="#013ade"/>
      <path id="Path_14696" data-name="Path 14696" d="M131.268,21.538H128.18V18.47h3.088Z" transform="translate(-62.998 -8.508)" fill="#013ade"/>
      <path id="Path_14697" data-name="Path 14697" d="M128.11,36.483V33.45h3.107v3.033Z" transform="translate(-62.956 -17.67)" fill="#013ade"/>
      <path id="Path_14698" data-name="Path 14698" d="M145.05,33.37H148.1v3.072H145.05Z" transform="translate(-73.317 -17.621)" fill="#013ade"/>
      <path id="Path_14699" data-name="Path 14699" d="M111.4,36.446V33.39h3.068v3.056Z" transform="translate(-52.735 -17.633)" fill="#013ade"/>
      <path id="Path_14700" data-name="Path 14700" d="M114.5,63.28v3.084H111.44V63.28Z" transform="translate(-52.76 -35.915)" fill="#013ade"/>
      <path id="Path_14701" data-name="Path 14701" d="M145,51.418V48.35h3.06v3.068Z" transform="translate(-73.286 -26.784)" fill="#013ade"/>
      <path id="Path_14702" data-name="Path 14702" d="M145,66.4V63.33h3.064V66.4Z" transform="translate(-73.286 -35.946)" fill="#013ade"/>
      <path id="Path_14703" data-name="Path 14703" d="M111.248,18.44h3.107v3.107c-.885,0-1.763.023-2.641-.023a.672.672,0,0,1-.454-.478C111.225,20.211,111.248,19.357,111.248,18.44Z" transform="translate(-52.638 -8.489)" fill="#013ade"/>
      <path id="Path_14704" data-name="Path 14704" d="M111.42,51.433V48.4h3.068v3.033Z" transform="translate(-52.747 -26.814)" fill="#013ade"/>
      <path id="Path_14705" data-name="Path 14705" d="M145,21.6V18.49h3.107c0,.889.027,1.771,0,2.649a.683.683,0,0,1-.485.451C146.767,21.624,145.909,21.6,145,21.6Z" transform="translate(-73.286 -8.52)" fill="#013ade"/>
      <path id="Path_14706" data-name="Path 14706" d="M179.049,55.73v3.084H176V55.73Z" transform="translate(-92.247 -31.297)" fill="#013ade"/>
      <path id="Path_14707" data-name="Path 14707" d="M179.025,75.687H176V72.58h3.033Z" transform="translate(-92.247 -41.603)" fill="#013ade"/>
      <path id="Path_14708" data-name="Path 14708" d="M175.87,92.415V89.37h3.107v3.045Z" transform="translate(-92.167 -51.873)" fill="#013ade"/>
      <path id="Path_14709" data-name="Path 14709" d="M83.517,55.77v3.056H80.41V55.77Z" transform="translate(-33.781 -31.322)" fill="#013ade"/>
      <path id="Path_14710" data-name="Path 14710" d="M80.53,72.5h3.029v3.107H80.53Z" transform="translate(-33.854 -41.555)" fill="#013ade"/>
      <path id="Path_14711" data-name="Path 14711" d="M83.533,92.428H80.5V89.36h3.033Z" transform="translate(-33.836 -51.867)" fill="#013ade"/>
      <path id="Path_14712" data-name="Path 14712" d="M43.9,179.666H40.84V176.59H43.9Z" transform="translate(-9.578 -105.22)" fill="#013ade"/>
      <path id="Path_14713" data-name="Path 14713" d="M57.68,176.49h3.029V179.6H57.68Z" transform="translate(-19.878 -105.158)" fill="#013ade"/>
      <path id="Path_14714" data-name="Path 14714" d="M40.76,194.586V191.51h3.068v3.076Z" transform="translate(-9.529 -114.345)" fill="#013ade"/>
      <path id="Path_14715" data-name="Path 14715" d="M57.59,194.582V191.51h3.072v3.072Z" transform="translate(-19.823 -114.345)" fill="#013ade"/>
      <path id="Path_14716" data-name="Path 14716" d="M43.826,209.552H40.77V206.48h3.056Z" transform="translate(-9.535 -123.501)" fill="#013ade"/>
      <path id="Path_14717" data-name="Path 14717" d="M57.67,206.39h3.041V209.5H57.67Z" transform="translate(-19.872 -123.446)" fill="#013ade"/>
      <path id="Path_14718" data-name="Path 14718" d="M200.663,194.578H197.61V191.49h3.053Z" transform="translate(-105.464 -114.333)" fill="#013ade"/>
      <path id="Path_14719" data-name="Path 14719" d="M200.647,176.6v3.064H197.54V176.6Z" transform="translate(-105.421 -105.226)" fill="#013ade"/>
      <path id="Path_14720" data-name="Path 14720" d="M217.387,176.54v3.068H214.28V176.54Z" transform="translate(-115.66 -105.189)" fill="#013ade"/>
      <path id="Path_14721" data-name="Path 14721" d="M217.378,194.6H214.36V191.49h3.018Z" transform="translate(-115.709 -114.333)" fill="#013ade"/>
      <path id="Path_14722" data-name="Path 14722" d="M197.61,206.43h3.053v3.053H197.61Z" transform="translate(-105.464 -123.471)" fill="#013ade"/>
      <path id="Path_14723" data-name="Path 14723" d="M214.28,209.53v-3.08h3.056v3.08Z" transform="translate(-115.66 -123.483)" fill="#013ade"/>
    </g>
  </g>
</svg>
