<svg xmlns="http://www.w3.org/2000/svg" width="114" height="114" viewBox="0 0 114 114">
  <g id="icon-2" transform="translate(-416 -872)">
    <circle id="Ellipse_5" data-name="Ellipse 5" cx="57" cy="57" r="57" transform="translate(416 872)" fill="#eaefff"/>
    <g id="Layer_1" data-name="Layer 1" transform="translate(427.103 892.507)">
      <path id="Path_14666" data-name="Path 14666" d="M53.159,137.975c1.256.529,1.43.777,1.43,2.079v10.435c0,1.4-.477,1.871-1.876,1.874H33.62c-1.4,0-1.879-.477-1.881-1.867V140.058c0-1.311.174-1.564,1.414-2.069,0-1.116.05-2.246,0-3.371a4.442,4.442,0,0,0-1.683-3.128c-2.944-2.6-5.846-5.245-8.821-7.808a9.088,9.088,0,0,1-2.935-4.756c-1.907-7.324-3.891-14.629-5.872-21.933a5.827,5.827,0,0,1,2.191-6.711,1.171,1.171,0,0,0,.341-.815,5.775,5.775,0,0,1,4.706-5.786,5.922,5.922,0,0,1,6.52,4.089q3.033,8.845,6.125,17.666a1.707,1.707,0,0,0,.7.834c3.986,2.365,7.989,4.7,11.985,7.047a12.866,12.866,0,0,1,6.759,11.839Q53.155,131.576,53.159,137.975Zm-2.861.088v-.672c0-4.256.045-8.509-.014-12.762a9.789,9.789,0,0,0-4.744-8.494c-.954-.615-1.938-1.156-2.913-1.728q-4.831-2.839-9.694-5.676a2.845,2.845,0,0,0-4.279,1.361,2.815,2.815,0,0,0,1.4,3.557c2.622,1.528,5.245,3.028,7.867,4.565a1.419,1.419,0,1,1-1.383,2.472c-2.811-1.607-5.643-3.187-8.4-4.887a5.359,5.359,0,0,1-2.205-6.485,3.545,3.545,0,0,0-.024-2.861,6.6,6.6,0,0,1-.238-.763c-1.225-3.762-2.432-7.522-3.655-11.265a3.033,3.033,0,0,0-3-2.212,2.656,2.656,0,0,0-2.53,2.127,4.5,4.5,0,0,0,.112,1.924c1.974,7.431,3.993,14.855,5.974,22.286a5.39,5.39,0,0,0,1.693,2.756c2.99,2.625,5.939,5.3,8.947,7.927a7.618,7.618,0,0,1,2.808,6.273c-.026.849,0,1.7,0,2.563Zm-15.685,11.37H51.672v-8.425H34.614Zm-3.96-44.041c-.977-2.832-1.926-5.579-2.875-8.323q-1.452-4.213-2.916-8.416a3.114,3.114,0,0,0-3.395-2.146,2.735,2.735,0,0,0-2.172,2.78c3.133.315,4.954,2.117,5.722,5.114.174.687.434,1.354.653,2.031,1.025,3.154,2.048,6.308,3.078,9.486Z" transform="translate(-10.123 -63.471)" fill="#013ade"/>
      <path id="Path_14667" data-name="Path 14667" d="M219.091,137.972c1.256.529,1.43.777,1.43,2.079v10.435c0,1.4-.477,1.872-1.876,1.874h-19.1c-1.4,0-1.879-.477-1.879-1.867V140.055c0-1.311.174-1.564,1.43-2.077,0-4.113.055-8.244-.012-12.376a13.207,13.207,0,0,1,7.221-12.566c3.853-2.177,7.65-4.453,11.444-6.718a1.984,1.984,0,0,0,.8-.968q3.1-8.821,6.153-17.659a5.861,5.861,0,0,1,6.466-4.02,5.781,5.781,0,0,1,4.72,5.779,1.282,1.282,0,0,0,.4.873,5.734,5.734,0,0,1,2.162,6.482q-2.673,9.977-5.333,19.959c-1.407,5.285-1.149,4.8-5.245,8.442-2.31,2.055-4.606,4.129-6.945,6.149a4.876,4.876,0,0,0-1.848,4.144C219.124,136.327,219.091,137.161,219.091,137.972Zm-2.861.069c0-.935.014-1.8,0-2.651a7.534,7.534,0,0,1,2.751-6.118c3.025-2.639,6.048-5.288,8.986-8.022a5.881,5.881,0,0,0,1.628-2.57c2.091-7.524,4.086-15.077,6.1-22.622a2.88,2.88,0,0,0-1.867-3.779,3.038,3.038,0,0,0-3.626,2.234c-1.385,4.265-2.777,8.525-4.122,12.8a2.291,2.291,0,0,0,.076,1.411,5.42,5.42,0,0,1-.079,4.744,6.572,6.572,0,0,1-2.067,2.372c-2.684,1.7-5.483,3.218-8.232,4.816a1.266,1.266,0,0,1-1.712-.1,2.11,2.11,0,0,1-.42-1.5c.055-.367.551-.749.935-.975,2.482-1.469,4.985-2.9,7.484-4.334a2.932,2.932,0,0,0,1.669-2.174,2.731,2.731,0,0,0-1.166-2.806,2.783,2.783,0,0,0-3.192-.067q-6.12,3.576-12.23,7.167a9.941,9.941,0,0,0-5.193,9.059c-.019,4.105,0,8.208,0,12.314v.813Zm-15.659,2.94v8.466h17.018V140.98Zm32.4-51.694a2.8,2.8,0,0,0-2.236-2.777,3.005,3.005,0,0,0-3.316,2.1q-2.811,8.065-5.607,16.131c-.072.207-.122.424-.184.651l1.879.536c1.295-4,2.622-7.934,3.834-11.9A6.123,6.123,0,0,1,232.973,89.287Z" transform="translate(-150.347 -63.468)" fill="#013ade"/>
      <path id="Path_14668" data-name="Path 14668" d="M113.78,17.916a14.753,14.753,0,0,1,7.975-4.015,14.3,14.3,0,0,1,11.918,24.53q-9.222,9.207-18.422,18.415c-1.206,1.192-1.755,1.192-2.966,0C106,50.561,99.662,44.324,93.451,37.973a14.264,14.264,0,0,1,19.595-20.7Zm-.15,36.4c.255-.184.336-.224.4-.284,6.056-6.058,12.159-12.066,18.148-18.188a11.4,11.4,0,0,0-16.088-16.15c-.436.405-.837.846-1.278,1.247a1.414,1.414,0,0,1-2.072,0c-.441-.4-.842-.842-1.275-1.249a11.419,11.419,0,0,0-15.685,16.6q8.468,8.5,16.965,16.975A12.321,12.321,0,0,1,113.63,54.314Z" transform="translate(-67.876 -10.247)" fill="#013ade"/>
      <path id="Path_14669" data-name="Path 14669" d="M59.522,165.52H45.242c0-.863-.021-1.714,0-2.563a7.624,7.624,0,0,0-2.808-6.272c-3.009-2.622-5.96-5.3-8.947-7.934a5.39,5.39,0,0,1-1.693-2.756c-1.976-7.414-4-14.846-5.97-22.277a4.5,4.5,0,0,1-.112-1.924,2.656,2.656,0,0,1,2.53-2.127,3.033,3.033,0,0,1,3,2.212c1.223,3.755,2.429,7.515,3.645,11.272.081.255.143.517.238.763a3.545,3.545,0,0,1,.024,2.861,5.359,5.359,0,0,0,2.205,6.485c2.754,1.7,5.586,3.28,8.4,4.887a1.419,1.419,0,1,0,1.383-2.472c-2.622-1.538-5.245-3.037-7.867-4.565a2.855,2.855,0,1,1,2.875-4.918c3.242,1.879,6.468,3.779,9.7,5.672.975.572,1.967,1.113,2.913,1.728a9.789,9.789,0,0,1,4.744,8.494c.06,4.253.014,8.506.014,12.762Z" transform="translate(-19.342 -90.938)" fill="#fff"/>
      <path id="Path_14670" data-name="Path 14670" d="M101.9,332.815V324.39h17.058v8.425Z" transform="translate(-77.41 -246.854)" fill="#fff"/>
      <path id="Path_14671" data-name="Path 14671" d="M48.993,114.563l-1.907.548c-1.03-3.178-2.053-6.332-3.078-9.486-.219-.677-.477-1.345-.653-2.031-.763-3-2.584-4.8-5.722-5.114a2.735,2.735,0,0,1,2.184-2.792,3.09,3.09,0,0,1,3.395,2.146q1.459,4.189,2.906,8.385C47.066,108.973,48.015,111.719,48.993,114.563Z" transform="translate(-28.462 -72.643)" fill="#fff"/>
      <path id="Path_14672" data-name="Path 14672" d="M229.893,165.451H215.61v-.813c0-4.105-.014-8.208,0-12.314a9.961,9.961,0,0,1,5.193-9.059q6.108-3.6,12.23-7.167a2.791,2.791,0,0,1,3.192.067,2.731,2.731,0,0,1,1.166,2.806,2.959,2.959,0,0,1-1.669,2.174c-2.5,1.43-5.007,2.861-7.484,4.334-.384.238-.88.608-.935.975a2.11,2.11,0,0,0,.42,1.5,1.266,1.266,0,0,0,1.712.1c2.751-1.6,5.548-3.116,8.232-4.816a6.572,6.572,0,0,0,2.067-2.372,5.42,5.42,0,0,0,.079-4.744,2.291,2.291,0,0,1-.076-1.411c1.345-4.277,2.737-8.537,4.122-12.8a3.038,3.038,0,0,1,3.626-2.234,2.879,2.879,0,0,1,1.867,3.779c-2.015,7.546-4.01,15.1-6.1,22.622a5.882,5.882,0,0,1-1.628,2.57c-2.937,2.735-5.96,5.383-8.986,8.022a7.534,7.534,0,0,0-2.751,6.118C229.907,163.646,229.893,164.5,229.893,165.451Z" transform="translate(-164.005 -90.869)" fill="#fff"/>
      <path id="Path_14673" data-name="Path 14673" d="M209.86,324.29h17.018v8.466H209.86Z" transform="translate(-159.631 -246.778)" fill="#fff"/>
      <path id="Path_14674" data-name="Path 14674" d="M309.513,98.466a6.126,6.126,0,0,0-5.631,4.737c-1.223,3.974-2.539,7.9-3.834,11.9l-1.879-.534c.062-.238.112-.443.184-.651q2.8-8.068,5.607-16.131a3.006,3.006,0,0,1,3.316-2.1A2.792,2.792,0,0,1,309.513,98.466Z" transform="translate(-226.887 -72.648)" fill="#fff"/>
      <path id="Path_14675" data-name="Path 14675" d="M122.79,63.571c-.312-.37-.575-.732-.889-1.044q-8.478-8.492-16.965-16.975A11.425,11.425,0,0,1,120.623,28.94c.434.408.834.851,1.275,1.249a1.422,1.422,0,0,0,2.072,0c.441-.4.842-.842,1.278-1.247a11.4,11.4,0,0,1,16.09,16.145c-5.986,6.122-12.092,12.13-18.148,18.188C123.126,63.333,123.045,63.376,122.79,63.571ZM118.644,47v4.017c0,1.166.529,1.683,1.7,1.693h5.007c1.4,0,1.871-.477,1.876-1.869V47h3.865c1.347,0,1.84-.477,1.848-1.812V40.46c0-1.619-.42-2.029-2.074-2.029h-3.648V34.455c0-1.223-.515-1.726-1.743-1.733q-2.5-.014-4.995,0c-1.342,0-1.821.477-1.826,1.826v3.884h-4c-1.178,0-1.7.515-1.709,1.669-.014,1.724,0,3.447,0,5.171,0,1.211.524,1.712,1.757,1.719C115.967,47,117.243,47,118.644,47Z" transform="translate(-77.036 -19.505)" fill="#fff"/>
      <path id="Path_14676" data-name="Path 14676" d="M155.443,68.9H151.49c-1.233,0-1.75-.508-1.757-1.719,0-1.724-.012-3.447,0-5.171,0-1.156.532-1.669,1.709-1.669h4V56.456c0-1.342.477-1.821,1.826-1.826h4.995c1.228,0,1.733.51,1.743,1.733.012,1.278,0,2.553,0,3.977h3.645c1.655,0,2.074.41,2.074,2.029v4.725c0,1.323-.5,1.8-1.848,1.812h-3.865v3.841c0,1.395-.477,1.867-1.876,1.869h-5.007c-1.166,0-1.683-.527-1.7-1.693C155.433,71.614,155.443,70.31,155.443,68.9Zm5.722-11.374H158.3V61.1c0,1.669-.405,2.074-2.115,2.074h-3.536v2.794a1.309,1.309,0,0,0,.238.052h3.3c1.743,0,2.119.386,2.119,2.162v3.5h2.861V68.117c0-1.669.4-2.072,2.115-2.074h3.536V63.248a1.988,1.988,0,0,0-.238-.052h-3.476c-1.5,0-1.938-.453-1.943-1.979Z" transform="translate(-113.835 -41.407)" fill="#013ade"/>
      <path id="Path_14677" data-name="Path 14677" d="M170.456,66.77v3.683c0,1.526.443,1.974,1.943,1.979h3.476a1.985,1.985,0,0,1,.238.052v2.8h-3.543c-1.714,0-2.112.393-2.115,2.074v3.59H167.6v-3.5c0-1.776-.377-2.16-2.119-2.162h-3.3a1.31,1.31,0,0,1-.238-.052v-2.8h3.533c1.709,0,2.112-.4,2.115-2.074V66.784Z" transform="translate(-123.136 -50.652)" fill="#fff"/>
    </g>
  </g>
</svg>
