<?xml version="1.0" encoding="UTF-8"?><svg id="Layer_40" xmlns="http://www.w3.org/2000/svg" width="24" height="24" viewBox="0 0 24 24"><defs><style>.cls-1{fill:#ee744d;}</style></defs><path class="cls-1" d="M19.9,14.5h-.6c-.2,0-.4,0-.5-.2l-3.4-4.6c-.3-.4-.7-.6-1.1-.6h-.7c-.2,0-.3-.1-.3-.3v-.7c0-.1,0-.3,.2-.3,.7-.5,1.2-1.3,1.2-2.2,0-1.4-1.2-2.5-2.6-2.5-1.4,0-2.6,1.2-2.6,2.6s.5,1.7,1.2,2.1c.1,0,.2,.2,.2,.3v.7c0,.2-.1,.3-.3,.3h-.9c-.4,0-.9,.2-1.1,.6l-3.4,4.7c-.1,.2-.3,.3-.5,.3h-.4c-.6,0-1.1,.5-1.1,1.1s.5,1.1,1.1,1.1h1.1c-.7,.4-1.1,1.1-1.1,2,0,1.2,1,2.2,2.2,2.2H15.8l-7.4-4.1c-.6-.2-1.2-.3-1.9-.3h0c0,0,.2-.2,.2-.2l2.1-3.2v2.8s0,0,0,0l3.2,1.7,2.9-1.8v-2.8l2.2,3.2c0,0,.2,.2,.2,.3-.8,0-1.7,.2-2.4,.6h0s-1.9,1.1-1.9,1.1l4.8,2.7c1-.2,1.8-1.1,1.8-2.2h0c0-.9-.5-1.6-1.2-2h1.3c.6,0,1.1-.5,1.1-1.1s-.5-1.1-1.1-1.1h0Zm0,0"/></svg>