<?xml version="1.0" encoding="UTF-8"?><svg id="Award" xmlns="http://www.w3.org/2000/svg" width="24" height="24" viewBox="0 0 24 24"><defs><style>.cls-1{fill:#0467fb;}</style></defs><path class="cls-1" d="M18.2,5.8h-1.8v-1.8H7.6v1.8h-1.8c-1,0-1.8,.8-1.8,1.8v.9c0,2.3,1.7,4.1,3.9,4.4,.6,1.3,1.8,2.3,3.2,2.6v2.8h-3.6v1.8h8.9v-1.8h-3.6v-2.8c1.4-.3,2.6-1.3,3.2-2.6,2.2-.3,3.9-2.1,3.9-4.4v-.9c0-1-.8-1.8-1.8-1.8Zm-12.4,2.7v-.9h1.8v3.4c-1-.4-1.8-1.4-1.8-2.5Zm12.4,0c0,1.2-.7,2.1-1.8,2.5v-3.4h1.8v.9Z"/></svg>