<?xml version="1.0" encoding="UTF-8"?><svg id="Talk_to_Star_24x24" xmlns="http://www.w3.org/2000/svg" width="24" height="24" viewBox="0 0 24 24"><defs><style>.cls-1{fill:#00c2a9;}.cls-2{fill:none;}</style></defs><path class="cls-1" d="M10.7,22v-.7h2.2v.7h-2.2Z"/><path class="cls-1" d="M6.4,12h10.7s0,0,0,0c0,1.2,.2,2.5-.2,3.7-.5,1.6-1.5,2.8-3.1,3.4-1.7,.7-3.4,.5-4.9-.5-1.3-.9-2.2-2.1-2.4-3.7-.1-1,0-2-.1-3Z"/><path class="cls-1" d="M17.9,14.5h1.8c0,.4,0,.8-.2,1.2-.1,.8-.4,1.5-.8,2.2,0,.2-.1,.3-.2,.5-.1,0-.2,.2-.3,.3-1,1.4-2.3,2.4-4,3-.2,0-.4,.1-.6,.2,0,0,0,0-.1,0,0-.2,0-.4,0-.6,0,0,0-.1,.2-.1,.8-.2,1.6-.6,2.3-1.2,.5-.4,1-.9,1.4-1.4h-1.4c.5-.6,1-1.2,1.3-1.8,.3-.7,.5-1.4,.5-2.1Z"/><path class="cls-1" d="M5.7,10.2v.3h-.7c0,0,0,0,0-.1,0-.6,0-1.3,0-1.9,.1-2.1,1-3.9,2.7-5.1,1.4-1.1,3.1-1.5,4.8-1.3,1.9,.2,3.5,1.1,4.7,2.6,.9,1.2,1.4,2.6,1.4,4.1,0,.6,0,1.2,0,1.8h-.7v-.3c.3,0,.4-.3,.3-.6,0-.7,0-1.4-.1-2-.2-1.1-.7-2.1-1.4-3-.8-.9-1.7-1.6-2.9-2-1-.3-2.1-.4-3.1-.3-2.3,.4-3.9,1.7-4.9,3.8-.4,.8-.5,1.7-.5,2.5,0,.3,0,.7,0,1,0,.3,0,.4,.3,.5Z"/><path class="cls-1" d="M5,18.4v-3.9h.7c.1,1.5,.7,2.8,1.7,3.9h-2.5Z"/><path class="cls-1" d="M5.7,11.7v2.1c-.4,0-.7,0-1.1,0-.2,0-.3-.1-.3-.3,0-.5,0-1,0-1.5,0-.2,.1-.3,.3-.3,.4,0,.7,0,1.1,0Z"/><path class="cls-1" d="M17.9,11.7c.4,0,.7,0,1.1,0,.2,0,.3,.1,.3,.3,0,.5,0,1,0,1.5,0,.2-.1,.3-.3,.3-.4,0-.7,0-1.1,0v-2.1Z"/><g><rect class="cls-2" x="10.5" y="7.8" width="1" height=".9"/><rect class="cls-2" x="12.5" y="7.8" width="1" height=".9"/><path class="cls-1" d="M17.1,9.4c-.2-1.2-.2-2.6-.7-3.5-.9-1.3-3.2-1.1-5.4-1.1-1.6,0-3.1,0-3.8,1.2-.6,.9-.8,3.2-.8,4.3,0,.3,0,.7,0,1h10.8c0-.6,0-1.3,0-1.9Zm-3.6-.7h-1v1h-.9v-1h-1v-.9h1v-1h.9v1h1v.9Z"/></g></svg>