<?xml version="1.0" encoding="UTF-8"?><svg id="Layer_12" xmlns="http://www.w3.org/2000/svg" width="24" height="24" viewBox="0 0 24 24"><defs><style>.cls-1{fill:#916ef7;fill-rule:evenodd;}</style></defs><path class="cls-1" d="M15.2,3h2.3c.2,0,.4,.2,.4,.4v2.3c0,.2,.2,.4,.4,.4h2.3c.2,0,.4,.2,.4,.4v2.3c0,.2-.2,.4-.4,.4h-2.3c-.2,0-.4,.2-.4,.4v2.3c0,.2-.2,.4-.4,.4h-2.3c-.2,0-.4-.2-.4-.4v-2.3c0-.2-.2-.4-.4-.4h-2.3c-.2,0-.4-.2-.4-.4v-2.3c0-.2,.2-.4,.4-.4h2.3c.2,0,.4-.2,.4-.4V3.4c0-.2,.2-.4,.4-.4h0Z"/><path class="cls-1" d="M6.7,7.6H4c-.3,0-.5,.1-.7,.3-.2,.2-.3,.5-.3,.8,.5,6.5,5.7,11.8,12.3,12.3,.3,0,.5,0,.8-.3s.3-.4,.3-.7v-2.7c0-.5-.4-.9-.9-1-.8,0-1.5-.3-2.2-.5-.4-.1-.8,0-1.1,.2l-.6,.6c-.3,.3-.9,.4-1.2,.1-1.2-.8-2.3-1.9-3.1-3.1-.3-.4-.2-.9,.1-1.2l.6-.6c.3-.3,.4-.7,.2-1.1-.3-.7-.4-1.4-.5-2.2,0-.5-.5-.9-1-.9h0Z"/></svg>