<?xml version="1.0" encoding="UTF-8"?><svg id="Layer_21" xmlns="http://www.w3.org/2000/svg" width="24" height="24" viewBox="0 0 24 24"><defs><style>.cls-1{fill:#00c2a9;}</style></defs><path class="cls-1" d="M18.2,15.3c-.1,.2-.3,.4-.5,.5-.2,.1-.4,.2-.6,.3-.2,0-.3,0-.5,0-.1,0-.3,0-.4,0,0,0-.2,0-.3,0-.2,0-.2-.2-.2-.3,0-.6,0-1.2,0-1.8,0-1.1,0-2.3,0-3.4,0-.2,.2-.4,.4-.4,.2,0,.4,0,.6,0,.2,0,.5,0,.7,.1,.2,0,.3,0,.5,.1,0,0,0,0,0,0,0,0,0-.1,0-.2,0,0,0,0,0,0,0-.2,0-.5,0-.7,0-.2,0-.3-.1-.5,0-.3-.2-.6-.3-.8,0-.2-.1-.3-.2-.5,0,0,0,0,0,0-.2,0-.3,0-.3-.2-.3-.4-.6-.8-1-1.2-.5-.4-1-.8-1.6-1-.4-.2-.7-.3-1.1-.4-.2,0-.4,0-.7-.1-.2,0-.4,0-.6,0-.3,0-.6,0-.9,0-.7,.1-1.4,.4-2,.8,0,0-.1,0-.2,.1,0,0,0,0-.1,0,0,0,0,0,0,0,0,0,0,0,0,0-.1,0-.2,.1-.3,.2-.2,.2-.5,.4-.7,.7-.1,.2-.3,.3-.4,.5,0,0,0,.2,0,.3,0,0,0,.1-.1,.1,0,0-.2,0-.3,0,0,0-.1,0-.1,0-.2,.3-.3,.7-.4,1,0,.3-.1,.6-.2,.8,0,.2,0,.3,0,.5,0,0,0,.1,0,.1,0,0,0,.1,0,.2,0,0,0,0,0,0,.2,0,.5-.1,.7-.2,0,0,0,0,.1,0,.2,0,.3,0,.5,0,.2,0,.4,0,.6,0,.1,0,.3,.1,.3,.3,0,1.1,0,2.3,0,3.4,0,.6,0,1.2,0,1.8,0,.2-.1,.4-.3,.3-.2,0-.3,0-.5,0-.4,0-.8,0-1.1-.3-.3-.2-.5-.4-.7-.7-.2-.3-.3-.5-.5-.8-.1-.2-.2-.3-.2-.5,0-.5,0-1,0-1.5,0-.2,0-.5,.2-.7,.2-.2,.2-.5,.2-.8,0-.2,0-.4,0-.5,0,0,0-.1,0-.2,0,0,0-.1,0-.2,0-.1,0-.3,0-.4,0-.3,0-.6,.2-.9,0-.2,.1-.5,.2-.7,.1-.4,.3-.9,.6-1.2,.3-.6,.7-1.1,1.2-1.6,.3-.3,.6-.5,1-.8,.4-.2,.7-.4,1.1-.6,.2,0,.5-.2,.8-.2,.5-.1,.9-.1,1.4-.1,.4,0,.8,0,1.2,.1,.3,0,.6,.2,1,.3,.4,.1,.7,.3,1,.5,.4,.3,.8,.6,1.2,1,.4,.4,.7,.9,1,1.4,.3,.4,.5,.9,.6,1.4,0,.2,.1,.5,.2,.7,0,.2,0,.5,.1,.7,0,.1,0,.3,0,.4,0,.1,0,.2,.1,.3,0,0,0,0,0,.1,0,.2,0,.4,0,.6,0,.3,0,.5,.2,.7,.1,.2,.2,.4,.2,.6,0,.3,0,.7,0,1,0,.1,0,.3,0,.4,0,.3,0,.6-.2,.8,0,.1-.1,.3-.1,.5,0,.4,0,.8,0,1.2,0,.5-.2,.9-.5,1.3-.4,.6-.8,1.1-1.2,1.7-.2,.3-.5,.6-.9,.8-.3,.2-.6,.3-1,.3-.2,0-.3,0-.5,0,0,0,0,0-.1,0,0,.2-.2,.3-.4,.4,0,0-.2,0-.3,0-.2,0-.4,0-.5,0-.3,0-.6-.3-.7-.6,0-.5,.3-.9,.7-.9,.2,0,.4,0,.6,0,.3,0,.5,.2,.6,.4,0,0,0,0,0,0,.4,0,.9,0,1.3-.3,.3-.2,.5-.4,.7-.7,.2-.3,.5-.6,.7-1,.2-.2,.4-.5,.5-.7,.2-.2,.3-.5,.3-.8,0-.3,0-.6,0-1Z"/></svg>