<?xml version="1.0" encoding="UTF-8"?><svg id="E-Pharmacy" xmlns="http://www.w3.org/2000/svg" width="24" height="24" viewBox="0 0 24 24"><defs><style>.cls-1{fill:#58ceea;}</style></defs><path class="cls-1" d="M20.6,16.9H8.2c-.7,0-1.2-.5-1.4-1.1L4.1,4c0-.2-.2-.3-.3-.3H1.3c-.2,0-.4-.2-.4-.4s.2-.4,.4-.4H3.8c.5,0,1,.4,1.1,.9l2.7,11.8c0,.3,.3,.5,.7,.5h12.4c.2,0,.4,.2,.4,.4s-.2,.4-.4,.4Z"/><path class="cls-1" d="M18.5,20.8c-.8,0-1.5-.7-1.5-1.5,0-.4,.1-.8,.4-1.1,.3-.3,.7-.5,1.1-.5h0c.8,0,1.5,.7,1.5,1.5,0,.4-.1,.8-.4,1.1-.3,.3-.7,.5-1.1,.5h0Zm0-2.3c-.2,0-.4,0-.6,.2-.1,.2-.2,.4-.2,.6,0,.4,.4,.8,.8,.8v0c.2,0,.4,0,.6-.2,.1-.2,.2-.4,.2-.6,0-.4-.4-.8-.8-.8Z"/><path class="cls-1" d="M9.6,20.8c-.8,0-1.5-.7-1.5-1.5s.7-1.5,1.5-1.5,1.5,.7,1.5,1.5-.7,1.5-1.5,1.5Zm0-2.3c-.4,0-.8,.4-.8,.8s.4,.8,.8,.8,.8-.4,.8-.8-.4-.8-.8-.8Z"/><path class="cls-1" d="M22.7,6.7H7.3c-.3,0-.4,.2-.4,.5l1.6,7.1c0,.4,.5,.7,.9,.7h9.6c.4,0,.7-.2,.9-.6l3.1-7.2c.1-.3,0-.6-.4-.6Zm-6.2,4.8c0,0,0,.1-.1,.1h-1c0,0-.1,0-.1,.1v1c0,0,0,.1-.1,.1h-1.4c0,0-.1,0-.1-.1v-1c0,0,0-.1-.1-.1h-1c0,0-.1,0-.1-.1v-1.4c0,0,0-.1,.1-.1h1c0,0,.1,0,.1-.1v-1c0,0,0-.1,.1-.1h1.4c0,0,.1,0,.1,.1v1c0,0,0,.1,.1,.1h1c0,0,.1,0,.1,.1v1.4Z"/></svg>