<?xml version="1.0" encoding="UTF-8"?><svg id="In_House_claim_Settlement" xmlns="http://www.w3.org/2000/svg" width="24" height="24" viewBox="0 0 24 24"><defs><style>.cls-1{fill:#0467fb;}</style></defs><path class="cls-1" d="M10.5,5.9c1.9,1.8,4,3.2,6.7,3.7,0,4.2-1.2,7.9-4.9,10.4-.5,.3-1.1,.6-1.6,.9-.1,0-.3,0-.4,0-3.3-1.5-5.3-4-6.1-7.5-.3-1.2-.4-2.4-.4-3.6,0-.1,0-.2,.2-.3,2.5-.5,4.6-1.8,6.4-3.6,0,0,0,0,0,0Zm-5.6,4.5c0,0,0,.1,0,.2,.1,.9,.2,1.8,.4,2.7,.7,2.8,2.3,5,4.9,6.3,.2,0,.3,0,.5,0,1.2-.6,2.2-1.4,3-2.4,1.2-1.5,1.9-3.2,2.2-5,0-.6,.1-1.2,.2-1.8-2.1-.6-4-1.7-5.6-3.1-1.6,1.4-3.5,2.5-5.6,3.1Z"/><path class="cls-1" d="M18.3,5c.9-.1,1.7,.5,1.7,1.5,0,3.9,0,7.8,0,11.8,0,.8-.7,1.5-1.5,1.5-1.6,0-3.1,0-4.7,0,0,0-.1,0-.2,0,.3-.2,.5-.5,.7-.7,0,0,.2,0,.3,0,1.3,0,2.5,0,3.8,0,.7,0,.9-.3,.9-.9,0-3.8,0-7.7,0-11.5,0-.5-.3-.8-.8-.8-.2,0-.2,0-.2-.2,0-.2,0-.3,0-.5Z"/><path class="cls-1" d="M10.6,5.1c.1,0,.3,0,.4,0,.5,0,1,0,1.6,0,0-.5,.3-1,.7-1.3,.3-.2,.6-.3,.9-.2,.7,0,1.2,.5,1.4,1.5,.5,0,1,0,1.5,0,.4,0,.5,.1,.5,.5,0,.4,0,.7,0,1.1,0,.3-.1,.4-.4,.4-1.5,0-2.9,0-4.4,0,0,0-.2,0-.3,0-.7-.6-1.3-1.1-2-1.7,0,0,0,0,0-.1Zm4.3,0c0-.4-.4-.8-.8-.8-.4,0-.8,.4-.8,.8,0,.4,.4,.8,.8,.8,.4,0,.8-.4,.8-.8Z"/><path class="cls-1" d="M9.8,5c0,.2,0,.4,0,.7,0,0-.2,0-.2,0-.4,0-.7,.3-.7,.7,0,.3-.2,.5-.4,.6-.1,0-.2,.1-.3,.2-.4-1.2,.5-2.4,1.7-2.2Z"/><path class="cls-1" d="M15.5,8.5c0,0,.1,0,.2,0,.8,0,1.6,0,2.5,0,.1,0,.3,0,.3,.2,0,.2-.2,.2-.3,.2-.5,0-1,0-1.6,0-.4,0-.7-.2-1.1-.3,0,0,0,0,0,0Z"/><path class="cls-1" d="M16.4,16.2c0-.3,.2-.4,.4-.4,.5,0,.9,0,1.4,0,.1,0,.3,0,.3,.2,0,.2-.1,.2-.3,.2-.6,0-1.2,0-1.9,0Z"/><path class="cls-1" d="M16.9,15c0-.3,0-.4,.4-.4,.3,0,.7,0,1,0,0,0,.2,.1,.2,.2,0,0-.1,.2-.2,.2-.5,0-.9,0-1.4,0Z"/><path class="cls-1" d="M17.3,13.8c0-.3,0-.4,.3-.4,.2,0,.4,0,.6,0,0,0,.2,.1,.3,.2,0,0-.2,.2-.2,.2-.3,0-.7,0-1,0Z"/><path class="cls-1" d="M17.5,12.5c0-.3,0-.4,.3-.4,.2,0,.3,0,.5,0,0,0,.1,.1,.2,.2,0,0-.1,.2-.2,.2-.3,0-.5,0-.8,0Z"/><path class="cls-1" d="M17.7,11.3v-.4c.2,0,.4,0,.6,0,0,0,.1,0,.2,.2,0,0-.1,.2-.2,.2-.2,0-.4,0-.6,0Z"/><path class="cls-1" d="M17.7,10.1c0-.1,0-.2,0-.4,.2,0,.4,0,.6,0,0,0,.1,.1,.2,.2,0,0-.1,.2-.2,.2-.2,0-.4,0-.6,0Z"/><path class="cls-1" d="M5,10.4c2.1-.6,3.9-1.6,5.6-3.1,1.6,1.4,3.5,2.5,5.6,3.1,0,.6,0,1.2-.2,1.8-.3,1.9-1,3.6-2.2,5-.8,1-1.8,1.8-3,2.4-.2,0-.3,0-.5,0-2.6-1.3-4.2-3.5-4.9-6.3-.2-.9-.3-1.8-.4-2.7,0,0,0-.1,0-.2Zm6.6,4.1c.1,0,.2,0,.3,0,.5,0,.9,0,1.4,0,.4,0,.4,0,.4-.4,0-.3,0-.7,0-1,0-.9,0-.7-.7-.7-.4,0-.9,0-1.4,0,0-.1,0-.2,0-.3,0-.5,0-1,0-1.5,0-.2,0-.3-.3-.3-.5,0-1,0-1.6,0-.2,0-.3,0-.3,.3,0,.5,0,1,0,1.5,0,0,0,.2,0,.3-.6,0-1.2,0-1.8,0-.2,0-.3,0-.3,.3,0,.5,0,1,0,1.5,0,.2,0,.3,.3,.3,.5,0,1,0,1.5,0,.2,0,.3,0,.3,.3,0,.5,0,1,0,1.5,0,.2,0,.3,.3,.3,.5,0,.9,0,1.4,0,.4,0,.4,0,.4-.4,0-.5,0-1.1,0-1.7Z"/></svg>