<?xml version="1.0" encoding="UTF-8"?><svg xmlns="http://www.w3.org/2000/svg" width="32" height="32" viewBox="0 0 32 32"><defs><style>.cls-1{fill:#00c2a9;}.cls-2{fill:none;stroke:#d8dee7;stroke-miterlimit:10;}</style></defs><g id="Thumbs_Down"><g><path class="cls-1" d="M9.4,17.4c0,.5,.5,.8,1,.8h3.3c.2,0,.3,.2,.2,.3-.2,.7-.5,1.4-.5,2.2,0,.7,0,1.6,.7,2,.3,.2,.8,.3,1.1,.1,.3-.1,.2-.6,.2-.8,0-.4,.1-.7,.3-1.1,.4-.5,.7-1,1-1.5,.3-.4,.7-1,1.3-1.2,.3,0,.5-.3,.5-.6v-6.2c0-.3-.3-.6-.6-.6h-5.8c-.5,0-.9,.4-1,.9,0,.4,.1,.7,.4,.9,0,0,0,0,0,0h0c-.5,0-.9,.4-1,.9,0,.4,.1,.7,.4,.9,0,0,0,0,0,0h0c-.5,0-.9,.4-1,.9,0,.4,.1,.7,.5,.9h0c-.6,0-1,.5-1,1.1Z"/><rect class="cls-1" x="19" y="11" width="3.6" height="7.2" rx=".5" ry=".5"/></g></g><g id="Circle_32x32"><path class="cls-2" d="M.3,16c0,8.7,7,15.7,15.7,15.7"/><path class="cls-2" d="M16,.3C7.3,.3,.3,7.3,.3,16"/><path class="cls-2" d="M31.7,16C31.7,7.3,24.7,.3,16,.3"/><path class="cls-2" d="M16,31.7c8.7,0,15.7-7,15.7-15.7"/></g></svg>