<svg xmlns="http://www.w3.org/2000/svg" width="114" height="114" viewBox="0 0 114 114">
  <g id="icon-1" transform="translate(-80 -210)">
    <circle id="Ellipse_5" data-name="Ellipse 5" cx="57" cy="57" r="57" transform="translate(80 210)" fill="#eaefff"/>
    <g id="Group_60" data-name="Group 60" transform="translate(7.15 15.15)">
      <g id="Layer_1" data-name="Layer 1" transform="translate(85.394 218.59)">
        <path id="Path_14631" data-name="Path 14631" d="M25.256,34.631V20.267c0-1.46.219-1.681,1.648-1.681H31.49V8.276c0-2.611,1.263-3.876,3.843-3.876H64.546c2.476,0,3.778,1.282,3.787,3.754v10.43h4.645c1.328,0,1.587.255,1.587,1.561V34.631H93.029c1.393,0,1.662.276,1.662,1.681V92.94c0,1.477-.24,1.72-1.717,1.72H6.878c-1.52,0-1.748-.24-1.748-1.777V36.346c0-1.465.255-1.722,1.72-1.722H25.256Zm2.19,57.812h8.216V75.68c-1.921-.3-1.921-.3-1.921-2.286V70.159c0-1.465.274-1.744,1.708-1.744H64.93a1.063,1.063,0,0,1,1.141,1.126q.04,2.428,0,4.854a1.112,1.112,0,0,1-1.2,1.184c-.228.014-.459.036-.7.053V92.443h8.165V20.786h-4V31.24q0,3.8-3.823,3.8H35.3c-2.541,0-3.8-1.273-3.807-3.823V20.8H27.446Zm47.187-55.6V92.465H92.479V36.841ZM25.179,92.484V36.851H7.359V92.484Zm24.638-59.6H64.371c1.52,0,1.806-.279,1.806-1.77V8.379c0-1.556-.276-1.825-1.837-1.825H35.5c-1.571,0-1.849.267-1.849,1.811V31.1c0,1.508.279,1.784,1.792,1.784Zm-1.04,59.586V75.649H37.917V92.477Zm13.132,0V75.649H51.049v16.83ZM63.89,70.634H35.969v2.721H63.89Z" transform="translate(-5.13 -4.4)" fill="#013ade"/>
        <path id="Path_14638" data-name="Path 14638" d="M161.461,280.23v2.721H133.54V280.23Z" transform="translate(-102.701 -213.986)" fill="#fff"/>
        <path id="Path_14639" data-name="Path 14639" d="M118.273,161.015h-3.859c-.973,0-1.359-.389-1.364-1.364q-.019-3.948,0-7.9c0-.915.406-1.314,1.323-1.318q3.991-.022,7.985,0c.867,0,1.263.406,1.268,1.273q.022,3.994,0,7.988c0,.92-.4,1.3-1.316,1.316C120.956,161.027,119.618,161.015,118.273,161.015Zm-2.995-8.406V158.8H121.4v-6.189Z" transform="translate(-87.124 -115.355)" fill="#013ade"/>
        <path id="Path_14640" data-name="Path 14640" d="M226.037,155.7v-3.857c0-1.047.365-1.441,1.381-1.441q3.9-.017,7.805,0c1.016,0,1.391.391,1.4,1.427q.014,3.857,0,7.719c0,1.071-.382,1.441-1.477,1.441h-7.628c-1.129,0-1.472-.363-1.479-1.518C226.023,158.225,226.037,156.957,226.037,155.7Zm8.406-3.074h-6.2v6.139h6.184Z" transform="translate(-172.978 -115.333)" fill="#013ade"/>
        <path id="Path_14641" data-name="Path 14641" d="M231.3,220.264c-1.316,0-2.642.012-3.948,0-.932,0-1.314-.375-1.318-1.3q-.022-3.991,0-7.985a1.116,1.116,0,0,1,1.266-1.282q3.991-.029,7.983,0c.922,0,1.321.408,1.328,1.318q.022,4,0,7.985c0,.874-.4,1.254-1.27,1.266C234,220.276,232.65,220.264,231.3,220.264Zm3.122-8.346h-6.179v6.122h6.179Z" transform="translate(-172.975 -160.38)" fill="#013ade"/>
        <path id="Path_14642" data-name="Path 14642" d="M123.653,215.021c0,1.287.012,2.572,0,3.859,0,.985-.375,1.352-1.357,1.357q-3.948.014-7.9,0c-.927,0-1.318-.379-1.323-1.3-.017-2.663,0-5.324,0-7.985a1.15,1.15,0,0,1,1.275-1.287c2.661-.012,5.322-.017,7.983,0,.961,0,1.316.413,1.323,1.407C123.663,212.394,123.653,213.71,123.653,215.021Zm-8.389,2.992h6.165v-6.131h-6.165Z" transform="translate(-87.146 -160.36)" fill="#013ade"/>
        <path id="Path_14643" data-name="Path 14643" d="M180.182,155.767c0,1.29.014,2.577,0,3.867-.014,1-.365,1.357-1.355,1.362q-3.91.019-7.817,0c-1,0-1.359-.358-1.364-1.352q-.022-3.951,0-7.908c0-.941.375-1.314,1.306-1.318q3.955-.022,7.909,0c.939,0,1.3.37,1.318,1.309C180.2,153.072,180.182,154.419,180.182,155.767Zm-8.329-3.156v6.167h6.117v-6.167Z" transform="translate(-130.127 -115.34)" fill="#013ade"/>
        <path id="Path_14644" data-name="Path 14644" d="M180.182,215.01c0,1.29.014,2.577,0,3.864-.014,1.009-.355,1.347-1.357,1.352q-3.907.014-7.817,0c-1.006,0-1.357-.341-1.362-1.345q-.022-3.955,0-7.909c0-.939.375-1.314,1.309-1.319q3.955-.029,7.908,0c.939,0,1.3.379,1.316,1.316C180.2,212.32,180.182,213.667,180.182,215.01Zm-8.317-3.156V218h6.088v-6.148Z" transform="translate(-130.127 -160.349)" fill="#013ade"/>
        <path id="Path_14645" data-name="Path 14645" d="M315.1,187.3c-1.347,0-2.7.012-4.044,0-.889,0-1.266-.37-1.268-1.249-.014-2.7,0-5.394,0-8.091a1.1,1.1,0,0,1,1.222-1.232c2.695-.017,5.392-.012,8.089,0a1.122,1.122,0,0,1,1.246,1.225q.022,4.089,0,8.18c0,.79-.468,1.184-1.275,1.177C317.739,187.29,316.421,187.3,315.1,187.3Zm3.028-8.374h-6.119v6.151h6.119Z" transform="translate(-236.617 -135.331)" fill="#013ade"/>
        <path id="Path_14646" data-name="Path 14646" d="M309.766,294.964V291.1c0-1,.358-1.381,1.328-1.388q3.955-.019,7.911,0c.917,0,1.309.391,1.316,1.328q.031,3.955,0,7.911c0,.98-.4,1.335-1.393,1.34q-3.91.014-7.82,0c-.985,0-1.333-.367-1.342-1.369C309.757,297.6,309.766,296.283,309.766,294.964Zm2.209-3.065v6.189H318.1V291.9Z" transform="translate(-236.601 -221.182)" fill="#013ade"/>
        <path id="Path_14647" data-name="Path 14647" d="M315.034,233.31c1.318,0,2.642-.014,3.953,0,.961.012,1.328.346,1.335,1.29.022,2.666.012,5.332,0,7.995a1.127,1.127,0,0,1-1.287,1.261H311.04c-.946,0-1.27-.36-1.273-1.335q-.014-3.955,0-7.906c0-.949.348-1.285,1.311-1.3C312.4,233.3,313.718,233.31,315.034,233.31Zm-3.055,2.2v6.129h6.129v-6.129Z" transform="translate(-236.6 -178.33)" fill="#013ade"/>
        <path id="Path_14648" data-name="Path 14648" d="M39.992,182.011v3.955c0,.946-.365,1.3-1.3,1.309q-3.955.014-7.911,0c-.939,0-1.33-.36-1.338-1.294-.022-2.666-.012-5.334,0-8a1.151,1.151,0,0,1,1.282-1.285c2.668,0,5.334-.017,8,0,.92,0,1.268.4,1.278,1.354C40,179.374,39.992,180.693,39.992,182.011Zm-8.35,3.052h6.112V178.9H31.642Z" transform="translate(-23.591 -135.312)" fill="#013ade"/>
        <path id="Path_14649" data-name="Path 14649" d="M39.976,295.046v3.864c0,1.066-.343,1.429-1.374,1.441q-3.907.014-7.82,0c-.977,0-1.357-.375-1.364-1.369q-.026-3.912,0-7.822c0-1.035.382-1.386,1.441-1.391H38.59c1.037,0,1.381.363,1.388,1.417C39.983,292.467,39.976,293.757,39.976,295.046Zm-8.343-3.081v6.165h6.139v-6.165Z" transform="translate(-23.575 -221.235)" fill="#013ade"/>
        <path id="Path_14650" data-name="Path 14650" d="M34.639,243.876c-1.287,0-2.577.014-3.864,0-1.013-.014-1.359-.343-1.367-1.354q-.026-3.91,0-7.817c0-1.021.348-1.364,1.345-1.369q3.953-.022,7.906,0c.961,0,1.3.348,1.3,1.3q.017,3.955,0,7.906c0,1-.339,1.321-1.371,1.333C37.273,243.888,35.955,243.876,34.639,243.876Zm3.122-2.2V235.54H31.637v6.134Z" transform="translate(-23.567 -178.346)" fill="#013ade"/>
        <path id="Path_14651" data-name="Path 14651" d="M153.3,40.39h-3.343a1.585,1.585,0,0,1-1.78-1.772q-.024-3.415,0-6.828a1.575,1.575,0,0,1,1.71-1.76c1.126-.036,2.265,0,3.514,0V26.749c.012-1.383.581-1.955,1.981-1.962q3.189-.014,6.379,0c1.453,0,2.017.569,2.029,2.005,0,.987,0,1.977.022,2.964a1.165,1.165,0,0,0,.11.271H166.9c1.592,0,2.118.524,2.121,2.082v6.381c0,1.345-.569,1.9-1.921,1.921H163.79v3.2c0,1.484-.531,2.025-1.981,2.027h-6.47c-1.4,0-1.921-.555-1.941-1.979,0-.989,0-1.977-.017-2.964A1.469,1.469,0,0,0,153.3,40.39Zm13.528-8.113a1.924,1.924,0,0,0-.274-.082c-1.018,0-2.039,0-3.057-.019-1.318-.022-1.849-.552-1.859-1.859V26.939h-6.069V30.1c0,1.6-.48,2.073-2.1,2.08h-3.086v5.951c.1.041.151.084.2.084.989,0,1.977,0,2.966.019,1.479,0,2.005.526,2.013,2v3.158h6.078V40.177c0-1.4.55-1.936,1.974-1.943h3.218Z" transform="translate(-113.817 -19.886)" fill="#013ade"/>
        <path id="Path_14652" data-name="Path 14652" d="M122.36,159.52h6.124v6.189H122.36Z" transform="translate(-94.206 -122.266)" fill="#fff"/>
        <path id="Path_14653" data-name="Path 14653" d="M241.434,159.69v6.139H235.25V159.69Z" transform="translate(-179.984 -122.395)" fill="#fff"/>
        <path id="Path_14654" data-name="Path 14654" d="M241.449,219v6.122H235.27V219Z" transform="translate(-179.999 -167.461)" fill="#fff"/>
        <path id="Path_14655" data-name="Path 14655" d="M122.21,225.066V218.93h6.165v6.136Z" transform="translate(-94.092 -167.408)" fill="#fff"/>
        <path id="Path_14656" data-name="Path 14656" d="M178.87,159.59h6.117v6.167H178.87Z" transform="translate(-137.144 -122.319)" fill="#fff"/>
        <path id="Path_14657" data-name="Path 14657" d="M178.92,218.88h6.088v6.148H178.92Z" transform="translate(-137.182 -167.37)" fill="#fff"/>
        <path id="Path_14658" data-name="Path 14658" d="M325.179,185.91v6.151H319.06V185.91Z" transform="translate(-243.666 -142.318)" fill="#fff"/>
        <path id="Path_14659" data-name="Path 14659" d="M319,298.86h6.124v6.189H319Z" transform="translate(-243.621 -228.142)" fill="#fff"/>
        <path id="Path_14660" data-name="Path 14660" d="M319,242.48h6.129v6.129H319Z" transform="translate(-243.621 -185.302)" fill="#fff"/>
        <path id="Path_14661" data-name="Path 14661" d="M38.65,192.047V185.88h6.112v6.167Z" transform="translate(-30.6 -142.296)" fill="#fff"/>
        <path id="Path_14662" data-name="Path 14662" d="M38.68,298.91h6.139v6.165H38.68Z" transform="translate(-30.623 -228.18)" fill="#fff"/>
        <path id="Path_14663" data-name="Path 14663" d="M44.854,248.684H38.73V242.55h6.124Z" transform="translate(-30.661 -185.356)" fill="#fff"/>
        <path id="Path_14664" data-name="Path 14664" d="M173.861,39.086v5.956h-3.218c-1.424,0-1.964.54-1.974,1.943V50.2H162.6V47.038c0-1.47-.533-1.989-2.013-2-.989,0-1.977,0-2.966-.019-.053,0-.106-.043-.2-.084V38.98h3.086c1.616,0,2.092-.48,2.1-2.08V33.74h6.078v3.379c0,1.306.54,1.837,1.859,1.859,1.018.017,2.039.012,3.057.019A1.922,1.922,0,0,1,173.861,39.086Z" transform="translate(-120.846 -26.694)" fill="#fff"/>
      </g>
    </g>
  </g>
</svg>
