<svg id="banner-image" xmlns="http://www.w3.org/2000/svg" width="367.028" height="226.892" viewBox="0 0 367.028 226.892">
  <g id="character" transform="translate(0)">
    <g id="Shadow" transform="translate(0 205.464)" opacity="0.75">
      <ellipse id="_Path_" data-name="&lt;Path&gt;" cx="183.514" cy="10.714" rx="183.514" ry="10.714" fill="#d8e1fe"/>
    </g>
    <g id="Character_3" data-name="Character 3" transform="translate(117.086)">
      <g id="_Group_" data-name="&lt;Group&gt;" transform="translate(111.5)">
        <path id="Path_15619" data-name="Path 15619" d="M422.089,265.067S398.1,291.124,391.082,289.96c-2.7-.445-6.72-3.919-10.657-8.026a178.38,178.38,0,0,1-12.3-14.737l7.629-7.856,1.524-1.571.54.89c1.666,2.726,6.824,11.064,10.411,15.693a20.979,20.979,0,0,0,2.281,2.631c3.559,3.209,26.691-17.642,26.691-17.642Z" transform="translate(-301.393 -149.572)" fill="#eec1bb"/>
        <path id="Path_15620" data-name="Path 15620" d="M388.157,274.4a43.25,43.25,0,0,1-7.733,7.572,178.4,178.4,0,0,1-12.3-14.737l7.629-7.856,2.063-.681C379.449,261.435,384.608,269.774,388.157,274.4Z" transform="translate(-301.393 -149.622)" opacity="0.2"/>
        <path id="Path_15621" data-name="Path 15621" d="M314.116,193.26c-6.039,2.593-15.626,19.488-15.626,19.488l2.48,3.985,4.477,2.092s7.26-11.8,12.058-13.923S314.116,193.26,314.116,193.26Z" transform="translate(-297.667 -146.12)" fill="#407bff"/>
        <path id="Path_15622" data-name="Path 15622" d="M318.991,202.971a2.338,2.338,0,0,1-1.477,1.893c-3.587,1.581-8.518,8.575-10.818,12-.776,1.155-1.24,1.893-1.24,1.893l-4.477-2.092-2.48-3.975s9.588-16.838,15.617-19.431c0,0,.53.615,1.24,1.571.293.4.625.852.946,1.353C317.733,198.267,319.247,201.031,318.991,202.971Z" transform="translate(-297.667 -146.12)" fill="#fff" opacity="0.4"/>
        <path id="Path_15623" data-name="Path 15623" d="M319.428,203.044a2.338,2.338,0,0,1-1.477,1.893c-3.587,1.581-8.518,8.575-10.818,12a11.51,11.51,0,0,1-.35-1.94c-1.211-11.878,7.222-18.807,9.02-20.141.208-.161.331-.237.331-.237l.625,1.59Z" transform="translate(-298.104 -146.193)" opacity="0.2"/>
        <path id="Path_15624" data-name="Path 15624" d="M315,192.968s16.09-8.045,33.922-4.051c0,0,7.695,22.451,17.16,35.294a4.988,4.988,0,0,1-2.186,7.572c-9.512,3.786-27.382,9.966-37.613,7.2C326.292,238.977,315.653,213.545,315,192.968Z" transform="translate(-298.55 -145.828)" fill="#407bff"/>
        <path id="Path_15625" data-name="Path 15625" d="M363.9,231.774c-9.465,3.786-27.382,9.966-37.613,7.212,0,0-3.086-7.373-6.039-17.4a153.746,153.746,0,0,1-3.786-15.778A89.534,89.534,0,0,1,315,192.969s16.09-8.036,33.922-4.042c0,0,.18.53.53,1.477.634,1.76,1.827,4.95,3.436,8.821,3.133,7.572,7.856,17.709,13.128,24.9a5.007,5.007,0,0,1-2.111,7.648Z" transform="translate(-298.55 -145.828)" fill="#fff" opacity="0.4"/>
        <path id="Path_15626" data-name="Path 15626" d="M344.923,291.427c3.057,27.77,12.721,47.154,12.721,47.154l-7.07,1.637s-10.288-18.93-16.317-48.8a216.558,216.558,0,0,1-3.256-21.7l13.251-3.1a147.724,147.724,0,0,0,.672,24.807Z" transform="translate(-299.407 -150.046)" fill="#eec1bb"/>
        <path id="Path_15627" data-name="Path 15627" d="M331,269.715l13.251-3.1a147.737,147.737,0,0,0,.663,24.807c-3.947.132-7.572.1-10.667,0A216.551,216.551,0,0,1,331,269.715Z" transform="translate(-299.407 -150.046)" opacity="0.2"/>
        <path id="Path_15628" data-name="Path 15628" d="M348.3,339.131l8.906-.511a.549.549,0,0,1,.615.5h0l.852,7.023a1.42,1.42,0,0,1-1.306,1.486c-3.114.133-4.6,0-8.518.237a74.492,74.492,0,0,1-10.468.293c-3.322-.331-2.9-3.606-1.458-3.786,3.4-.379,7.913-2.84,10.042-4.732A2.281,2.281,0,0,1,348.3,339.131Z" transform="translate(-299.666 -153.899)" fill="#263238"/>
        <path id="Path_15629" data-name="Path 15629" d="M344.441,340.347a.994.994,0,0,1-.293-1.013.681.681,0,0,1,.4-.549c.947-.435,3.294.946,3.559,1.126a.237.237,0,0,1,.085.189.17.17,0,0,1-.133.142,9.469,9.469,0,0,1-2.1.407,2.073,2.073,0,0,1-1.514-.3Zm.265-1.193a.341.341,0,0,0-.2.265.71.71,0,0,0,.17.653c.4.341,1.448.331,2.839,0-.947-.53-2.319-1.117-2.839-.88Z" transform="translate(-300.108 -153.903)" fill="#407bff"/>
        <path id="Path_15630" data-name="Path 15630" d="M348.018,340.152c-.823-.417-2.1-2.016-1.969-2.887a.7.7,0,0,1,.634-.6.947.947,0,0,1,.814.208c.833.729.786,3.048.8,3.123a.256.256,0,0,1-.095.151h-.085A.114.114,0,0,1,348.018,340.152Zm-1.268-3.1c-.265.047-.322.18-.331.293a3.88,3.88,0,0,0,1.5,2.328,3.954,3.954,0,0,0-.672-2.489.539.539,0,0,0-.4-.142Z" transform="translate(-300.211 -153.793)" fill="#407bff"/>
        <path id="Path_15631" data-name="Path 15631" d="M422.424,267.214l-5.774-6.805a.568.568,0,0,1,0-.8h0l5.1-4.912a1.4,1.4,0,0,1,1.969.151c1.978,2.4,2.839,3.653,5.319,6.625a72.969,72.969,0,0,1,6.54,8.178c1.732,2.849-1.136,4.486-2.12,3.436-2.347-2.489-7.042-4.6-9.834-5.168a2.252,2.252,0,0,1-1.2-.71Z" transform="translate(-303.982 -149.39)" fill="#263238"/>
        <path id="Path_15632" data-name="Path 15632" d="M426.346,270.587a.946.946,0,0,1-.644.842.681.681,0,0,1-.672,0c-.947-.5-1.212-3.209-1.24-3.521a.218.218,0,0,1,.095-.18.17.17,0,0,1,.2,0,9.524,9.524,0,0,1,1.59,1.429A2.091,2.091,0,0,1,426.346,270.587Zm-1.117.511a.322.322,0,0,0,.331,0,.672.672,0,0,0,.417-.53c0-.521-.606-1.344-1.742-2.243.151,1.079.5,2.518.994,2.783Z" transform="translate(-304.372 -150.103)" fill="#407bff"/>
        <path id="Path_15633" data-name="Path 15633" d="M424.08,267.872c.151.9-.35,2.887-1.126,3.313a.719.719,0,0,1-.861-.151.946.946,0,0,1-.312-.776c.076-1.107,1.959-2.47,2.007-2.508a.2.2,0,0,1,.18,0,.1.1,0,0,1,0,.066S424.061,267.834,424.08,267.872Zm-1.713,2.839c.2.18.341.151.435.095a3.918,3.918,0,0,0,.947-2.593c-.577.473-1.543,1.363-1.581,2.026a.53.53,0,0,0,.123.407Z" transform="translate(-304.265 -150.105)" fill="#407bff"/>
        <path id="Path_15634" data-name="Path 15634" d="M337.23,188.228s-5.319,6.124-10.724,6.843c-4.221.568-4.013-3.086-4.013-3.086a7.576,7.576,0,0,0,.946-2.044c1.467-4.732-3.36-8.159-3.36-8.159l4.325-2.253,9.465-4.95C331.239,183.657,337.23,188.228,337.23,188.228Z" transform="translate(-298.822 -145.12)" fill="#eec1bb"/>
        <path id="Path_15635" data-name="Path 15635" d="M333.021,178.66s-2.839,9.853-9.541,11.462c1.467-4.732-3.36-8.159-3.36-8.159l4.325-2.253Z" transform="translate(-298.824 -145.339)" opacity="0.2"/>
        <path id="Path_15636" data-name="Path 15636" d="M306.668,151.721c-8.443,3.691-7.827,9.645-4.922,14.292s.625,4.8-2.839,8.168.946,4.363,2.915,6.748-5.679,3.474-.71,8.111c0,0,2.044-3.029,4.449-2.092a10.673,10.673,0,0,0,12.636-3c4.676-5.395,9.8-4.07,9.8-4.07S315.594,147.831,306.668,151.721Z" transform="translate(-297.62 -143.879)" fill="#263238"/>
        <path id="Path_15637" data-name="Path 15637" d="M308.765,151.74s-9.2,11.358,5.111,18.7C330.042,178.743,308.765,151.74,308.765,151.74Z" transform="translate(-298.061 -143.898)" fill="#263238"/>
        <path id="Path_15638" data-name="Path 15638" d="M338.73,161.118c1.126,8.67-1.76,19.11-8.575,21.835-12.522,5-18.106,3.549-21.514-5.8-3.1-8.4-2.839-22.763,7.4-27.448S337.159,149.1,338.73,161.118Z" transform="translate(-298.117 -143.688)" fill="#eec1bb"/>
        <path id="Path_15639" data-name="Path 15639" d="M308.663,157.222a24.041,24.041,0,0,0,12.749-1.808s10.023,1.827,10.09,7.913,2.839,5.84,4.732,13.525c0,0,7.884-2.622,5.679-19.876-1.618-12.55-13.336-15.144-24.315-12.683C308.37,146.4,303.183,154.382,308.663,157.222Z" transform="translate(-298.091 -143.455)" fill="#263238"/>
        <path id="Path_15640" data-name="Path 15640" d="M320.3,168.579c.18,1.088-.255,2.082-.946,2.2s-1.439-.681-1.618-1.779.256-2.073.946-2.2S320.123,167.49,320.3,168.579Z" transform="translate(-298.695 -144.703)" fill="#263238"/>
        <path id="Path_15641" data-name="Path 15641" d="M310.987,169.643c.17,1.041-.246,1.988-.946,2.092s-1.372-.653-1.543-1.694.246-1.978.946-2.1S310.864,168.592,310.987,169.643Z" transform="translate(-298.2 -144.764)" fill="#263238"/>
        <path id="Path_15642" data-name="Path 15642" d="M316.157,163.352a.606.606,0,0,1-.208-.227.5.5,0,0,1,.3-.644,4.95,4.95,0,0,1,4.534.483.5.5,0,0,1,.095.7h0a.53.53,0,0,1-.7.1h0a3.89,3.89,0,0,0-3.616-.312A.568.568,0,0,1,316.157,163.352Z" transform="translate(-298.599 -144.455)" fill="#263238"/>
        <path id="Path_15643" data-name="Path 15643" d="M307.255,165.205a.53.53,0,0,1-.293-.085.511.511,0,0,1,0-.71,4.875,4.875,0,0,1,4.212-1.742.492.492,0,0,1,.416.568h0a.511.511,0,0,1-.568.416h0a3.919,3.919,0,0,0-3.322,1.458A.53.53,0,0,1,307.255,165.205Z" transform="translate(-298.112 -144.482)" fill="#263238"/>
        <path id="Path_15644" data-name="Path 15644" d="M313.068,170.78l1.893,4.458a6.048,6.048,0,0,1-3.521.388,14.2,14.2,0,0,0,1.628-4.846Z" transform="translate(-298.36 -144.917)" fill="#d4827d"/>
        <path id="Path_15645" data-name="Path 15645" d="M331.446,169.155s1.287-5.679,4.316-4.534,4.127,10.042.085,10.79S330.149,172.326,331.446,169.155Z" transform="translate(-299.407 -144.579)" fill="#eec1bb"/>
        <path id="Path_15646" data-name="Path 15646" d="M315.68,179.2a26.951,26.951,0,0,1,2.783,2.906c.208-.114.416-.227.615-.36,2.754-1.647,3.493-3.322,3.464-4.676a4.127,4.127,0,0,0-.53-1.893,4.393,4.393,0,0,0-.653-.947c-.946,1.742-3.4,3.483-4.732,4.354A10.512,10.512,0,0,1,315.68,179.2Z" transform="translate(-298.587 -145.101)" fill="#263238"/>
        <path id="Path_15647" data-name="Path 15647" d="M316.67,178.622l.842.833c2.593-1.552,4.212-3,4.553-4.278a4.39,4.39,0,0,0-.653-.947C320.465,176.009,318.014,177.8,316.67,178.622Z" transform="translate(-298.64 -145.101)" fill="#fff"/>
        <path id="Path_15648" data-name="Path 15648" d="M319.27,181.906c2.754-1.647,3.493-3.322,3.464-4.676a10.307,10.307,0,0,0-2.7,2.433A3.881,3.881,0,0,0,319.27,181.906Z" transform="translate(-298.779 -145.262)" fill="#de5753"/>
        <path id="Path_15649" data-name="Path 15649" d="M315.1,157.712c.8,2.186,5.064,4.363,8.253,3.862s7.9,1.155,5.764,6.389-1.051,6.947,3.388,7.752-.738,6.474,1.06,9.171c0,0,2.2-2.177,4.884-1.24a5.149,5.149,0,0,0,6.73-3.171c1.193-3.038,3.786-2.309,3.786-2.309s-1.164-10.108-10.307-15.721-7.373-9.626-16.2-9.824S315.1,157.712,315.1,157.712Z" transform="translate(-298.551 -143.945)" fill="#263238"/>
        <path id="Path_15650" data-name="Path 15650" d="M330.073,210.164s5.234-6.464,8.376-1.751c3.89,5.811-8.471,14.879-8.471,14.879s-8.9-7.278-6.531-12.787C326.438,203.548,330.073,210.164,330.073,210.164Z" transform="translate(-298.981 -146.839)" fill="#fff"/>
        <path id="Path_15651" data-name="Path 15651" d="M324.387,237.179c-2.915,7.307-1.5,32.133,4.288,48.649,0,0,7.648,2.366,29.067-3.691,17.624-4.988,28.186-11.9,28.186-11.9-6.237-12.91-16.914-43.444-19.45-44.4Z" transform="translate(-298.974 -147.863)" fill="#407bff"/>
        <path id="Path_15652" data-name="Path 15652" d="M385.927,270.236s-1.562,1.013-4.467,2.555c-1.382.719-3.067,1.571-5.035,2.47-1.751.814-3.739,1.675-5.944,2.546-1.5.615-3.123,1.221-4.836,1.827-2.432.852-5.083,1.7-7.894,2.5l-2.234.615c-1.353.36-2.65.691-3.89.946-3.01.719-5.679,1.249-8.036,1.628-1.893.3-3.511.521-4.979.653a48.246,48.246,0,0,1-5.4.256,14.041,14.041,0,0,1-1.988-.085,12.5,12.5,0,0,1-2.556-.369c-5.773-16.507-7.193-41.333-4.278-48.64l42.09-11.358C369.014,226.793,379.69,257.317,385.927,270.236Z" transform="translate(-298.974 -147.86)" opacity="0.2"/>
        <path id="Path_15653" data-name="Path 15653" d="M328.27,262.69l5.225,25.555a14.046,14.046,0,0,1-1.988-.085Z" transform="translate(-299.26 -149.835)" opacity="0.2"/>
        <path id="Path_15654" data-name="Path 15654" d="M339.286,287.241,335.5,248.7l8.727,37.859C342.409,286.891,340.753,287.108,339.286,287.241Z" transform="translate(-299.647 -149.087)" opacity="0.2"/>
        <path id="Path_15655" data-name="Path 15655" d="M352.842,284.8l-7.222-38.91,11.112,37.964C355.378,284.185,354.082,284.516,352.842,284.8Z" transform="translate(-300.189 -148.936)" opacity="0.2"/>
        <path id="Path_15656" data-name="Path 15656" d="M367.525,280.5,358.06,241.91,372.4,278.672C370.856,279.287,369.238,279.855,367.525,280.5Z" transform="translate(-300.855 -148.723)" opacity="0.2"/>
        <path id="Path_15657" data-name="Path 15657" d="M383.851,273.518c-1.382.719-3.067,1.571-5.035,2.47L367.6,239.35Z" transform="translate(-301.365 -148.586)" opacity="0.2"/>
        <path id="Path_15658" data-name="Path 15658" d="M352.94,199.371A51.271,51.271,0,0,1,320.3,221.736a153.752,153.752,0,0,1-3.786-15.778c11.68,1.42,20.927-6.777,27.145-12.475,2.432-2.224,4.354-2.991,5.859-2.934C350.176,192.31,351.369,195.5,352.94,199.371Z" transform="translate(-298.631 -145.975)" opacity="0.2"/>
      </g>
      <g id="_Group_2" data-name="&lt;Group&gt;" transform="translate(0 22.093)">
        <path id="Path_15659" data-name="Path 15659" d="M254.533,224.2s-13.828,3.209-16.033,3.152S206.868,207,206.868,207l-9.058,6.625s21.343,26.776,31.925,30.562,31.9,0,31.9,0Z" transform="translate(-180.779 -168.948)" fill="#e4897b"/>
        <path id="Path_15660" data-name="Path 15660" d="M261.627,244.227s-1.363.246-3.578.539c-2.385.331-5.745.719-9.465.946-6.427.407-13.866.312-18.93-1.486-10.582-3.786-31.925-30.562-31.925-30.562l9.058-6.625s29.426,20.283,31.632,20.33a103.15,103.15,0,0,0,10.809-1.978l1.183-.265c2.328-.511,4.041-.946,4.041-.946Z" transform="translate(-180.775 -168.95)" opacity="0.2"/>
        <path id="Path_15661" data-name="Path 15661" d="M260.907,245.737c-2.385.331-5.745.719-9.465.947-1-8.462.691-20.34.691-20.34l.322-1.174c.293.3.587.606.861.947C259.62,232.931,261.342,240.219,260.907,245.737Z" transform="translate(-183.632 -169.92)" opacity="0.2"/>
        <path id="Path_15662" data-name="Path 15662" d="M286.4,215.965c-9.124-3.587-37.074,9.465-37.074,9.465l8.518,23.407,18.617-4.174Z" transform="translate(-183.536 -169.394)" fill="#407bff"/>
        <path id="Path_15663" data-name="Path 15663" d="M286.4,215.964l-9.219,26.568-.748,2.149L265.023,247.2l-7.165,1.59-8.518-23.407S277.28,212.358,286.4,215.964Z" transform="translate(-183.537 -169.394)" opacity="0.2"/>
        <path id="Path_15664" data-name="Path 15664" d="M278.072,243.62l-.748,2.149L265.91,248.3c2.395-6.417,8.168-12.465,8.168-12.465S275.9,239.36,278.072,243.62Z" transform="translate(-184.423 -170.491)" opacity="0.2"/>
        <path id="Path_15665" data-name="Path 15665" d="M204.04,212.421l3.4-5.584s-.047-6.218-.312-8.187-14.2-14.15-14.2-14.15-12.91,2.035-13.109,6.294,7.648,17.557,8.963,18.314S194.717,216.785,204.04,212.421Z" transform="translate(-179.816 -167.744)" fill="#e4897b"/>
        <path id="Path_15666" data-name="Path 15666" d="M204.04,212.421l3.4-5.584s-.047-6.218-.312-8.187-14.2-14.15-14.2-14.15-12.91,2.035-13.109,6.294,7.648,17.557,8.963,18.314S194.717,216.785,204.04,212.421Z" transform="translate(-179.816 -167.744)" opacity="0.2"/>
        <path id="Path_15667" data-name="Path 15667" d="M367.048,341.245l-21.93,6.739-3.758-14.008,16.005-3.786Z" transform="translate(-188.461 -175.541)" fill="#e4897b"/>
        <path id="Path_15668" data-name="Path 15668" d="M364.288,342.836,352.078,331.9a1.193,1.193,0,0,1-.237-1.458l6.048-10.724a1.988,1.988,0,0,1,2.716-.729,2.382,2.382,0,0,1,.35.256c3.9,3.606,6.55,6.427,11.509,10.875,3.057,2.745,12.55,10.686,16.772,14.462s1.032,8.443-1.041,7.278c-9.257-5.253-17.179-8.14-21.656-8.14A3.218,3.218,0,0,1,364.288,342.836Z" transform="translate(-189.014 -174.927)" fill="#263238"/>
        <path id="Path_15669" data-name="Path 15669" d="M392.278,351.435l-21.93,6.73-3.758-14.008L382.6,340.38Z" transform="translate(-189.811 -176.086)" fill="#e4897b"/>
        <path id="Path_15670" data-name="Path 15670" d="M389.468,353.028l-12.21-10.951a1.193,1.193,0,0,1-.237-1.458l6.048-10.676a1.988,1.988,0,0,1,2.716-.738,1.894,1.894,0,0,1,.35.265c3.9,3.606,6.55,6.427,11.509,10.875,3.057,2.735,12.56,10.676,16.772,14.462s1.032,8.443-1.041,7.278c-9.257-5.262-17.179-8.149-21.646-8.149a3.275,3.275,0,0,1-2.262-.909Z" transform="translate(-190.362 -175.474)" fill="#263238"/>
        <path id="Path_15671" data-name="Path 15671" d="M359.49,332.015l-13.071-1.06c7.184-14.292,9.966-31.565,5.991-46.832-8.736-33.543-76.353,6.531-76.353,6.531s-64.825,6.55-70.078,37.405,48.9,32.843,48.9,32.843,50.164,3.672,78.994,0S373.8,353.51,373.8,353.51Z" transform="translate(-181.197 -172.359)" fill="#263238"/>
        <path id="Path_15672" data-name="Path 15672" d="M373.8,353.546s-11.093,3.72-39.923,7.392c-21,2.679-53.334,1.448-69.339.587-5.963-.312-9.654-.587-9.654-.587s-18.39-.681-32.711-7.354c-10.26-4.732-18.428-12.645-16.223-25.555,5.281-30.855,70.106-37.405,70.106-37.405s67.617-40.074,76.353-6.521a62.384,62.384,0,0,1,.767,26.426,74.016,74.016,0,0,1-6.758,20.406l13.071,1.051Z" transform="translate(-181.195 -172.357)" fill="#fff" opacity="0.2"/>
        <path id="Path_15673" data-name="Path 15673" d="M356.2,282.908l-76.608,4.524-7.212-60.8a11.907,11.907,0,0,1,9.181-13.043c30.761-6.834,49.1-.066,49.1-.066a197.517,197.517,0,0,1,10.411,19.346,187.184,187.184,0,0,1,8.007,19.876C355.306,270.812,356.2,282.908,356.2,282.908Z" transform="translate(-184.765 -169.137)" fill="#407bff"/>
        <path id="Path_15674" data-name="Path 15674" d="M278.36,226.687s8.244-14.727,31.234-14.2C309.566,212.47,297.829,232.148,278.36,226.687Z" transform="translate(-185.09 -169.241)" opacity="0.2"/>
        <path id="Path_15675" data-name="Path 15675" d="M308.135,212.512c-8.708-.331-19.791-12.02-22.365-19.772l-9.2,21.883a22.134,22.134,0,0,1,2.243,2.054A10.629,10.629,0,0,1,281.6,221.3c.369,1.486-1.789,5.139-1.789,5.139s7.335,2.6,18.182-3C304.425,220.122,308.135,212.512,308.135,212.512Z" transform="translate(-184.994 -168.185)" fill="#e4897b"/>
        <path id="Path_15676" data-name="Path 15676" d="M286.663,202c5.149,7.988-1.316,16.3-4.941,19.763a10.628,10.628,0,0,0-2.783-4.619Z" transform="translate(-185.121 -168.68)" opacity="0.2"/>
        <path id="Path_15677" data-name="Path 15677" d="M253.4,179.8s-1.212,13.516,6.777,18.93,5.3-27.448,5.3-27.448Z" transform="translate(-183.75 -167.036)" fill="#263238"/>
        <path id="Path_15678" data-name="Path 15678" d="M284.653,186.813c-.293-2.262.946-7.326-.36-9.209-4.458-6.625-15.144-7.733-21.769-3.265-7.8,5.168-8.831,16.033-6.285,25.2a10.96,10.96,0,0,0,4.609,14.036c4.288,2.4,8.888,3.6,13.573,2.2a13.127,13.127,0,0,0,8.149-4.9,9.606,9.606,0,0,0,2.139-3.54C287.18,201.777,285.959,195.956,284.653,186.813Z" transform="translate(-183.84 -167.056)" fill="#e4897b"/>
        <path id="Path_15679" data-name="Path 15679" d="M270.184,194.034c.227.833-.133,1.618-.7,1.732s-1.136-.492-1.306-1.325.142-1.628.691-1.732S270,193.183,270.184,194.034Z" transform="translate(-184.542 -168.182)" fill="#263238"/>
        <path id="Path_15680" data-name="Path 15680" d="M260.084,196.084c.227.823-.142,1.618-.691,1.732s-1.136-.492-1.316-1.335.142-1.618.691-1.723S259.894,195.28,260.084,196.084Z" transform="translate(-184.002 -168.292)" fill="#263238"/>
        <path id="Path_15681" data-name="Path 15681" d="M263.354,196a30.893,30.893,0,0,1-2.574,8.055,5.026,5.026,0,0,0,4.221-.066Z" transform="translate(-184.149 -168.359)" fill="#de5753"/>
        <path id="Path_15682" data-name="Path 15682" d="M272.5,190.084a.53.53,0,0,1-.511-.095,4.07,4.07,0,0,0-3.521-1.051.5.5,0,0,1-.615-.35.492.492,0,0,1,.35-.615h0a5.016,5.016,0,0,1,4.448,1.221.521.521,0,0,1,.066.71h0a1.011,1.011,0,0,1-.218.18Z" transform="translate(-184.526 -167.924)" fill="#263238"/>
        <path id="Path_15683" data-name="Path 15683" d="M255.112,193.33a.435.435,0,0,1-.284.076.492.492,0,0,1-.369-.606h0a5.026,5.026,0,0,1,3.01-3.511.492.492,0,0,1,.634.312h0a.521.521,0,0,1-.312.644h0a4.06,4.06,0,0,0-2.338,2.839.53.53,0,0,1-.341.246Z" transform="translate(-183.81 -167.999)" fill="#263238"/>
        <path id="Path_15684" data-name="Path 15684" d="M267,208.022a32.863,32.863,0,0,1,4.07,2.347c.189-.2.388-.388.568-.6,2.555-2.754,2.839-4.884,2.357-6.4a4.913,4.913,0,0,0-1.221-1.94,4.735,4.735,0,0,0-1.032-.8c-.483,2.262-2.66,5.016-3.89,6.436C267.293,207.672,267,208.022,267,208.022Z" transform="translate(-184.482 -168.607)" fill="#263238"/>
        <path id="Path_15685" data-name="Path 15685" d="M267.85,207.066l1.221.663c2.395-2.6,3.739-4.732,3.7-6.294a4.734,4.734,0,0,0-1.032-.8C271.257,202.873,269.08,205.646,267.85,207.066Z" transform="translate(-184.527 -168.607)" fill="#fff"/>
        <path id="Path_15686" data-name="Path 15686" d="M271.841,209.928c2.556-2.754,2.839-4.884,2.357-6.4a12.307,12.307,0,0,0-2.234,3.625A4.553,4.553,0,0,0,271.841,209.928Z" transform="translate(-184.732 -168.762)" fill="#de5753"/>
        <path id="Path_15687" data-name="Path 15687" d="M281.786,192.544s-6.843-7.25-5.31-14.2c0,0-7.572-4.505-15.343,4.221-6.55,7.4-13.838.057-12.03-8.159,1.221-5.527,6.786-1.287,6.786-1.287s3.057-5.963,14.2-6.313,17.983,6.493,19.128,10.648c3.379,12.257.587,21.428-4,27.268Z" transform="translate(-183.509 -166.796)" fill="#263238"/>
        <path id="Path_15688" data-name="Path 15688" d="M292.374,195.354a10.071,10.071,0,0,1-4.647,6.143c-3.067,1.77-5.471-.757-5.367-4.108.123-2.981,1.836-7.572,5.272-7.941S293.159,192.174,292.374,195.354Z" transform="translate(-185.304 -168.007)" fill="#e4897b"/>
        <path id="Path_15689" data-name="Path 15689" d="M279.913,224.49s0,2.29,4.449,2.073,19.441-5.139,21.968-14.093h3.246s.511,10.317-14.406,15.466-16.8-1.249-16.8-1.249Z" transform="translate(-185.09 -169.241)" fill="#407bff"/>
        <path id="Path_15690" data-name="Path 15690" d="M279.913,224.49s0,2.29,4.449,2.073,19.441-5.139,21.968-14.093h3.246s.511,10.317-14.406,15.466-16.8-1.249-16.8-1.249Z" transform="translate(-185.09 -169.241)" opacity="0.2"/>
        <path id="Path_15691" data-name="Path 15691" d="M265.775,362.771s-.2.18-.568.473c-5.963-.312-9.654-.587-9.654-.587s-18.39-.681-32.711-7.354c-7.5-12.068-7.165-28.783,9.011-38.266,22.375-13.118,54.139-14.2,54.139-14.2s-47.324,15.731-47.769,31.471S249.486,362.147,265.775,362.771Z" transform="translate(-181.866 -174.077)" opacity="0.2"/>
        <path id="Path_15692" data-name="Path 15692" d="M358.06,312.81a74.016,74.016,0,0,1-6.758,20.406l-54.432.133S343.948,326.383,358.06,312.81Z" transform="translate(-186.08 -174.61)" opacity="0.2"/>
        <path id="Path_15693" data-name="Path 15693" d="M388.7,250.227h0a70.183,70.183,0,0,1-6.323,9.294l-3.672-5.527-29.341-12.087-9.228-3.786,2.224-21.911s7.042,1.211,12.938,2.839c1.372.379,2.678.786,3.786,1.2,6.058,2.215,27.221,13.885,31.509,18.93C392.623,241.566,391.014,246.043,388.7,250.227Z" transform="translate(-188.396 -169.441)" fill="#e4897b"/>
        <path id="Path_15694" data-name="Path 15694" d="M355.313,219.05l-5.934,22.867-9.228-3.786,2.224-21.911S349.416,217.413,355.313,219.05Z" transform="translate(-188.397 -169.441)" opacity="0.2"/>
        <path id="Path_15695" data-name="Path 15695" d="M390.885,252.16a70.174,70.174,0,0,1-6.322,9.294l-3.672-5.527S386.73,255.6,390.885,252.16Z" transform="translate(-190.577 -171.365)" opacity="0.2"/>
        <path id="Path_15696" data-name="Path 15696" d="M351.9,253.891c-14.093,3.142-28.063-21.05-28.063-21.05a49.766,49.766,0,0,1,20.028,1.193A187.158,187.158,0,0,1,351.9,253.891Z" transform="translate(-187.524 -170.303)" opacity="0.1"/>
        <path id="Path_15697" data-name="Path 15697" d="M316.121,215.286c-2.792,9.228,5.679,22.365,29.123,30.373l6.985-29.1S319.027,205.7,316.121,215.286Z" transform="translate(-187.083 -169.18)" fill="#407bff"/>
        <path id="Path_15698" data-name="Path 15698" d="M316.121,215.286c-2.792,9.228,5.679,22.365,29.123,30.373l6.985-29.1S319.027,205.7,316.121,215.286Z" transform="translate(-187.083 -169.18)" opacity="0.2"/>
      </g>
      <path id="Path_15699" data-name="Path 15699" d="M304.748,217l-5.982,1.448a13.86,13.86,0,0,0-4.164-.492c-1.221.265-7.695,8.443-6.985,9.313s5.12,3.881,6.729,2.953,6.4-8.234,6.4-8.234l5.783-1.486Z" transform="translate(-185.582 -147.39)" fill="#eec1bb"/>
      <path id="Path_15700" data-name="Path 15700" d="M348.407,188.988c-4.06-2.584-18.419,19-21.542,19.791s-24.325,5.972-24.325,5.972l2.944,5.84s23-1.581,27.514-4.079,15.873-14.595,17.983-18.986S348.407,188.988,348.407,188.988Z" transform="translate(-186.384 -145.88)" fill="#407bff"/>
      <path id="Path_15701" data-name="Path 15701" d="M348.407,188.988c-4.06-2.584-18.419,19-21.542,19.791s-24.325,5.972-24.325,5.972l2.944,5.84s23-1.581,27.514-4.079,15.873-14.595,17.983-18.986S348.407,188.988,348.407,188.988Z" transform="translate(-186.384 -145.88)" fill="#fff" opacity="0.4"/>
    </g>
    <g id="Character_1" data-name="Character 1" transform="translate(15.461 13.13)">
      <path id="Path_15702" data-name="Path 15702" d="M199.045,240.71s-5.556,6.824-10.5,10.061a12.211,12.211,0,0,1-2.754,1.4c-5.329,1.742-10.355-25.337-10.355-25.337l.18-1.306,1.893-14.358c3.881.814,9.995,30.411,10.5,31.527s6.976-6,6.976-6Z" transform="translate(-77.957 -160.209)" fill="#eec1bb"/>
      <path id="Path_15703" data-name="Path 15703" d="M188.549,251.449a12.211,12.211,0,0,1-2.754,1.4c-5.329,1.742-10.355-25.337-10.355-25.337l.18-1.306,4.183-2.186S182.6,243.432,188.549,251.449Z" transform="translate(-77.957 -160.896)" opacity="0.2"/>
      <path id="Path_15704" data-name="Path 15704" d="M192.69,238.681s2.1-5.3,4.439-6.446,9.342-1.694,10.8-1.06,2.641,4.013,2.641,4.013-7.278,7.364-9.039,7.79S192.425,243.517,192.69,238.681Z" transform="translate(-78.879 -161.265)" fill="#eec1bb"/>
      <path id="Path_15705" data-name="Path 15705" d="M109.09,344.812l.767-8.679,12.352-.35,11.273-.3.8,10.459-13.326-.6Z" transform="translate(-74.406 -166.861)" fill="#e4897b"/>
      <path id="Path_15706" data-name="Path 15706" d="M115.686,335.2c.738.53-6.076,9.465-6.076,9.465s-9.635,1.817-14.661,6.493-6.275-.653-2.12-6.862l10.279-15.39C106.108,324.5,108,329.768,115.686,335.2Z" transform="translate(-73.402 -166.421)" fill="#263238"/>
      <path id="Path_15707" data-name="Path 15707" d="M104.714,348.9a14.036,14.036,0,0,1,3.786-3.057.275.275,0,0,1,.123-.047h.076a.322.322,0,0,1,.189.123c.066.095,1.713,2.328,1.391,3.937a1.666,1.666,0,0,1-.833,1.174,1.022,1.022,0,0,1-1.193.095c-.464-.36-.511-1.353-.407-2.376a4.571,4.571,0,0,1-1.628,1.893,1.174,1.174,0,0,1-.946.076c-.644-.227-.814-.606-.842-.89A1.552,1.552,0,0,1,104.714,348.9Zm3.341-2.111c-1.5.947-3.142,2.338-3.076,3.019,0,.057,0,.237.445.388a.615.615,0,0,0,.511-.047c.823-.379,1.656-2.158,2.12-3.36Zm1.448,3.379a1.061,1.061,0,0,0,.2-.4,4.837,4.837,0,0,0-.946-2.934c-.4,1.723-.568,3.54-.161,3.843.123.095.388,0,.53-.123a1.3,1.3,0,0,0,.379-.388Z" transform="translate(-74.156 -167.413)" fill="#407bff"/>
      <path id="Path_15708" data-name="Path 15708" d="M92.28,352.638l2.5-8.348,12.172,2.149,11.1,1.978-1.325,10.4-12.938-3.265Z" transform="translate(-73.506 -167.333)" fill="#e4897b"/>
      <path id="Path_15709" data-name="Path 15709" d="M104.33,355.635l3.161-9.105,11.159,1.988-1.306,10.411Z" transform="translate(-74.151 -167.453)" opacity="0.2"/>
      <path id="Path_15710" data-name="Path 15710" d="M100.5,344.677c.625.663-7.846,8-7.846,8s-9.806-.161-15.664,3.407-6.02-1.893-.7-7.155,9.389-9.209,13.166-13S94.049,337.824,100.5,344.677Z" transform="translate(-72.445 -166.82)" fill="#263238"/>
      <path id="Path_15711" data-name="Path 15711" d="M87.222,355.763a13.874,13.874,0,0,1,4.3-2.234.2.2,0,0,1,.123,0h.076a.265.265,0,0,1,.17.151c0,.1,1.211,2.622.568,4.136a1.685,1.685,0,0,1-1.06.946,1.022,1.022,0,0,1-1.183-.151c-.388-.445-.227-1.42.076-2.4a4.524,4.524,0,0,1-1.978,1.562,1.192,1.192,0,0,1-.947-.123,1.06,1.06,0,0,1-.644-1.032A1.552,1.552,0,0,1,87.222,355.763Zm3.7-1.391c-1.656.662-3.549,1.656-3.625,2.338,0,.057,0,.237.36.473a.644.644,0,0,0,.5.057C89.058,357,90.222,355.451,90.922,354.372Zm.738,3.6a1.212,1.212,0,0,0,.256-.379,4.865,4.865,0,0,0-.322-3.057c-.738,1.609-1.268,3.351-.947,3.729.1.114.388,0,.549,0a1.108,1.108,0,0,0,.464-.293Z" transform="translate(-73.209 -167.827)" fill="#407bff"/>
      <path id="Path_15712" data-name="Path 15712" d="M125.748,233.43c1.637,5.253,2.915,9.806,3.928,13.875,3.19,12.6,3.852,20.662,4.524,31.234l42.526-3.663c1.7-29.956.946-46.378.17-54.65-.852-8.774-2.205-9.1-2.205-9.1s-9.465-.946-17.775-.871a135.724,135.724,0,0,0-19.091,2.016,123.257,123.257,0,0,0-13.573,3.038,4.013,4.013,0,0,0-2.764,5.111l1.3,3.909C123.855,227.609,124.8,230.619,125.748,233.43Z" transform="translate(-75.059 -160.16)" fill="#407bff"/>
      <path id="Path_15713" data-name="Path 15713" d="M176.687,274.865l-42.526,3.672c-.672-10.525-1.335-18.57-4.5-31.111V247.3c-.946-3.918-2.2-8.272-3.786-13.251-.057-.2-.123-.388-.18-.587-.871-2.839-1.836-5.821-2.925-9.067l-1.287-3.975a4.023,4.023,0,0,1,2.726-5.158,125.479,125.479,0,0,1,13.573-3.038,135.726,135.726,0,0,1,19.091-2.007c8.272-.066,17.775.861,17.775.861s1.353.322,2.205,9.1C177.634,228.449,178.391,244.908,176.687,274.865Z" transform="translate(-75.058 -160.158)" fill="#fff" opacity="0.7"/>
      <path id="Path_15714" data-name="Path 15714" d="M130.715,162.886s3.256-4.846,11.9-5.471,18.324,1.893,22.99,13.752l-3.786.946a88.268,88.268,0,0,1,3.246,27.5s-21.438-.625-40.992,4.666c0,0-2.953-14.2-.8-28.167S130.715,162.886,130.715,162.886Z" transform="translate(-75.123 -157.327)" fill="#263238"/>
      <path id="Path_15715" data-name="Path 15715" d="M152.721,218.619c-9.891-1.268-12.9-5.537-12.9-5.537,6.294-5.944,1.06-16.232,1.06-16.232l11.945,2.224a35.39,35.39,0,0,0-.464,5.035c-.085,7.25,3.19,7.316,3.19,7.316C157.652,215.382,152.721,218.619,152.721,218.619Z" transform="translate(-76.05 -159.442)" fill="#eec1bb"/>
      <path id="Path_15716" data-name="Path 15716" d="M152.885,199.1a35.392,35.392,0,0,0-.464,5.035c-8.064,0-11.481-7.26-11.481-7.26Z" transform="translate(-76.11 -159.444)" opacity="0.2"/>
      <path id="Path_15717" data-name="Path 15717" d="M161.031,192.587c-.095.35-.189.691-.3,1.013-1.382,4.221-4.344,6.824-9.569,6.928a15.833,15.833,0,0,1-2.29-.085,10.961,10.961,0,0,1-1.5-.2c-17.851-2.915-18.721-35.361-1.477-36.317,10.411-.568,14.027,4.818,15.38,15.475C161.9,184.476,161.939,189.019,161.031,192.587Z" transform="translate(-75.709 -157.678)" fill="#eec1bb"/>
      <path id="Path_15718" data-name="Path 15718" d="M155.71,180.06a22.091,22.091,0,0,0,3.256,4.136,2.84,2.84,0,0,1-2.669,1.325Z" transform="translate(-76.901 -158.544)" fill="#d4827d"/>
      <path id="Path_15719" data-name="Path 15719" d="M148.824,179.447c.076.852-.331,1.581-.9,1.619s-1.089-.606-1.155-1.458.341-1.581.947-1.628S148.757,178.6,148.824,179.447Z" transform="translate(-76.422 -158.432)" fill="#263238"/>
      <path id="Path_15720" data-name="Path 15720" d="M147.48,178l1.8-.871S148.483,178.758,147.48,178Z" transform="translate(-76.46 -158.387)" fill="#263238"/>
      <path id="Path_15721" data-name="Path 15721" d="M160,178.377c.066.861-.341,1.581-.946,1.628s-1.079-.606-1.145-1.458.341-1.581.946-1.628S159.935,177.526,160,178.377Z" transform="translate(-77.018 -158.376)" fill="#263238"/>
      <path id="Path_15722" data-name="Path 15722" d="M158.66,176.951l1.8-.871S159.654,177.7,158.66,176.951Z" transform="translate(-77.059 -158.331)" fill="#263238"/>
      <path id="Path_15723" data-name="Path 15723" d="M143.723,174.223a.435.435,0,0,1-.275-.095.464.464,0,0,1-.1-.663c1.609-2.224,4.732-2.016,4.837-2.007a.473.473,0,0,1,.435.5.492.492,0,0,1-.511.445s-2.7-.17-3.994,1.618A.464.464,0,0,1,143.723,174.223Z" transform="translate(-76.234 -158.083)" fill="#263238"/>
      <path id="Path_15724" data-name="Path 15724" d="M160.526,172.118a.426.426,0,0,1-.237-.066,4.382,4.382,0,0,0-3.786-.6.483.483,0,0,1-.615-.256.473.473,0,0,1,.246-.615,5.291,5.291,0,0,1,4.619.653.473.473,0,0,1-.246.88Z" transform="translate(-76.908 -158.023)" fill="#263238"/>
      <path id="Path_15725" data-name="Path 15725" d="M135.322,181.838s4.392-8.8,3.294-15.343c0,0,20.113-9.541,22.28,11.292,0,0,.994-18.655-16.885-18.087s-16.365,26.672-6.72,33.95C137.291,193.65,132.606,187.337,135.322,181.838Z" transform="translate(-75.537 -157.453)" fill="#263238"/>
      <path id="Path_15726" data-name="Path 15726" d="M137.1,185.087a4.562,4.562,0,0,0-5.13-3.9c-3.2.53-4.373,7.222,3.72,8.367C136.847,189.725,137.434,188.58,137.1,185.087Z" transform="translate(-75.5 -158.602)" fill="#eec1bb"/>
      <path id="Path_15727" data-name="Path 15727" d="M155.387,189.714a28.316,28.316,0,0,0-2.3,3.5c-.237-.076-.473-.161-.7-.256-3.133-1.174-4.2-2.754-4.43-4.146a4.25,4.25,0,0,1,.2-2.035,4.117,4.117,0,0,1,.492-1.06c1.3,1.618,4.127,2.944,5.679,3.578C154.971,189.572,155.387,189.714,155.387,189.714Z" transform="translate(-76.483 -158.847)" fill="#263238"/>
      <path id="Path_15728" data-name="Path 15728" d="M154.341,189.3l-.71,1.022c-2.953-1.117-4.874-2.3-5.461-3.54a4.117,4.117,0,0,1,.492-1.06C149.959,187.339,152.789,188.664,154.341,189.3Z" transform="translate(-76.497 -158.847)" fill="#fff"/>
      <path id="Path_15729" data-name="Path 15729" d="M152.39,193.136c-3.133-1.174-4.2-2.754-4.43-4.146a10.724,10.724,0,0,1,3.218,2A3.966,3.966,0,0,1,152.39,193.136Z" transform="translate(-76.486 -159.022)" fill="#de5753"/>
      <path id="Path_15730" data-name="Path 15730" d="M238.063,342.66c-1.316,11.973-22.441,18.21-53.06,19.11h0c-21.637.634-48-1.391-75.473-5.963l1.306-14.623,12.9-3.114h0c-.114-.237-2.319-5.045-1.325-15.21.748-7.714,3.351-18.523,10.127-32.767l43.538-3.852,6.341,13.308s47.258,13,55.076,37.944a12.616,12.616,0,0,1,.568,5.168Z" transform="translate(-74.429 -164.226)" fill="#407bff"/>
      <path id="Path_15731" data-name="Path 15731" d="M241.437,343.752c-1.316,11.973-22.441,18.21-53.06,19.11,21.069-2.839,28.527-10.525,23.851-23.662s-38.361-31.83-39.648-32.559c38.91,15,48.081,37.594,48.081,37.594C227.874,345.985,236.118,344.887,241.437,343.752Z" transform="translate(-77.803 -165.318)" opacity="0.2"/>
      <path id="Path_15732" data-name="Path 15732" d="M166.635,337.963c-16.97-2.556-42.185,2.177-42.185,2.177h0c-.114-.237-2.319-5.045-1.325-15.21C142.159,326.369,166.635,337.963,166.635,337.963Z" transform="translate(-75.143 -166.297)" opacity="0.2"/>
      <path id="Path_15733" data-name="Path 15733" d="M134.833,282.182l42.526-3.672V285.8L133.83,289.65Z" transform="translate(-75.73 -163.812)" fill="#263238"/>
      <path id="Path_15734" data-name="Path 15734" d="M165.84,279.821a2.65,2.65,0,0,0-2.016-.682l-5.31.454a2.622,2.622,0,0,0-2.4,2.631v3.407a2.631,2.631,0,0,0,2.641,2.641h.227l5.31-.473a2.612,2.612,0,0,0,2.4-2.622V281.8A2.669,2.669,0,0,0,165.84,279.821Zm-1.675,6.625-5.31.473a1.278,1.278,0,0,1-1.391-1.278v-3.417a1.278,1.278,0,0,1,1.174-1.278l5.31-.454h.114a1.287,1.287,0,0,1,.861.341,1.268,1.268,0,0,1,.407.947v.511a1.383,1.383,0,0,0-.208,0l-1.486.113a.946.946,0,0,0,.142,1.8l1.486-.114h.066v1.117a1.259,1.259,0,0,1-1.164,1.212Z" transform="translate(-76.922 -163.846)" fill="#fff"/>
      <path id="Path_15735" data-name="Path 15735" d="M164.49,243.441s1.23-5.565,3.36-7.061,8.954-3.161,10.5-2.764,3.246,3.54,3.246,3.54-6.02,8.433-7.685,9.134S164.973,248.287,164.49,243.441Z" transform="translate(-77.371 -161.407)" fill="#eec1bb"/>
      <path id="Path_15736" data-name="Path 15736" d="M139.088,251.785c-1.779,1.723-5.764-.748-9.162-3.493v-.123c-.946-3.918-2.2-8.272-3.786-13.251l1.969-8.518S142.476,248.5,139.088,251.785Z" transform="translate(-75.318 -161.024)" opacity="0.2"/>
      <path id="Path_15737" data-name="Path 15737" d="M122.035,217.081c-5.934,5.679,9.465,31.726,16.762,38.21s25.555-10.61,25.555-10.61v-5.811s-16.488,8.178-19.649,7.676c-1.448-.227-6.909-8.717-10.534-16.5C129.853,220.715,127.042,212.263,122.035,217.081Z" transform="translate(-75.027 -160.45)" fill="#eec1bb"/>
    </g>
    <g id="Character_2" data-name="Character 2" transform="translate(89.907 42.058)">
      <g id="_Group_3" data-name="&lt;Group&gt;">
        <path id="Path_15738" data-name="Path 15738" d="M214.17,240.444s11.008,5.972,14.633,5.859,14.86-11.632,14.86-11.632l4.42,1.893s-11.907,14.992-15.466,15.579-16.98-2.839-16.98-2.839Z" transform="translate(-154.475 -190.393)" fill="#e4897b"/>
        <path id="Path_15739" data-name="Path 15739" d="M205.41,235.05c8.764.483,16.09,7.212,16.09,7.212l-2.839,10.5-10.885-4.9Z" transform="translate(-154.006 -190.414)" fill="#263238"/>
        <path id="Path_15740" data-name="Path 15740" d="M221.468,242.262l-2.839,10.5-1.287-.577-9.6-4.325-.511-2.773L205.34,235.05C214.171,235.542,221.468,242.262,221.468,242.262Z" transform="translate(-154.003 -190.414)" fill="#fff" opacity="0.4"/>
        <path id="Path_15741" data-name="Path 15741" d="M217.488,252.487l-9.6-4.325-.511-2.773,1.5-4.619S216.958,242.5,217.488,252.487Z" transform="translate(-154.112 -190.72)" opacity="0.2"/>
        <path id="Path_15742" data-name="Path 15742" d="M247.613,293.22s19.876,11.642,27.136,40.027l-5.49,4.183s-7.3-22.488-28.489-32.975Z" transform="translate(-155.899 -193.527)" fill="#e4897b"/>
        <path id="Path_15743" data-name="Path 15743" d="M276.653,332.936l-8.679,2.1a.558.558,0,0,0-.445.663h0l1.24,6.966a1.4,1.4,0,0,0,1.675,1.041c3.019-.776,4.411-1.306,8.225-2.253,2.338-.577,7.023-1.486,10.1-2.773s1.723-4.3.3-4.023c-3.36.634-8.4-.426-10.989-1.609a2.272,2.272,0,0,0-1.429-.114Z" transform="translate(-157.33 -195.649)" fill="#263238"/>
        <path id="Path_15744" data-name="Path 15744" d="M280.268,333.505a10.053,10.053,0,0,1-2.13.227.18.18,0,0,1-.17-.1.208.208,0,0,1,0-.208c.208-.227,2.035-2.253,3.067-2.111a.691.691,0,0,1,.54.407.946.946,0,0,1,0,1.06A2.138,2.138,0,0,1,280.268,333.505Zm.757-1.8c-.549-.076-1.685.88-2.442,1.675,1.448-.066,2.451-.35,2.735-.8a.7.7,0,0,0,0-.672.332.332,0,0,0-.265-.208Z" transform="translate(-157.888 -195.565)" fill="#407bff"/>
        <path id="Path_15745" data-name="Path 15745" d="M278.157,333.646a.085.085,0,0,1-.066,0,.18.18,0,0,1-.133-.114c0-.066-.738-2.272-.151-3.218a.946.946,0,0,1,.71-.435.71.71,0,0,1,.786.388c.379.8-.379,2.688-1.041,3.332A.132.132,0,0,1,278.157,333.646Zm.322-3.332a.549.549,0,0,0-.341.255,4.094,4.094,0,0,0,.085,2.574,3.9,3.9,0,0,0,.748-2.669c0-.095-.142-.208-.4-.17Z" transform="translate(-157.869 -195.488)" fill="#407bff"/>
        <path id="Path_15746" data-name="Path 15746" d="M224.667,307.27s13.459,18.721,8.518,47.589l-6.72,1.59s2.461-23.511-12.645-41.693Z" transform="translate(-154.457 -194.279)" fill="#e4897b"/>
        <path id="Path_15747" data-name="Path 15747" d="M235.139,355.308l-8.774-1.609a.568.568,0,0,0-.672.426h0L224,361.006a1.41,1.41,0,0,0,1.107,1.637c3.076.511,4.562.6,8.433,1.278,2.376.426,7.023,1.5,10.355,1.562s3.313-3.218,1.893-3.54c-3.332-.8-7.506-3.786-9.389-5.935a2.206,2.206,0,0,0-1.259-.7Z" transform="translate(-155 -196.763)" fill="#263238"/>
        <path id="Path_15748" data-name="Path 15748" d="M238.328,357.236a9.463,9.463,0,0,1-2.035-.663.142.142,0,0,1-.114-.161.18.18,0,0,1,.1-.17c.274-.133,2.773-1.24,3.663-.691a.7.7,0,0,1,.331.6,1,1,0,0,1-.416.946A2.092,2.092,0,0,1,238.328,357.236Zm1.42-1.334c-.473-.293-1.893.123-2.906.53,1.344.54,2.376.681,2.839.388a.691.691,0,0,0,.256-.625.341.341,0,0,0-.161-.293Z" transform="translate(-155.653 -196.854)" fill="#407bff"/>
        <path id="Path_15749" data-name="Path 15749" d="M236.331,356.462a.132.132,0,0,1-.085,0,.17.17,0,0,1-.066-.161c0-.066.246-2.376,1.164-3a.947.947,0,0,1,.833-.1.71.71,0,0,1,.558.672c0,.88-1.448,2.3-2.309,2.622a.1.1,0,0,1-.095-.028Zm1.637-2.906a.511.511,0,0,0-.416.095c-.558.36-.852,1.637-.946,2.376a3.843,3.843,0,0,0,1.77-2.13c0-.1,0-.246-.293-.322Z" transform="translate(-155.653 -196.734)" fill="#407bff"/>
        <path id="Path_15750" data-name="Path 15750" d="M222.178,283.584s-10.582-26.113-11.9-41.4a7.894,7.894,0,0,0-6.739-7.155,49.012,49.012,0,0,0-12.654.095c-14.2,1.742-20.378,6.1-20.378,6.1s-.341,25.858,5.007,49.615Z" transform="translate(-152.139 -190.393)" fill="#263238"/>
        <path id="Path_15751" data-name="Path 15751" d="M222.178,283.584l-46.662,7.241a195.1,195.1,0,0,1-3.483-21.646c-.54-4.979-.89-9.635-1.117-13.667-.483-8.518-.407-14.3-.407-14.3s6.143-4.335,20.34-6.076a48.667,48.667,0,0,1,12.654-.1,7.9,7.9,0,0,1,6.739,7.155C211.6,257.471,222.178,283.584,222.178,283.584Z" transform="translate(-152.139 -190.393)" fill="#fff" opacity="0.4"/>
        <path id="Path_15752" data-name="Path 15752" d="M198.2,232.146a6.5,6.5,0,0,0,.132,5.007,7.43,7.43,0,0,0,.426.814,10.572,10.572,0,0,0,.852,1.155s1.117,4.42-4.2,4.089c-8.149-.521-11.405-6.029-11.405-6.029a12.049,12.049,0,0,0,2.953-9.465A16.28,16.28,0,0,0,185.6,222.7l10.411,3.843,4.732,1.751a10.7,10.7,0,0,0-2.546,3.852Z" transform="translate(-152.861 -189.753)" fill="#e4897b"/>
        <path id="Path_15753" data-name="Path 15753" d="M198.287,232.149a6.5,6.5,0,0,0,.133,5.007,7.427,7.427,0,0,0,.426.814c-5.868-1.032-9.834-6.625-11.812-10.2a16.28,16.28,0,0,0-1.353-5.016l10.411,3.843,4.732,1.751A10.7,10.7,0,0,0,198.287,232.149Z" transform="translate(-152.951 -189.756)" opacity="0.2"/>
        <path id="Path_15754" data-name="Path 15754" d="M204.638,194.28s12.494,7.572,1.486,19.337C193.678,226.867,204.638,194.28,204.638,194.28Z" transform="translate(-153.727 -188.232)" fill="#263238"/>
        <path id="Path_15755" data-name="Path 15755" d="M178.525,213.4c1.846,8.518,8.074,17.406,15.418,17.671,13.459.5,18.239-2.745,18.3-12.692.1-8.963-4.988-22.384-16.2-23.4S175.96,201.553,178.525,213.4Z" transform="translate(-152.544 -188.265)" fill="#e4897b"/>
        <path id="Path_15756" data-name="Path 15756" d="M205.342,199.623a24.2,24.2,0,0,1-12.617,2.584s-5.13,1.6-3.142,7.354-4.43,9.948-3.578,17.813c0,0-8.31.17-12.02-16.8-2.7-12.371,7.468-18.75,18.636-20.122C201.973,189.307,209.516,195.09,205.342,199.623Z" transform="translate(-152.301 -188.019)" fill="#263238"/>
        <path id="Path_15757" data-name="Path 15757" d="M199.738,213.983c.2,1.088.947,1.893,1.666,1.732s1.117-1.126.946-2.215-.946-1.893-1.656-1.742S199.548,212.933,199.738,213.983Z" transform="translate(-153.701 -189.166)" fill="#263238"/>
        <path id="Path_15758" data-name="Path 15758" d="M208.877,211.879c.18,1.041.946,1.789,1.581,1.656s1.079-1.079.89-2.12-.946-1.779-1.59-1.656S208.688,210.81,208.877,211.879Z" transform="translate(-154.19 -189.06)" fill="#263238"/>
        <path id="Path_15759" data-name="Path 15759" d="M201.742,207.665a.606.606,0,0,0,.133-.284.521.521,0,0,0-.511-.5,4.9,4.9,0,0,0-4.1,1.978.492.492,0,0,0,.142.691h0a.521.521,0,0,0,.691-.133h0a3.9,3.9,0,0,1,3.3-1.514.521.521,0,0,0,.341-.237Z" transform="translate(-153.566 -188.906)" fill="#263238"/>
        <path id="Path_15760" data-name="Path 15760" d="M210.73,206.453a.577.577,0,0,0,.246-.18.521.521,0,0,0-.2-.681,4.9,4.9,0,0,0-4.553-.227.5.5,0,0,0-.208.681h0a.511.511,0,0,0,.672.2h0a3.937,3.937,0,0,1,3.625.256A.54.54,0,0,0,210.73,206.453Z" transform="translate(-154.036 -188.801)" fill="#263238"/>
        <path id="Path_15761" data-name="Path 15761" d="M207.3,213.63l-.293,4.837a5.935,5.935,0,0,0,3.436-.814,14.065,14.065,0,0,1-3.142-4.023Z" transform="translate(-154.092 -189.268)" fill="#de5753"/>
        <path id="Path_15762" data-name="Path 15762" d="M189.233,218.32s-3.123-4.922-5.584-2.839-.511,10.847,3.549,10.194S191.495,220.876,189.233,218.32Z" transform="translate(-152.784 -189.339)" fill="#e4897b"/>
        <path id="Path_15763" data-name="Path 15763" d="M207.5,221.981a27.846,27.846,0,0,0-1.335,3.786l-.71-.066c-3.19-.369-4.553-1.59-5.092-2.839a4.06,4.06,0,0,1-.284-1.893,3.787,3.787,0,0,1,.218-1.1c1.571,1.2,4.524,1.77,6.114,2.007C207.074,221.952,207.5,221.981,207.5,221.981Z" transform="translate(-153.72 -189.602)" fill="#263238"/>
        <path id="Path_15764" data-name="Path 15764" d="M206.412,221.887,205.986,223c-3-.36-5.073-1-5.906-2.025a3.786,3.786,0,0,1,.218-1.1C201.9,221.035,204.822,221.6,206.412,221.887Z" transform="translate(-153.721 -189.602)" fill="#fff"/>
        <path id="Path_15765" data-name="Path 15765" d="M205.472,225.84c-3.19-.369-4.553-1.59-5.092-2.839a10.052,10.052,0,0,1,3.464,1.107A3.862,3.862,0,0,1,205.472,225.84Z" transform="translate(-153.737 -189.769)" fill="#de5753"/>
        <path id="Path_15766" data-name="Path 15766" d="M196.3,190.19c8.32.483,12.181-2.3,12.181-2.3,5.016,4.912.114,16.573-15.049,14.2S193.617,190.039,196.3,190.19Z" transform="translate(-153.013 -187.89)" fill="#263238"/>
        <path id="Path_15767" data-name="Path 15767" d="M252.582,294.062l-8.31,15.343-2.669,4.922-16.687-6.559-10.09,15.579s-44.087-13.355-40.14-35.408l43.538-13.468S238.186,279.5,252.582,294.062Z" transform="translate(-152.349 -192.523)" fill="#263238"/>
        <path id="Path_15768" data-name="Path 15768" d="M246.228,310.061l-2.669,4.922-16.687-6.559,1.041-2.953L211,286.73S234.993,294.406,246.228,310.061Z" transform="translate(-154.306 -193.18)" opacity="0.2"/>
        <path id="Path_15770" data-name="Path 15770" d="M245.374,236.243s-1-1.335-.066-3.729,11.244-4.174,11.244-4.174,1.126,5.982,0,7.9S246.377,240.5,245.374,236.243Z" transform="translate(-156.12 -190.055)" fill="#e4897b"/>
        <path id="Path_15771" data-name="Path 15771" d="M172.057,270.255c-.54-4.978-.89-9.635-1.117-13.667a8.935,8.935,0,0,1,6.162-2.149S178.19,265.315,172.057,270.255Z" transform="translate(-152.162 -191.451)" opacity="0.2"/>
        <path id="Path_15772" data-name="Path 15772" d="M173.713,257.263s-5.348,15.939-6.057,19.876,0,23.056,0,23.056H163.2s-2.518-20.179-2.328-24.126,4.732-22.3,4.732-22.3Z" transform="translate(-151.622 -191.416)" fill="#e4897b"/>
        <path id="Path_15773" data-name="Path 15773" d="M170.146,241.62c-5.679,4.354-8.906,18.5-8.906,18.5l11.263,1.259,4.1-10.089Z" transform="translate(-151.643 -190.765)" fill="#263238"/>
        <path id="Path_15774" data-name="Path 15774" d="M170.146,241.62c-5.679,4.354-8.906,18.5-8.906,18.5l11.263,1.259,4.1-10.089Z" transform="translate(-151.643 -190.765)" fill="#fff" opacity="0.4"/>
        <path id="Path_15775" data-name="Path 15775" d="M163.31,300.2s-7.108,1.155-8.424,2.47a56.413,56.413,0,0,0-3.786,4.874s8.272,2.527,9.607,2.839,6.824-4.78,7.449-6.162S163.31,300.2,163.31,300.2Z" transform="translate(-151.1 -193.9)" fill="#e4897b"/>
        <path id="Path_179" data-name="Path 179" d="M15.4,8.98,11.508,0,7.778,7.506,0,8.458l5.077,5.819L3.887,22.568l6.806-3.538,5.95,3.591-6.055-4.858L5.077,20.726,6.484,13.9,2.429,9.253l6-.952,3.075-5.663Z" transform="translate(34.77 59.243) rotate(-11)" fill="#fff"/>
      </g>
    </g>
  </g>
</svg>
