<svg xmlns="http://www.w3.org/2000/svg" width="78.752" height="112.679" viewBox="0 0 78.752 112.679">
  <g id="icon1" transform="translate(-142.433 -256.246)">
    <g id="_1wdf" data-name="1wdf" transform="translate(-176 131)">
      <path id="Path_15848" data-name="Path 15848" d="M352.781,235.874c0-14.511.231-29.022-.1-43.524a12.041,12.041,0,0,1,12.511-12.6c17.981.268,35.971.082,53.957.1,7.671,0,12.266,4.577,12.27,12.243q.02,43.982,0,87.964c0,7.652-4.64,12.306-12.234,12.311-18.063.009-36.121-.118-54.184.064A11.928,11.928,0,0,1,352.7,280.078c.286-14.729.086-29.471.086-44.2Zm27.162,47.189c11.889.045,20.871-8.927,20.948-20.925a20.919,20.919,0,0,0-41.832-.272c-.091,12.093,8.832,21.152,20.88,21.2Zm11.885-60.575H417.42c1.533,0,2.522-.767,2.5-2.286s-1.061-2.232-2.572-2.227H371.6a23.478,23.478,0,0,0-4.963.1,3.545,3.545,0,0,0-2.318,2.114c-.331,1.488.848,2.264,2.363,2.3.454.009.907,0,1.361,0h23.783Zm.245-13.069c8.233,0,16.466-.014,24.7.014,1.6,0,3.053-.327,3.121-2.141.068-1.96-1.411-2.413-3.116-2.4-3.1.027-6.192.009-9.29.009H368.734c-.531,0-1.057,0-1.588,0-1.633-.014-2.953.517-2.885,2.377.064,1.719,1.343,2.146,2.88,2.141q12.465-.027,24.926,0Zm-.054-13.064q12,0,24.01,0c1.728,0,3.883.227,3.847-2.291-.032-2.3-2.046-2.214-3.738-2.214q-24.121,0-48.246,0a4.216,4.216,0,0,0-2.2.3,2.994,2.994,0,0,0-1.365,2.014,2.9,2.9,0,0,0,1.461,1.946,5.434,5.434,0,0,0,2.44.24q11.894.02,23.783,0Zm.082,34.706H367.174c-1.615,0-2.967.44-2.908,2.332.054,1.728,1.356,2.177,2.867,2.186.376,0,.758,0,1.134,0q23.794,0,47.584,0a5,5,0,0,0,2.431-.231,3.345,3.345,0,0,0,1.556-2.146c.045-.635-.826-1.5-1.5-1.955-.485-.327-1.315-.177-1.991-.177q-12.125-.014-24.246,0Zm18.113,39.668c1.456,3.452,2.023,3.656,5.248,1.982q3.4-1.769,6.8-3.556c1.424-.748,2.386-1.833,1.47-3.443-.848-1.483-2.241-1.252-3.565-.576-1.715.875-3.416,1.765-5.144,2.663-1.1-3.021-2.1-3.8-3.928-2.84-2.4,1.256-4.695,2.7-6.986,4.146-1.188.748-1.656,2.055-.685,3.062a3.445,3.445,0,0,0,2.894.689A18.943,18.943,0,0,0,410.212,270.729Zm1.361,5.3c-2.64,0-5.276.027-7.916-.009-1.551-.023-2.79.4-2.812,2.155-.023,1.669,1.1,2.372,2.676,2.372q8.029.014,16.058-.009c1.583-.009,2.681-.812,2.6-2.449-.073-1.542-1.193-2.1-2.694-2.068-2.635.045-5.276.014-7.916.009Z" transform="translate(-34.248 -54.501)" fill="#0542f2"/>
      <path id="Path_15850" data-name="Path 15850" d="M387.629,357.3c-12.048-.045-20.975-9.108-20.88-21.2a20.919,20.919,0,0,1,41.832.272c-.077,12-9.063,20.97-20.948,20.925Zm-16.362-20.766a16.4,16.4,0,0,0,32.8.313,16.057,16.057,0,0,0-16.135-16.593C378.452,320.169,371.344,327.109,371.267,336.535Z" transform="translate(-41.934 -128.739)" fill="#fff"/>
      <path id="Path_15851" data-name="Path 15851" d="M405.779,268.427H382c-.454,0-.907.009-1.361,0-1.515-.036-2.694-.812-2.363-2.3a3.525,3.525,0,0,1,2.318-2.114,23.473,23.473,0,0,1,4.963-.1h43.941c.6,0,1.207,0,1.81,0,1.511,0,2.549.7,2.572,2.227s-.966,2.286-2.5,2.286H405.784Z" transform="translate(-48.2 -100.44)" fill="#fff"/>
      <path id="Path_15852" data-name="Path 15852" d="M406.023,239.712q-12.465,0-24.926,0c-1.538,0-2.817-.422-2.88-2.141-.068-1.86,1.252-2.391,2.885-2.377h40.34c3.1,0,6.2.018,9.29-.009,1.706-.018,3.184.435,3.116,2.4-.063,1.814-1.524,2.146-3.121,2.141-8.233-.027-16.466-.014-24.7-.014Z" transform="translate(-48.199 -84.793)" fill="#fff"/>
      <path id="Path_15853" data-name="Path 15853" d="M406.053,210.923q-11.894,0-23.783,0a5.371,5.371,0,0,1-2.44-.24,2.9,2.9,0,0,1-1.461-1.946,2.994,2.994,0,0,1,1.365-2.014,4.2,4.2,0,0,1,2.2-.3q24.121-.02,48.246,0c1.692,0,3.706-.086,3.738,2.214.032,2.518-2.118,2.286-3.847,2.291q-12,.02-24.01.009Z" transform="translate(-48.284 -69.069)" fill="#fff"/>
      <path id="Path_15854" data-name="Path 15854" d="M406.046,292.834q12.125,0,24.245,0c.676,0,1.506-.15,1.991.177.676.454,1.542,1.325,1.5,1.955a3.329,3.329,0,0,1-1.556,2.146,5.007,5.007,0,0,1-2.431.231q-23.794.014-47.584,0c-.376,0-.758,0-1.134,0-1.511,0-2.812-.458-2.867-2.186-.059-1.892,1.293-2.336,2.908-2.332q12.465.014,24.926,0Z" transform="translate(-48.195 -116.274)" fill="#fff"/>
      <path id="Path_15855" data-name="Path 15855" d="M472.415,375.792c-1.725,1.173-3.171,2.586-4.818,3.125a3.758,3.758,0,0,1-3.574-1.013,3.1,3.1,0,0,1,.846-4.5c2.829-2.119,5.669-4.245,8.627-6.091,2.258-1.406,3.5-.267,4.851,4.172,2.134-1.313,4.241-2.626,6.353-3.912,1.641-1,3.361-1.333,4.4.846,1.137,2.366-.056,3.958-1.815,5.058q-4.193,2.629-8.392,5.225C474.913,381.164,474.213,380.864,472.415,375.792Z" transform="translate(-96.729 -158.748)" fill="#0542f2"/>
      <path id="Path_15856" data-name="Path 15856" d="M473.152,392.006c3.517,0,7.028.058,10.546-.017,1.994-.05,3.493.966,3.59,3.8.1,3.008-1.36,4.482-3.469,4.5-7.131.05-14.262.033-21.393.017-2.1,0-3.59-1.291-3.566-4.357.03-3.224,1.68-4,3.747-3.958,3.511.075,7.028.017,10.546.025Z" transform="translate(-96.006 -171.759)" fill="#0542f2"/>
      <path id="Path_15857" data-name="Path 15857" d="M376.709,343.513c.084-10.233,7.8-17.773,18.088-17.674a17.435,17.435,0,0,1,17.517,18.014,17.8,17.8,0,0,1-35.6-.34Zm13.562,2.191c-2.122.394-3.014,1.236-3.024,2.861-.015,2.59,1.3,4.432,3.29,6a4.441,4.441,0,0,1,1.517,2.605c.217,1.581.625,2.782,2.4,2.812a2.321,2.321,0,0,0,2.531-2.664c-.069-1.527.6-2.265,1.768-3.112a6.677,6.677,0,0,0,2.773-7.328c-.753-3.359-2.9-5.067-6.471-5.791a5.006,5.006,0,0,1-2.777-2.182c-.256-.389.507-1.871,1.172-2.344,1.458-1.029,2.989-.01,3.57,2.315.374,1.507,1.231,2.438,2.733,2.108,1.635-.359,2.733-1.724,2.053-3.309a38.729,38.729,0,0,0-3.368-5.269,6.93,6.93,0,0,1-1.339-2.492c-.222-1.7-.862-2.96-2.64-2.925-1.837.034-2.354,1.379-2.379,3.088a2.688,2.688,0,0,1-.857,2c-3.073,1.9-4.526,4.575-3.762,8.091.793,3.649,3.428,5.456,7.027,5.865,1.581.177,2.635,1.049,2.383,2.472-.148.852-1.463,2.122-2.187,2.083-.881-.049-1.793-1.2-2.512-2.029a25.292,25.292,0,0,1-1.9-2.861Z" transform="translate(-48.782 -135.581)" fill="#0542f2"/>
      <path id="Path_15858" data-name="Path 15858" d="M400.895,345.422a22.694,22.694,0,0,0,1.751,2.635c.662.762,1.5,1.824,2.313,1.869.667.036,1.878-1.134,2.014-1.919.231-1.315-.735-2.114-2.2-2.277-3.316-.376-5.747-2.041-6.473-5.4-.7-3.239.635-5.7,3.466-7.453a2.467,2.467,0,0,0,.789-1.842c.018-1.574.494-2.812,2.191-2.844,1.638-.032,2.227,1.13,2.431,2.694a6.383,6.383,0,0,0,1.234,2.3,35.671,35.671,0,0,1,3.1,4.854c.626,1.461-.386,2.717-1.892,3.048-1.384.3-2.173-.553-2.518-1.941-.535-2.141-1.946-3.076-3.289-2.132-.612.431-1.315,1.8-1.08,2.159a4.642,4.642,0,0,0,2.558,2.009c3.293.662,5.266,2.241,5.96,5.334a6.152,6.152,0,0,1-2.554,6.75,3.017,3.017,0,0,0-1.628,2.867,2.138,2.138,0,0,1-2.332,2.454c-1.628-.027-2.009-1.129-2.209-2.59a4.054,4.054,0,0,0-1.4-2.4c-1.828-1.452-3.048-3.144-3.03-5.53.009-1.5.83-2.273,2.785-2.635Z" transform="translate(-59.07 -135.607)" fill="#fff"/>
      <ellipse id="Ellipse_377" data-name="Ellipse 377" cx="10.5" cy="17" rx="10.5" ry="17" transform="translate(336 191)" fill="#0542f2"/>
      <ellipse id="Ellipse_378" data-name="Ellipse 378" cx="24.5" cy="22" rx="24.5" ry="22" transform="translate(322 185)" fill="#0542f2"/>
      <path id="Path_15867" data-name="Path 15867" d="M330.011,176.531h18.066" fill="#fff" stroke="#fff" stroke-width="4"/>
    </g>
    <rect id="Rectangle_199" data-name="Rectangle 199" width="67" height="52" transform="translate(148 264)" fill="#0542f2"/>
    <path id="shield-check-svgrepo-com" d="M12.253,17.811l3.3,3.3,6.6-6.6m8.253,3.3c0,7.364-9.012,12.7-12.146,14.332a2.646,2.646,0,0,1-.743.311,1.872,1.872,0,0,1-.631,0,2.646,2.646,0,0,1-.743-.311C13.012,30.511,4,25.175,4,17.811V11.568a7.513,7.513,0,0,1,.216-2.547,3.3,3.3,0,0,1,.9-1.3,7.513,7.513,0,0,1,2.309-1.1L16.278,3.3a3.507,3.507,0,0,1,.691-.219,1.651,1.651,0,0,1,.472,0,3.507,3.507,0,0,1,.691.219l8.85,3.319a7.511,7.511,0,0,1,2.309,1.1,3.3,3.3,0,0,1,.9,1.3,7.51,7.51,0,0,1,.216,2.547Z" transform="translate(186 329.932)" fill="none" stroke="#fff" stroke-linecap="round" stroke-linejoin="round" stroke-width="2"/>
    <rect id="Rectangle_200" data-name="Rectangle 200" width="36" height="4" rx="2" transform="translate(155 296)" fill="#fff"/>
    <rect id="Rectangle_201" data-name="Rectangle 201" width="58" height="4" rx="2" transform="translate(155 309)" fill="#fff"/>
    <rect id="Rectangle_202" data-name="Rectangle 202" width="58" height="4" rx="2" transform="translate(155 322)" fill="#fff"/>
    <text id="_" data-name="₹" transform="translate(155 287)" fill="#fff" font-size="22" font-family="Manrope-Bold, Manrope" font-weight="700"><tspan x="0" y="0">₹</tspan></text>
    <path id="Path_15868" data-name="Path 15868" d="M5568.194,1597.707l4.377-3.636,3.5,3.636,1.532-3.636s-.437,3.94,1.095,2.189a46.432,46.432,0,0,0,3.94-6.348c.657-1.094,2.189,7.442,3.721,9.193" transform="translate(-5412 -1247)" fill="none" stroke="#fff" stroke-width="1"/>
  </g>
</svg>
