<svg id="star-award" xmlns="http://www.w3.org/2000/svg" width="32.561" height="43.234" viewBox="0 0 32.561 43.234">
  <path id="Path_15779" data-name="Path 15779" d="M58.958,0c1,.79,2.015,1.579,3.011,2.385q2.565,2.068,5.115,4.158a.706.706,0,0,0,.723.16q4.673-1.32,9.356-2.595a1.625,1.625,0,0,1,.821-.025.8.8,0,0,1,.431,1.15q-1.153,3.053-2.322,6.1c-.439,1.156-.871,2.315-1.324,3.466a.7.7,0,0,0,.061.7c1.724,2.82,3.433,5.651,5.153,8.473a.924.924,0,0,1,.123,1.058.978.978,0,0,1-1.032.405c-2.99-.275-5.979-.535-8.969-.811-.237-.021-.346.021-.431.259-.812,2.306-1.639,4.606-2.46,6.909-.018.051-.025.1-.047.205H71.66c.72,0,1.015.3,1.022,1.03V35.4h1.509c.741.006,1.055.311,1.057,1.055.007,1.506,0,3.011,0,4.513v.573c.177,0,.326-.009.474,0a.843.843,0,0,1,.067,1.678,2.915,2.915,0,0,1-.422.012H52.95c-.113,0-.226.006-.338,0a.844.844,0,0,1,.029-1.688c.124-.008.247,0,.431,0V36.537c0-.852.29-1.136,1.144-1.137H55.64V32.991c.007-.677.309-.984.981-.986h4.746c-.226-.677-.424-1.3-.627-1.925-.827-2.538-1.657-5.077-2.474-7.616a.825.825,0,0,0-.536-.576c-3.123-1.212-6.237-2.439-9.358-3.655-.367-.142-.653-.329-.7-.754a.925.925,0,0,1,.532-.925c.614-.372,1.221-.757,1.835-1.128a.852.852,0,1,1,.892,1.442c-.152.1-.306.2-.513.326.979.387,1.9.752,2.828,1.116,1.873.736,3.743,1.479,5.623,2.2a1.32,1.32,0,0,1,.845.912c1.1,3.4,2.21,6.787,3.307,10.183.1.3.226.43.557.407a9.84,9.84,0,0,1,1.354,0c.315.021.435-.107.534-.386.925-2.624,1.864-5.244,2.8-7.863.3-.84.451-.957,1.33-.881q3.875.338,7.748.688c.113.01.219,0,.372,0-.1-.171-.173-.317-.257-.451-1.427-2.357-2.847-4.726-4.3-7.068a1.5,1.5,0,0,1-.142-1.467c1.036-2.658,2.039-5.328,3.053-7.994.049-.129.094-.258.167-.461-.839.226-1.621.438-2.4.654-2.031.564-4.071,1.12-6.1,1.706a1.27,1.27,0,0,1-1.283-.262c-2.21-1.814-4.436-3.61-6.656-5.415-.085-.069-.175-.13-.32-.238-.055.808-.113,1.557-.158,2.306-.125,2.022-.252,4.044-.366,6.067A2.128,2.128,0,0,1,57.263,12.9a.842.842,0,0,1-.927-.5.7.7,0,0,1,.232-.969c.669-.3.706-.817.74-1.433.16-2.933.371-5.866.534-8.8A1.337,1.337,0,0,1,58.45,0Zm9.279,41.515V37.133h-8.15v4.383ZM57.36,35.367H70.944V33.731H57.361Zm.974,6.148V37.134H54.812v4.382Zm11.659-4.4V41.5h3.515V37.121Z" transform="translate(-47.667)" fill="#fff"/>
  <path id="Path_15780" data-name="Path 15780" d="M95.839,117.359a.843.843,0,0,1,.848.82.872.872,0,0,1-.853.871.855.855,0,0,1-.836-.874A.829.829,0,0,1,95.839,117.359Z" transform="translate(-89.658 -104.12)" fill="#fff"/>
  <path id="Path_15781" data-name="Path 15781" d="M165.91,333.533h-8.15V329.15h8.15Z" transform="translate(-145.34 -292.017)" fill="#d5ba56"/>
  <path id="Path_15782" data-name="Path 15782" d="M133.6,300.638V299h13.583v1.641Z" transform="translate(-123.906 -265.269)" fill="#d5ba56"/>
  <path id="Path_15783" data-name="Path 15783" d="M114.522,333.542H111V329.16h3.521Z" transform="translate(-103.855 -292.026)" fill="#d5ba56"/>
  <path id="Path_15784" data-name="Path 15784" d="M245.57,329.05h3.515v4.384H245.57Z" transform="translate(-223.244 -291.929)" fill="#d5ba56"/>
</svg>
