<?xml version="1.0" encoding="UTF-8"?><svg id="Claim_Settlement" xmlns="http://www.w3.org/2000/svg" width="24" height="24" viewBox="0 0 24 24"><defs><style>.cls-1{fill:#fff;}.cls-2{fill:#ee744d;}</style></defs><path class="cls-2" d="M16.3,20.6H6.3s0,0,0,0c-.4,0-.7-.2-.9-.5-.2-.2-.3-.5-.3-.7,0-4.6,0-9.3,0-13.9,0-.2,0-.3,.1-.5,.3-.6,.8-.8,1.4-.8,2.3,0,4.7,0,7,0,0,0,.1,0,.2,0v.2c0,1,0,2.1,0,3.1,0,.4,.2,.6,.6,.6,1,0,2.1,0,3.1,0,0,0,.1,0,.2,0,0,0,0,.1,0,.2,0,.6,0,1.2,0,1.8,0,.1,0,.2-.1,.3-1,1-2.1,2-3.1,3.1-.2,.2-.4,.4-.5,.7-.2,.5-.4,1.1-.6,1.6-.1,.4,0,.8,.3,1.2,.3,.3,.7,.4,1.2,.3,.4-.1,.9-.3,1.3-.4,.3-.1,.6-.3,.8-.5,.1-.1,.3-.3,.4-.4,0,0,0,0,.1,0,0,1.2,0,2.4,0,3.6,0,.4-.2,.8-.5,1.1-.2,.2-.5,.3-.7,.3Zm-5.5-10.7c.2,0,.5,0,.7,0,.9,0,1.8,0,2.6,0,.3,0,.5-.2,.5-.5,0-.3-.2-.5-.5-.5-2.2,0-4.4,0-6.6,0,0,0,0,0-.1,0-.2,0-.3,.1-.4,.3-.1,.3,.1,.6,.5,.6,1.1,0,2.2,0,3.3,0Zm-1,1.9c.8,0,1.6,0,2.4,0,.3,0,.5-.2,.5-.5,0-.3-.2-.5-.5-.5-1.2,0-2.4,0-3.6,0-.4,0-.7,0-1.1,0-.2,0-.4,.1-.5,.3-.1,.3,.1,.7,.5,.7,.8,0,1.6,0,2.4,0Zm0,1.9s0,0,0,0c.8,0,1.5,0,2.3,0,.3,0,.5-.2,.5-.5,0-.3-.2-.5-.5-.5-1,0-2,0-3,0-.6,0-1.1,0-1.7,0-.2,0-.4,0-.5,.3-.1,.3,0,.7,.5,.7,.8,0,1.6,0,2.4,0Zm0,1c-.4,0-.7,0-1.1,0-.4,0-.9,0-1.3,0-.3,0-.5,.2-.5,.5,0,.3,.2,.5,.5,.5,0,0,0,0,.1,0,1.5,0,3,0,4.6,0,0,0,.1,0,.2,0,.3,0,.5-.3,.4-.6,0-.2-.2-.4-.5-.4-.8,0-1.6,0-2.4,0Zm2.9,2.9c-.5,0-.9,0-1.4,0-.3,0-.5,.2-.5,.5,0,.3,.2,.5,.5,.5,.9,0,1.9,0,2.8,0,.3,0,.5-.2,.5-.5,0-.3-.2-.5-.5-.5-.5,0-.9,0-1.4,0Z"/><path class="cls-1" d="M5,19.3c0,.3,.1,.5,.3,.7,.2,.3,.5,.5,.9,.5,0,0,0,0,0,0h-1.3v-1.3Z"/><path class="cls-2" d="M16.7,15c-.4-.4-.9-.9-1.3-1.3,1-1,2.1-2.1,3.1-3.1,.4,.4,.9,.9,1.3,1.3-1,1-2.1,2.1-3.1,3.1Z"/><path class="cls-2" d="M14.7,6.9v-2.9c.3,0,.7,0,.9,.3,.2,.2,.4,.4,.6,.6,.3,.3,.7,.7,1,1.1,.2,.3,.3,.6,.3,1h-2.9Z"/><path class="cls-2" d="M19.2,9.8c.2-.3,.5-.5,.7-.8,.4-.3,1-.2,1.3,0,.3,.4,.4,.9,0,1.3-.2,.3-.5,.5-.8,.7-.4-.4-.9-.9-1.3-1.3Z"/><path class="cls-2" d="M15.8,15.6c-.4,.1-.8,.3-1.2,.4-.2,0-.4,0-.3-.3,.1-.4,.3-.8,.4-1.2,.4,.4,.7,.7,1.1,1.1Z"/></svg>