<?xml version="1.0" encoding="UTF-8"?><svg xmlns="http://www.w3.org/2000/svg" width="32" height="32" viewBox="0 0 32 32"><defs><style>.cls-1{fill:#ee744d;}.cls-2{fill:none;stroke:#d8dee7;stroke-miterlimit:10;}</style></defs><g id="Sandclock"><g><path class="cls-1" d="M11.3,21.8c0-.1,0-.2,0-.4,0-.7,.2-1.4,.5-2.1,.5-1.2,1.3-2.2,2.1-3.1,.2-.2,.2-.3,0-.5-1-1-1.8-2.2-2.3-3.5-.2-.6-.4-1.2-.3-1.8,0-.1,0-.2,0-.3-.1,0-.2,0-.3,0-.4,0-.7-.4-.8-.9,0-.5,0-.9,.5-1.1,.2,0,.3-.1,.5-.1,3.2,0,6.3,0,9.5,0,.6,0,1,.4,1,1,0,.6-.2,.9-.8,1.1,0,.3,0,.6,0,1,0,.8-.4,1.6-.8,2.3-.5,.9-1.1,1.7-1.8,2.4-.2,.2-.2,.3,0,.4,.9,1,1.7,2,2.2,3.3,.3,.7,.5,1.4,.4,2.1,0,0,0,.2,0,.3,0,0,0,0,.1,0,.4,.1,.7,.4,.7,.9,0,.2,0,.3,0,.5-.1,.4-.5,.7-.9,.7-3.2,0-6.4,0-9.5,0-.6,0-1-.4-1-1,0-.4,.1-.8,.5-1,.2,0,.4-.1,.6-.2Zm8.5,0c0-.3,0-.6,0-.9-.1-.7-.4-1.4-.8-2-.5-.9-1.2-1.7-1.9-2.5-.3-.4-.3-.7,0-1,0,0,.1-.1,.2-.2,.8-.9,1.6-1.9,2.1-3,.3-.6,.5-1.3,.5-2,0-.1,0-.2-.2-.2-2.4,0-4.8,0-7.2,0,0,0,0,0-.2,0,0,.2,0,.4,0,.6,0,.6,.3,1.2,.5,1.7,.6,1.2,1.4,2.1,2.3,3.1,.3,.3,.3,.7,0,1-.6,.6-1.1,1.2-1.5,1.8-.5,.7-.9,1.4-1.2,2.3-.1,.4-.2,.8-.1,1.3h7.5Z"/><path class="cls-1" d="M16.1,21.1c-.9,0-1.8,0-2.6,0-.3,0-.4,0-.3-.4,0-.6,.3-1.2,.7-1.7,.5-.9,1.3-1.7,2.1-2.4,.2-.1,.3-.1,.4,0,1,.8,1.8,1.7,2.4,2.8,.2,.4,.4,.8,.4,1.3,0,0,0,.1,0,.2,0,.2,0,.2-.2,.2-.2,0-.3,0-.5,0-.8,0-1.5,0-2.3,0Z"/><path class="cls-1" d="M17.9,13.8c0,0,0,.1,0,.2-.4,.6-1,1.1-1.6,1.5,0,0-.2,0-.3,0-.6-.4-1.1-.9-1.6-1.5,0,0,0-.1-.1-.2h3.6Z"/></g></g><g id="Circle_32x32"><path class="cls-2" d="M.3,16c0,8.7,7,15.7,15.7,15.7"/><path class="cls-2" d="M16,.3C7.3,.3,.3,7.3,.3,16"/><path class="cls-2" d="M31.7,16C31.7,7.3,24.7,.3,16,.3"/><path class="cls-2" d="M16,31.7c8.7,0,15.7-7,15.7-15.7"/></g></svg>